%TF.GenerationSoftware,KiCad,Pcbnew,9.0.3*%
%TF.CreationDate,2025-08-09T17:03:07-04:00*%
%TF.ProjectId,DC_servo_joint,44435f73-6572-4766-9f5f-6a6f696e742e,rev?*%
%TF.SameCoordinates,Original*%
%TF.FileFunction,Copper,L1,Top*%
%TF.FilePolarity,Positive*%
%FSLAX46Y46*%
G04 Gerber Fmt 4.6, Leading zero omitted, Abs format (unit mm)*
G04 Created by KiCad (PCBNEW 9.0.3) date 2025-08-09 17:03:07*
%MOMM*%
%LPD*%
G01*
G04 APERTURE LIST*
G04 Aperture macros list*
%AMRoundRect*
0 Rectangle with rounded corners*
0 $1 Rounding radius*
0 $2 $3 $4 $5 $6 $7 $8 $9 X,Y pos of 4 corners*
0 Add a 4 corners polygon primitive as box body*
4,1,4,$2,$3,$4,$5,$6,$7,$8,$9,$2,$3,0*
0 Add four circle primitives for the rounded corners*
1,1,$1+$1,$2,$3*
1,1,$1+$1,$4,$5*
1,1,$1+$1,$6,$7*
1,1,$1+$1,$8,$9*
0 Add four rect primitives between the rounded corners*
20,1,$1+$1,$2,$3,$4,$5,0*
20,1,$1+$1,$4,$5,$6,$7,0*
20,1,$1+$1,$6,$7,$8,$9,0*
20,1,$1+$1,$8,$9,$2,$3,0*%
G04 Aperture macros list end*
%TA.AperFunction,SMDPad,CuDef*%
%ADD10RoundRect,0.225000X0.250000X-0.225000X0.250000X0.225000X-0.250000X0.225000X-0.250000X-0.225000X0*%
%TD*%
%TA.AperFunction,SMDPad,CuDef*%
%ADD11RoundRect,0.225000X0.225000X0.250000X-0.225000X0.250000X-0.225000X-0.250000X0.225000X-0.250000X0*%
%TD*%
%TA.AperFunction,SMDPad,CuDef*%
%ADD12RoundRect,0.140000X-0.140000X-0.170000X0.140000X-0.170000X0.140000X0.170000X-0.140000X0.170000X0*%
%TD*%
%TA.AperFunction,SMDPad,CuDef*%
%ADD13RoundRect,0.125000X0.125000X-0.537500X0.125000X0.537500X-0.125000X0.537500X-0.125000X-0.537500X0*%
%TD*%
%TA.AperFunction,SMDPad,CuDef*%
%ADD14RoundRect,0.250000X0.250000X0.475000X-0.250000X0.475000X-0.250000X-0.475000X0.250000X-0.475000X0*%
%TD*%
%TA.AperFunction,SMDPad,CuDef*%
%ADD15RoundRect,0.140000X0.140000X0.170000X-0.140000X0.170000X-0.140000X-0.170000X0.140000X-0.170000X0*%
%TD*%
%TA.AperFunction,SMDPad,CuDef*%
%ADD16RoundRect,0.140000X0.170000X-0.140000X0.170000X0.140000X-0.170000X0.140000X-0.170000X-0.140000X0*%
%TD*%
%TA.AperFunction,SMDPad,CuDef*%
%ADD17R,0.500000X0.600000*%
%TD*%
%TA.AperFunction,SMDPad,CuDef*%
%ADD18R,0.900000X1.500000*%
%TD*%
%TA.AperFunction,HeatsinkPad*%
%ADD19C,0.600000*%
%TD*%
%TA.AperFunction,HeatsinkPad*%
%ADD20R,2.900000X2.900000*%
%TD*%
%TA.AperFunction,SMDPad,CuDef*%
%ADD21RoundRect,0.250000X0.650000X-0.325000X0.650000X0.325000X-0.650000X0.325000X-0.650000X-0.325000X0*%
%TD*%
%TA.AperFunction,SMDPad,CuDef*%
%ADD22O,0.570000X1.950000*%
%TD*%
%TA.AperFunction,SMDPad,CuDef*%
%ADD23R,0.500000X2.200000*%
%TD*%
%TA.AperFunction,ComponentPad*%
%ADD24C,0.630000*%
%TD*%
%TA.AperFunction,SMDPad,CuDef*%
%ADD25R,4.900000X2.950000*%
%TD*%
%TA.AperFunction,SMDPad,CuDef*%
%ADD26RoundRect,0.220000X0.255000X-0.220000X0.255000X0.220000X-0.255000X0.220000X-0.255000X-0.220000X0*%
%TD*%
%TA.AperFunction,ComponentPad*%
%ADD27R,1.700000X1.700000*%
%TD*%
%TA.AperFunction,ComponentPad*%
%ADD28C,1.700000*%
%TD*%
%TA.AperFunction,SMDPad,CuDef*%
%ADD29RoundRect,0.248780X-0.451220X0.261220X-0.451220X-0.261220X0.451220X-0.261220X0.451220X0.261220X0*%
%TD*%
%TA.AperFunction,SMDPad,CuDef*%
%ADD30RoundRect,0.250000X-0.650000X0.325000X-0.650000X-0.325000X0.650000X-0.325000X0.650000X0.325000X0*%
%TD*%
%TA.AperFunction,SMDPad,CuDef*%
%ADD31RoundRect,0.150000X0.825000X0.150000X-0.825000X0.150000X-0.825000X-0.150000X0.825000X-0.150000X0*%
%TD*%
%TA.AperFunction,SMDPad,CuDef*%
%ADD32RoundRect,0.225000X-0.250000X0.225000X-0.250000X-0.225000X0.250000X-0.225000X0.250000X0.225000X0*%
%TD*%
%TA.AperFunction,SMDPad,CuDef*%
%ADD33RoundRect,0.140000X-0.170000X0.140000X-0.170000X-0.140000X0.170000X-0.140000X0.170000X0.140000X0*%
%TD*%
%TA.AperFunction,SMDPad,CuDef*%
%ADD34RoundRect,0.250000X-0.325000X-0.650000X0.325000X-0.650000X0.325000X0.650000X-0.325000X0.650000X0*%
%TD*%
%TA.AperFunction,SMDPad,CuDef*%
%ADD35R,0.600000X0.500000*%
%TD*%
%TA.AperFunction,SMDPad,CuDef*%
%ADD36R,1.500000X1.800000*%
%TD*%
%TA.AperFunction,SMDPad,CuDef*%
%ADD37RoundRect,0.250000X1.000000X0.900000X-1.000000X0.900000X-1.000000X-0.900000X1.000000X-0.900000X0*%
%TD*%
%TA.AperFunction,SMDPad,CuDef*%
%ADD38R,2.286000X1.854500*%
%TD*%
%TA.AperFunction,SMDPad,CuDef*%
%ADD39RoundRect,0.150000X-0.512500X-0.150000X0.512500X-0.150000X0.512500X0.150000X-0.512500X0.150000X0*%
%TD*%
%TA.AperFunction,SMDPad,CuDef*%
%ADD40RoundRect,0.225000X-0.225000X-0.250000X0.225000X-0.250000X0.225000X0.250000X-0.225000X0.250000X0*%
%TD*%
%TA.AperFunction,SMDPad,CuDef*%
%ADD41RoundRect,0.250000X-1.000000X-0.650000X1.000000X-0.650000X1.000000X0.650000X-1.000000X0.650000X0*%
%TD*%
%TA.AperFunction,SMDPad,CuDef*%
%ADD42R,1.200000X1.200000*%
%TD*%
%TA.AperFunction,SMDPad,CuDef*%
%ADD43RoundRect,0.250000X1.000000X0.650000X-1.000000X0.650000X-1.000000X-0.650000X1.000000X-0.650000X0*%
%TD*%
%TA.AperFunction,SMDPad,CuDef*%
%ADD44RoundRect,0.200000X-0.200000X-0.275000X0.200000X-0.275000X0.200000X0.275000X-0.200000X0.275000X0*%
%TD*%
%TA.AperFunction,ComponentPad*%
%ADD45RoundRect,0.250000X0.600000X0.750000X-0.600000X0.750000X-0.600000X-0.750000X0.600000X-0.750000X0*%
%TD*%
%TA.AperFunction,ComponentPad*%
%ADD46O,1.700000X2.000000*%
%TD*%
%TA.AperFunction,ComponentPad*%
%ADD47RoundRect,0.250000X-0.725000X0.600000X-0.725000X-0.600000X0.725000X-0.600000X0.725000X0.600000X0*%
%TD*%
%TA.AperFunction,ComponentPad*%
%ADD48O,1.950000X1.700000*%
%TD*%
%TA.AperFunction,ComponentPad*%
%ADD49RoundRect,0.250001X1.099999X-1.099999X1.099999X1.099999X-1.099999X1.099999X-1.099999X-1.099999X0*%
%TD*%
%TA.AperFunction,ComponentPad*%
%ADD50C,2.700000*%
%TD*%
%TA.AperFunction,ComponentPad*%
%ADD51RoundRect,0.250000X-0.388909X-0.673610X0.673610X-0.388909X0.388909X0.673610X-0.673610X0.388909X0*%
%TD*%
%TA.AperFunction,ComponentPad*%
%ADD52C,1.600000*%
%TD*%
%TA.AperFunction,ComponentPad*%
%ADD53RoundRect,0.250001X-1.099999X1.099999X-1.099999X-1.099999X1.099999X-1.099999X1.099999X1.099999X0*%
%TD*%
%TA.AperFunction,ComponentPad*%
%ADD54RoundRect,0.250000X0.725000X-0.600000X0.725000X0.600000X-0.725000X0.600000X-0.725000X-0.600000X0*%
%TD*%
%TA.AperFunction,ViaPad*%
%ADD55C,0.600000*%
%TD*%
%TA.AperFunction,ViaPad*%
%ADD56C,0.500000*%
%TD*%
%TA.AperFunction,ViaPad*%
%ADD57C,0.400000*%
%TD*%
%TA.AperFunction,Conductor*%
%ADD58C,0.500000*%
%TD*%
%TA.AperFunction,Conductor*%
%ADD59C,0.250000*%
%TD*%
%TA.AperFunction,Conductor*%
%ADD60C,0.350000*%
%TD*%
%TA.AperFunction,Conductor*%
%ADD61C,1.000000*%
%TD*%
%TA.AperFunction,Conductor*%
%ADD62C,0.200000*%
%TD*%
G04 APERTURE END LIST*
D10*
%TO.P,C12,1*%
%TO.N,/V_IN*%
X107500000Y-69480000D03*
%TO.P,C12,2*%
%TO.N,GND*%
X107500000Y-67920000D03*
%TD*%
D11*
%TO.P,C8,1*%
%TO.N,+3.3V*%
X130580000Y-62050000D03*
%TO.P,C8,2*%
%TO.N,GND*%
X129020000Y-62050000D03*
%TD*%
D12*
%TO.P,R_i2c1,1*%
%TO.N,+3.3V*%
X148250000Y-70500000D03*
%TO.P,R_i2c1,2*%
%TO.N,/SCL*%
X149250000Y-70500000D03*
%TD*%
D13*
%TO.P,U_6,1,IN+*%
%TO.N,+12V*%
X104250000Y-82800000D03*
%TO.P,U_6,2,IN-*%
%TO.N,/V_motor*%
X104900000Y-82800000D03*
%TO.P,U_6,3,GND*%
%TO.N,GND*%
X105550000Y-82800000D03*
%TO.P,U_6,4,VS*%
%TO.N,+3.3V*%
X106200000Y-82800000D03*
%TO.P,U_6,5,SCL*%
%TO.N,/SCL*%
X106200000Y-80525000D03*
%TO.P,U_6,6,SDA*%
%TO.N,/SDA*%
X105550000Y-80525000D03*
%TO.P,U_6,7,A0*%
%TO.N,GND*%
X104900000Y-80525000D03*
%TO.P,U_6,8,A1*%
X104250000Y-80525000D03*
%TD*%
D14*
%TO.P,C14,1*%
%TO.N,+3.3V*%
X130550000Y-64050000D03*
%TO.P,C14,2*%
%TO.N,GND*%
X128650000Y-64050000D03*
%TD*%
D15*
%TO.P,R2,1*%
%TO.N,/NTC_PIN*%
X130700000Y-85600000D03*
%TO.P,R2,2*%
%TO.N,+3.3V*%
X129700000Y-85600000D03*
%TD*%
D16*
%TO.P,R7,1*%
%TO.N,Net-(U5-VFB)*%
X114000000Y-69800000D03*
%TO.P,R7,2*%
%TO.N,GND*%
X114000000Y-68800000D03*
%TD*%
D17*
%TO.P,D4,1*%
%TO.N,/Mot2*%
X113300000Y-89950000D03*
%TO.P,D4,2*%
%TO.N,/Mot1*%
X112500000Y-89950000D03*
%TD*%
D18*
%TO.P,U2,1,3V3*%
%TO.N,+3.3V*%
X130600000Y-66550000D03*
%TO.P,U2,2,EN*%
%TO.N,/RST_BTM*%
X129100000Y-66550000D03*
%TO.P,U2,3,IO4*%
%TO.N,/SCL*%
X127600000Y-66550000D03*
%TO.P,U2,4,IO5*%
%TO.N,/SDA*%
X126100000Y-66550000D03*
%TO.P,U2,5,IO6*%
%TO.N,/UART_TX*%
X124600000Y-66550000D03*
%TO.P,U2,6,IO7*%
%TO.N,/485_RE_DE*%
X123100000Y-66550000D03*
%TO.P,U2,7,IO8*%
%TO.N,/UART_RX*%
X121600000Y-66550000D03*
%TO.P,U2,8,IO9*%
%TO.N,/BOOT_BTM*%
X120100000Y-66550000D03*
%TO.P,U2,9,GND*%
%TO.N,GND*%
X118600000Y-66550000D03*
%TO.P,U2,10,IO10*%
%TO.N,unconnected-(U2-IO10-Pad10)*%
X118600000Y-84050000D03*
%TO.P,U2,11,IO20/RXD*%
%TO.N,unconnected-(U2-IO20{slash}RXD-Pad11)*%
X120100000Y-84050000D03*
%TO.P,U2,12,IO21/TXD*%
%TO.N,unconnected-(U2-IO21{slash}TXD-Pad12)*%
X121600000Y-84050000D03*
%TO.P,U2,13,IO18*%
%TO.N,/D-*%
X123100000Y-84050000D03*
%TO.P,U2,14,IO19*%
%TO.N,/D+*%
X124600000Y-84050000D03*
%TO.P,U2,15,IO3*%
%TO.N,/pwm2_io3*%
X126100000Y-84050000D03*
%TO.P,U2,16,IO2*%
%TO.N,unconnected-(U2-IO2-Pad16)*%
X127600000Y-84050000D03*
%TO.P,U2,17,IO1*%
%TO.N,/pwm1_io2*%
X129100000Y-84050000D03*
%TO.P,U2,18,IO0*%
%TO.N,/NTC_PIN*%
X130600000Y-84050000D03*
D19*
%TO.P,U2,19,GND*%
%TO.N,GND*%
X124950000Y-75160000D03*
X123850000Y-75160000D03*
X125500000Y-75710000D03*
X124400000Y-75710000D03*
X123300000Y-75710000D03*
X124950000Y-76260000D03*
D20*
X124400000Y-76260000D03*
D19*
X123850000Y-76260000D03*
X125500000Y-76810000D03*
X124400000Y-76810000D03*
X123300000Y-76810000D03*
X124950000Y-77360000D03*
X123850000Y-77360000D03*
%TD*%
D21*
%TO.P,C17,1*%
%TO.N,+12V*%
X116900000Y-96530000D03*
%TO.P,C17,2*%
%TO.N,GND*%
X116900000Y-93570000D03*
%TD*%
D22*
%TO.P,U3,1,RO*%
%TO.N,/UART_RX*%
X120540000Y-63760000D03*
%TO.P,U3,2,RE#*%
%TO.N,/485_RE_DE*%
X121810000Y-63760000D03*
%TO.P,U3,3,DE*%
X123090000Y-63760000D03*
%TO.P,U3,4,DI*%
%TO.N,/UART_TX*%
X124360000Y-63760000D03*
%TO.P,U3,5,GND*%
%TO.N,GND*%
X124360000Y-58340000D03*
%TO.P,U3,6,A*%
%TO.N,/RS485A*%
X123090000Y-58340000D03*
%TO.P,U3,7,B*%
%TO.N,/RS485B*%
X121810000Y-58340000D03*
%TO.P,U3,8,VCC*%
%TO.N,+3.3V*%
X120540000Y-58340000D03*
%TD*%
D21*
%TO.P,C1,1*%
%TO.N,+12V*%
X125700000Y-96530000D03*
%TO.P,C1,2*%
%TO.N,GND*%
X125700000Y-93570000D03*
%TD*%
D23*
%TO.P,U_MOTOR_1,1,GND*%
%TO.N,GND*%
X114155000Y-79475000D03*
%TO.P,U_MOTOR_1,2,IN2*%
%TO.N,/pwm2_io3*%
X112885000Y-79475000D03*
%TO.P,U_MOTOR_1,3,IN1*%
%TO.N,/pwm1_io2*%
X111615000Y-79475000D03*
%TO.P,U_MOTOR_1,4,ILIM*%
%TO.N,Net-(U_MOTOR_1-ILIM)*%
X110345000Y-79475000D03*
%TO.P,U_MOTOR_1,5,VM*%
%TO.N,/V_motor*%
X110345000Y-85225000D03*
%TO.P,U_MOTOR_1,6,OUT1*%
%TO.N,/Mot1*%
X111615000Y-85225000D03*
%TO.P,U_MOTOR_1,7,GND*%
%TO.N,GND*%
X112885000Y-85225000D03*
%TO.P,U_MOTOR_1,8,OUT2*%
%TO.N,/Mot2*%
X114155000Y-85225000D03*
D24*
%TO.P,U_MOTOR_1,9,GND*%
%TO.N,GND*%
X113550000Y-81700000D03*
X112250000Y-81700000D03*
X110950000Y-81700000D03*
D25*
X112250000Y-82350000D03*
D24*
X113550000Y-83000000D03*
X112250000Y-83000000D03*
X110950000Y-83000000D03*
%TD*%
D26*
%TO.P,D6,1*%
%TO.N,Net-(D6-Pad1)*%
X102400000Y-63890000D03*
%TO.P,D6,2*%
%TO.N,+3.3V*%
X102400000Y-62310000D03*
%TD*%
D27*
%TO.P,J_USB1,1,Pin_1*%
%TO.N,unconnected-(J_USB1-Pin_1-Pad1)*%
X117120000Y-87000000D03*
D28*
%TO.P,J_USB1,2,Pin_2*%
%TO.N,/usb_5v*%
X117120000Y-89540000D03*
%TO.P,J_USB1,3,Pin_3*%
%TO.N,/D-*%
X119660000Y-87000000D03*
%TO.P,J_USB1,4,Pin_4*%
%TO.N,unconnected-(J_USB1-Pin_4-Pad4)*%
X119660000Y-89540000D03*
%TO.P,J_USB1,5,Pin_5*%
%TO.N,/D+*%
X122200000Y-87000000D03*
%TO.P,J_USB1,6,Pin_6*%
%TO.N,GND*%
X122200000Y-89540000D03*
%TD*%
D21*
%TO.P,C2,1*%
%TO.N,+12V*%
X108800000Y-96530000D03*
%TO.P,C2,2*%
%TO.N,GND*%
X108800000Y-93570000D03*
%TD*%
D29*
%TO.P,R3,1*%
%TO.N,Net-(U_MOTOR_1-ILIM)*%
X108100000Y-79290000D03*
%TO.P,R3,2*%
%TO.N,GND*%
X108100000Y-81110000D03*
%TD*%
D30*
%TO.P,C10,1*%
%TO.N,+3.3V*%
X107200000Y-61320000D03*
%TO.P,C10,2*%
%TO.N,GND*%
X107200000Y-64280000D03*
%TD*%
D31*
%TO.P,U1,1,VDD5V*%
%TO.N,+3.3V*%
X152475000Y-76905000D03*
%TO.P,U1,2,VDD3V3*%
X152475000Y-75635000D03*
%TO.P,U1,3,OUT*%
%TO.N,unconnected-(U1-OUT-Pad3)*%
X152475000Y-74365000D03*
%TO.P,U1,4,GND*%
%TO.N,GND*%
X152475000Y-73095000D03*
%TO.P,U1,5,DIR*%
%TO.N,+3.3V*%
X147525000Y-73095000D03*
%TO.P,U1,6,SCL*%
%TO.N,/SCL*%
X147525000Y-74365000D03*
%TO.P,U1,7,SDA*%
%TO.N,/SDA*%
X147525000Y-75635000D03*
%TO.P,U1,8,PGO*%
%TO.N,unconnected-(U1-PGO-Pad8)*%
X147525000Y-76905000D03*
%TD*%
D32*
%TO.P,C4,1*%
%TO.N,/RST_BTM*%
X116700000Y-71000000D03*
%TO.P,C4,2*%
%TO.N,GND*%
X116700000Y-72560000D03*
%TD*%
D33*
%TO.P,R5,1*%
%TO.N,+3.3V*%
X116700000Y-68780000D03*
%TO.P,R5,2*%
%TO.N,/RST_BTM*%
X116700000Y-69780000D03*
%TD*%
D34*
%TO.P,C5,1*%
%TO.N,/Mot1*%
X111420000Y-88150000D03*
%TO.P,C5,2*%
%TO.N,/Mot2*%
X114380000Y-88150000D03*
%TD*%
D30*
%TO.P,C3,1*%
%TO.N,+3.3V*%
X104700000Y-61300000D03*
%TO.P,C3,2*%
%TO.N,GND*%
X104700000Y-64260000D03*
%TD*%
D35*
%TO.P,D2,1*%
%TO.N,GND*%
X118700000Y-94650000D03*
%TO.P,D2,2*%
%TO.N,+12V*%
X118700000Y-95450000D03*
%TD*%
D15*
%TO.P,R_i2c2,1*%
%TO.N,+3.3V*%
X151750000Y-70500000D03*
%TO.P,R_i2c2,2*%
%TO.N,/SDA*%
X150750000Y-70500000D03*
%TD*%
D36*
%TO.P,R_SHUT2,1*%
%TO.N,/V_motor*%
X108000000Y-88000000D03*
%TO.P,R_SHUT2,2*%
%TO.N,+12V*%
X104400000Y-88000000D03*
%TD*%
D37*
%TO.P,D1,1*%
%TO.N,GND*%
X129950000Y-88600000D03*
%TO.P,D1,2*%
%TO.N,/usb_5v*%
X125650000Y-88600000D03*
%TD*%
D38*
%TO.P,L1,1,1*%
%TO.N,+3.3V*%
X111000000Y-60015500D03*
%TO.P,L1,2,2*%
%TO.N,/TPS_SW*%
X111000000Y-63800000D03*
%TD*%
D33*
%TO.P,R1,1*%
%TO.N,+3.3V*%
X115500000Y-68800000D03*
%TO.P,R1,2*%
%TO.N,Net-(U5-VFB)*%
X115500000Y-69800000D03*
%TD*%
D11*
%TO.P,C7,1*%
%TO.N,+3.3V*%
X152380000Y-78600000D03*
%TO.P,C7,2*%
%TO.N,GND*%
X150820000Y-78600000D03*
%TD*%
D39*
%TO.P,U5,1,GND*%
%TO.N,GND*%
X109862500Y-67850000D03*
%TO.P,U5,2,SW*%
%TO.N,/TPS_SW*%
X109862500Y-68800000D03*
%TO.P,U5,3,VIN*%
%TO.N,/V_IN*%
X109862500Y-69750000D03*
%TO.P,U5,4,VFB*%
%TO.N,Net-(U5-VFB)*%
X112137500Y-69750000D03*
%TO.P,U5,5,EN*%
%TO.N,Net-(U5-EN)*%
X112137500Y-68800000D03*
%TO.P,U5,6,VBST*%
%TO.N,Net-(U5-VBST)*%
X112137500Y-67850000D03*
%TD*%
D12*
%TO.P,R6,1*%
%TO.N,Net-(D6-Pad1)*%
X102900000Y-65800000D03*
%TO.P,R6,2*%
%TO.N,GND*%
X103900000Y-65800000D03*
%TD*%
D32*
%TO.P,C16,1*%
%TO.N,+3.3V*%
X119200000Y-58270000D03*
%TO.P,C16,2*%
%TO.N,GND*%
X119200000Y-59830000D03*
%TD*%
D40*
%TO.P,C13,1*%
%TO.N,/TPS_SW*%
X111470000Y-66050000D03*
%TO.P,C13,2*%
%TO.N,Net-(U5-VBST)*%
X113030000Y-66050000D03*
%TD*%
D41*
%TO.P,D3,1*%
%TO.N,/V_IN*%
X109500000Y-73700000D03*
%TO.P,D3,2*%
%TO.N,/usb_5v*%
X113500000Y-73700000D03*
%TD*%
D21*
%TO.P,C9,1*%
%TO.N,/V_IN*%
X105300000Y-70280000D03*
%TO.P,C9,2*%
%TO.N,GND*%
X105300000Y-67320000D03*
%TD*%
D10*
%TO.P,C6,1*%
%TO.N,+3.3V*%
X102800000Y-81780000D03*
%TO.P,C6,2*%
%TO.N,GND*%
X102800000Y-80220000D03*
%TD*%
D42*
%TO.P,R_TERM_1,1*%
%TO.N,/RS485B*%
X103000000Y-55550000D03*
%TO.P,R_TERM_1,2*%
%TO.N,/RS485A*%
X103000000Y-57650000D03*
%TD*%
D43*
%TO.P,D5,1*%
%TO.N,/V_IN*%
X106000000Y-73300000D03*
%TO.P,D5,2*%
%TO.N,+12V*%
X102000000Y-73300000D03*
%TD*%
D44*
%TO.P,R4,1*%
%TO.N,/V_IN*%
X110180000Y-71200000D03*
%TO.P,R4,2*%
%TO.N,Net-(U5-EN)*%
X111820000Y-71200000D03*
%TD*%
D45*
%TO.P,J_MOT1,1*%
%TO.N,/Mot2*%
X114100000Y-93300000D03*
D46*
%TO.P,J_MOT1,2*%
%TO.N,/Mot1*%
X111600000Y-93300000D03*
%TD*%
D47*
%TO.P,J_BUS1,1*%
%TO.N,/RS485A*%
X129155000Y-52900000D03*
D48*
%TO.P,J_BUS1,2*%
%TO.N,/RS485B*%
X129155000Y-55400000D03*
%TO.P,J_BUS1,3*%
%TO.N,/UART_TX*%
X129155000Y-57900000D03*
%TD*%
D49*
%TO.P,J_PWR1,1*%
%TO.N,+12V*%
X105600000Y-96930000D03*
D50*
%TO.P,J_PWR1,2*%
%TO.N,GND*%
X105600000Y-92970000D03*
%TD*%
D51*
%TO.P,C15,1*%
%TO.N,+12V*%
X104219260Y-85630867D03*
D52*
%TO.P,C15,2*%
%TO.N,GND*%
X107600000Y-84725000D03*
%TD*%
D53*
%TO.P,J_PWR2,1*%
%TO.N,GND*%
X128800000Y-92970000D03*
D50*
%TO.P,J_PWR2,2*%
%TO.N,+12V*%
X128800000Y-96930000D03*
%TD*%
D45*
%TO.P,J_NTC1,1*%
%TO.N,/NTC_PIN*%
X123100000Y-93350000D03*
D46*
%TO.P,J_NTC1,2*%
%TO.N,GND*%
X120600000Y-93350000D03*
%TD*%
D54*
%TO.P,J_BUS2,1*%
%TO.N,/RS485A*%
X105800000Y-57900000D03*
D48*
%TO.P,J_BUS2,2*%
%TO.N,/RS485B*%
X105800000Y-55400000D03*
%TO.P,J_BUS2,3*%
%TO.N,/UART_RX*%
X105800000Y-52900000D03*
%TD*%
D55*
%TO.N,GND*%
X148250000Y-71475000D03*
D56*
X112150000Y-76850000D03*
D55*
X144500000Y-76600000D03*
X143300000Y-80000000D03*
X143300000Y-83850000D03*
D56*
X131000000Y-61000000D03*
X134000000Y-61000000D03*
X137000000Y-61000000D03*
X140000000Y-61000000D03*
X143000000Y-61750000D03*
X128250000Y-59500000D03*
X134000000Y-59250000D03*
D55*
X150750000Y-75500000D03*
X147250000Y-77750000D03*
X149000000Y-76250000D03*
X151500000Y-71500000D03*
X150500000Y-66750000D03*
X151750000Y-68250000D03*
X148250000Y-68250000D03*
X108650000Y-59350000D03*
X110000000Y-94600000D03*
X143000000Y-87900000D03*
D56*
X121450000Y-92200000D03*
D55*
X108400000Y-90800000D03*
D56*
X135750000Y-55450000D03*
D55*
X112250000Y-72250000D03*
D56*
X104800000Y-77800000D03*
X105800000Y-51150000D03*
D55*
X129534832Y-81253627D03*
X106000000Y-84000000D03*
X115800000Y-90800000D03*
X134500000Y-98700000D03*
X134850000Y-89600000D03*
D56*
X128500000Y-65300000D03*
D55*
X130900000Y-94500000D03*
X135700000Y-93350000D03*
X148000000Y-66750000D03*
X138700000Y-92100000D03*
D56*
X106800000Y-78800000D03*
D55*
X153000000Y-68200000D03*
X124600000Y-94600000D03*
X119900000Y-72300000D03*
X149550000Y-78600000D03*
X141800000Y-92100000D03*
X110100000Y-90800000D03*
X115800000Y-72600000D03*
D56*
X137000000Y-59250000D03*
D55*
X103650000Y-59250000D03*
X126350000Y-61350000D03*
X104550000Y-66150000D03*
X107400000Y-65500000D03*
X126800000Y-91900000D03*
X112850000Y-55350000D03*
X119600000Y-94600000D03*
X122400000Y-73700000D03*
D56*
X140000000Y-59250000D03*
D55*
X126100000Y-70800000D03*
X104600000Y-79200000D03*
D56*
X131400000Y-51150000D03*
D55*
X109050000Y-52200000D03*
X135700000Y-97450000D03*
X107700000Y-83300000D03*
X111450000Y-74900000D03*
X153000000Y-72250000D03*
X118600000Y-68050000D03*
X125200000Y-79500000D03*
X116250000Y-58050000D03*
X112900000Y-87150000D03*
X108700000Y-64900000D03*
D56*
X110800000Y-51150000D03*
D55*
X119700000Y-55250000D03*
X104300000Y-68400000D03*
X117200000Y-74750000D03*
D56*
X125100000Y-64800000D03*
X135750000Y-51150000D03*
D55*
X114100000Y-70900000D03*
X143300000Y-70000000D03*
D57*
X114600000Y-76850000D03*
D56*
X112800000Y-94500000D03*
D55*
X128800000Y-90250000D03*
X114000000Y-68000000D03*
X109200000Y-82300000D03*
X131100000Y-86800000D03*
X105700000Y-90800000D03*
X107350000Y-66900000D03*
X128100000Y-91100000D03*
X100800000Y-59700000D03*
X119400000Y-92200000D03*
D57*
X116900000Y-76850000D03*
D55*
X143300000Y-66150000D03*
X131000000Y-90700000D03*
X113800000Y-58100000D03*
X101350000Y-71350000D03*
X124350000Y-55250000D03*
X127125000Y-81250000D03*
X144500000Y-73400000D03*
D57*
X114650000Y-75150000D03*
D56*
X100800000Y-56000000D03*
D55*
X125100000Y-58350000D03*
D56*
X121400000Y-51150000D03*
D55*
X129325000Y-62975000D03*
D56*
X108350000Y-76850000D03*
D55*
X105000000Y-65450000D03*
D56*
X126400000Y-51150000D03*
D55*
X106150000Y-65500000D03*
X112900000Y-87850000D03*
X139900000Y-89600000D03*
X109150000Y-57300000D03*
D56*
X143000000Y-59250000D03*
D55*
X115800000Y-94600000D03*
X119200000Y-61000000D03*
X119500000Y-76500000D03*
X118600000Y-65300000D03*
X108900000Y-66000000D03*
D56*
X123800000Y-68100000D03*
D55*
X116700000Y-73500000D03*
X126900000Y-94600000D03*
D56*
X129650000Y-61325000D03*
X107400000Y-75200000D03*
X131000000Y-59250000D03*
D55*
X111100000Y-53850000D03*
X153000000Y-81800000D03*
X131900000Y-98700000D03*
X110000000Y-92800000D03*
%TO.N,+12V*%
X108800000Y-98700000D03*
X125700000Y-98700000D03*
X102700000Y-88500000D03*
X121500000Y-98650000D03*
X121500000Y-95350000D03*
X130400000Y-95500000D03*
X116900000Y-95400000D03*
X100850000Y-81800000D03*
X130500000Y-98700000D03*
X108800000Y-95400000D03*
X100750000Y-87050000D03*
X112800000Y-95750000D03*
X100900000Y-98700000D03*
X100900000Y-91600000D03*
X125700000Y-95400000D03*
X112800000Y-98700000D03*
X116900000Y-98700000D03*
X100900000Y-95600000D03*
X100800000Y-75100000D03*
%TO.N,/RST_BTM*%
X121400000Y-71400000D03*
X124200000Y-71400000D03*
D56*
%TO.N,/TPS_SW*%
X108950000Y-68800000D03*
X111900000Y-65100000D03*
X111300000Y-65100000D03*
X110950000Y-68400000D03*
X110600000Y-66400000D03*
X110600000Y-65800000D03*
X110700000Y-65100000D03*
X110100000Y-65100000D03*
D55*
%TO.N,/usb_5v*%
X115750000Y-74900000D03*
X115750000Y-79000000D03*
D56*
%TO.N,/RS485A*%
X123075000Y-57075000D03*
D55*
X111000000Y-56400000D03*
%TO.N,/UART_RX*%
X121100000Y-59800000D03*
X109600000Y-54400000D03*
%TO.N,+3.3V*%
X132800000Y-90500000D03*
X129900000Y-82600000D03*
X128900000Y-86000000D03*
X127100000Y-69300000D03*
X122450000Y-69300000D03*
D56*
%TO.N,/BOOT_BTM*%
X119300000Y-64550000D03*
%TD*%
D58*
%TO.N,+3.3V*%
X119200000Y-58270000D02*
X120470000Y-58270000D01*
X120470000Y-58270000D02*
X120540000Y-58340000D01*
X115400000Y-61000000D02*
X118130000Y-58270000D01*
X118130000Y-58270000D02*
X119200000Y-58270000D01*
D59*
%TO.N,/RS485A*%
X123090000Y-58340000D02*
X123090000Y-57090000D01*
D58*
%TO.N,+3.3V*%
X151365000Y-79615000D02*
X150990000Y-79990000D01*
X145750000Y-73000000D02*
X145750000Y-77500000D01*
X145750000Y-77500000D02*
X148240000Y-79990000D01*
X148240000Y-79990000D02*
X150990000Y-79990000D01*
X145750000Y-73000000D02*
X145845000Y-73095000D01*
X145845000Y-73095000D02*
X147525000Y-73095000D01*
X145750000Y-72250000D02*
X145750000Y-73000000D01*
X148250000Y-70500000D02*
X147500000Y-70500000D01*
X147500000Y-70500000D02*
X145750000Y-72250000D01*
X152380000Y-78600000D02*
X151365000Y-79615000D01*
X154250000Y-72250000D02*
X154250000Y-75750000D01*
X152475000Y-75635000D02*
X154135000Y-75635000D01*
X154135000Y-75635000D02*
X154250000Y-75750000D01*
X154250000Y-75750000D02*
X154250000Y-76750000D01*
X152475000Y-76905000D02*
X154095000Y-76905000D01*
X154095000Y-76905000D02*
X154250000Y-76750000D01*
X151750000Y-70500000D02*
X152500000Y-70500000D01*
X152500000Y-70500000D02*
X154250000Y-72250000D01*
X154250000Y-77500000D02*
X153150000Y-78600000D01*
X154250000Y-76750000D02*
X154250000Y-77500000D01*
X153150000Y-78600000D02*
X152380000Y-78600000D01*
D59*
%TO.N,GND*%
X130200000Y-60950000D02*
X142528192Y-60950000D01*
X142528192Y-60950000D02*
X148250000Y-66671808D01*
X148250000Y-66671808D02*
X148250000Y-68250000D01*
X145608378Y-62108378D02*
X151750000Y-68250000D01*
X145600000Y-62108378D02*
X145608378Y-62108378D01*
%TO.N,/SCL*%
X149250000Y-70500000D02*
X149250000Y-67033998D01*
X149250000Y-67033998D02*
X142616002Y-60400000D01*
X142616002Y-60400000D02*
X129409534Y-60400000D01*
X129409534Y-60400000D02*
X127600000Y-62209534D01*
X127600000Y-62209534D02*
X127600000Y-66550000D01*
%TO.N,/SDA*%
X142802812Y-59949000D02*
X144676906Y-61823094D01*
X150750000Y-67896188D02*
X144676906Y-61823094D01*
X150750000Y-70500000D02*
X150750000Y-67896188D01*
%TO.N,/SCL*%
X148135000Y-74365000D02*
X149250000Y-73250000D01*
X149250000Y-73250000D02*
X149250000Y-70500000D01*
%TO.N,/SDA*%
X148365000Y-75635000D02*
X150750000Y-73250000D01*
X150750000Y-73250000D02*
X150750000Y-70500000D01*
%TO.N,/pwm1_io2*%
X127000000Y-82775000D02*
X121699000Y-77474000D01*
X129100000Y-84050000D02*
X129100000Y-83325000D01*
X129100000Y-83325000D02*
X128550000Y-82775000D01*
X128550000Y-82775000D02*
X127000000Y-82775000D01*
%TO.N,/D+*%
X124600000Y-84250000D02*
X124600000Y-84800000D01*
X124600000Y-84800000D02*
X122200000Y-87200000D01*
%TO.N,/D-*%
X122452000Y-85500000D02*
X121360000Y-85500000D01*
X121360000Y-85500000D02*
X119660000Y-87200000D01*
X123100000Y-84852000D02*
X122452000Y-85500000D01*
X123100000Y-84250000D02*
X123100000Y-84852000D01*
D60*
%TO.N,GND*%
X129550000Y-94500000D02*
X129200000Y-94850000D01*
D59*
X125300000Y-62700000D02*
X125300000Y-63800000D01*
X108700000Y-64800000D02*
X108700000Y-64900000D01*
X114550000Y-75250000D02*
X111800000Y-75250000D01*
D60*
X110300000Y-94900000D02*
X115500000Y-94900000D01*
D59*
X107900000Y-75250000D02*
X107412097Y-75250000D01*
X128502000Y-59498000D02*
X126200000Y-61800000D01*
D60*
X110000000Y-94600000D02*
X110300000Y-94900000D01*
D59*
X107450000Y-75250000D02*
X107400000Y-75200000D01*
X114600000Y-76850000D02*
X116900000Y-76850000D01*
X104900000Y-80525000D02*
X104900000Y-79500000D01*
D58*
X150820000Y-78600000D02*
X149550000Y-78600000D01*
X128650000Y-62420000D02*
X129020000Y-62050000D01*
D59*
X108350000Y-76850000D02*
X114600000Y-76850000D01*
D58*
X118600000Y-66550000D02*
X118600000Y-68050000D01*
D59*
X103820000Y-79200000D02*
X102800000Y-80220000D01*
D60*
X115500000Y-94900000D02*
X115800000Y-94600000D01*
D59*
X130200000Y-60950000D02*
X131600000Y-60950000D01*
X114155000Y-80445000D02*
X112250000Y-82350000D01*
X125300000Y-63800000D02*
X125300000Y-64600000D01*
D60*
X105550000Y-82800000D02*
X105550000Y-83550000D01*
D59*
X110800000Y-75250000D02*
X111100000Y-75250000D01*
X131600000Y-60950000D02*
X132450000Y-60950000D01*
X120600000Y-92200000D02*
X120600000Y-93350000D01*
X132525000Y-60950000D02*
X132550000Y-60975000D01*
D58*
X129950000Y-87950000D02*
X131100000Y-86800000D01*
D59*
X126100000Y-61900000D02*
X126350000Y-61650000D01*
D60*
X130900000Y-94500000D02*
X129550000Y-94500000D01*
D59*
X143312622Y-59821000D02*
X142989622Y-59498000D01*
D60*
X106725000Y-84725000D02*
X106000000Y-84000000D01*
D59*
X125090000Y-58340000D02*
X125100000Y-58350000D01*
X114000000Y-64077750D02*
X112222250Y-62300000D01*
X120600000Y-92200000D02*
X121450000Y-92200000D01*
X107412097Y-75250000D02*
X107354032Y-75308065D01*
X109700000Y-62300000D02*
X108700000Y-63300000D01*
X126100000Y-61900000D02*
X125300000Y-62700000D01*
D60*
X107600000Y-84725000D02*
X106725000Y-84725000D01*
D59*
X145600000Y-62108378D02*
X143312622Y-59821000D01*
X131600000Y-60950000D02*
X132525000Y-60950000D01*
X104600000Y-78062097D02*
X104600000Y-79200000D01*
X111100000Y-75250000D02*
X111450000Y-74900000D01*
X104600000Y-79200000D02*
X103820000Y-79200000D01*
X104250000Y-80525000D02*
X104250000Y-79550000D01*
X115840000Y-72560000D02*
X115800000Y-72600000D01*
D58*
X128650000Y-64050000D02*
X128650000Y-62420000D01*
D59*
X106800000Y-78037810D02*
X106800000Y-78800000D01*
X107900000Y-75250000D02*
X109300000Y-75250000D01*
X130025000Y-60950000D02*
X129650000Y-61325000D01*
X108350000Y-76850000D02*
X107987810Y-76850000D01*
X130200000Y-60950000D02*
X130025000Y-60950000D01*
X107354032Y-75308065D02*
X104600000Y-78062097D01*
D60*
X128250000Y-94600000D02*
X128500000Y-94850000D01*
D58*
X118600000Y-66550000D02*
X118600000Y-65300000D01*
D59*
X142989622Y-59498000D02*
X128502000Y-59498000D01*
X129020000Y-61955000D02*
X129650000Y-61325000D01*
D60*
X128500000Y-94850000D02*
X129200000Y-94850000D01*
D59*
X104250000Y-79550000D02*
X104600000Y-79200000D01*
X119400000Y-92200000D02*
X120600000Y-92200000D01*
X124360000Y-58340000D02*
X125090000Y-58340000D01*
D58*
X128650000Y-63650000D02*
X129325000Y-62975000D01*
D59*
X106800000Y-79810000D02*
X106800000Y-78800000D01*
X125300000Y-63800000D02*
X125300000Y-64900000D01*
X109300000Y-75250000D02*
X107450000Y-75250000D01*
X107987810Y-76850000D02*
X106800000Y-78037810D01*
X114650000Y-75150000D02*
X114550000Y-75250000D01*
D60*
X105550000Y-83550000D02*
X106000000Y-84000000D01*
D59*
X112222250Y-62300000D02*
X109700000Y-62300000D01*
X114000000Y-68800000D02*
X114000000Y-64077750D01*
X108700000Y-63300000D02*
X108700000Y-64800000D01*
X111800000Y-75250000D02*
X111450000Y-74900000D01*
X109300000Y-75250000D02*
X110800000Y-75250000D01*
X104900000Y-79500000D02*
X104600000Y-79200000D01*
X126350000Y-61650000D02*
X126350000Y-61350000D01*
X126200000Y-61800000D02*
X126100000Y-61900000D01*
X125300000Y-64600000D02*
X125100000Y-64800000D01*
X119200000Y-59830000D02*
X119200000Y-61000000D01*
X108100000Y-81110000D02*
X106800000Y-79810000D01*
X132450000Y-60950000D02*
X132550000Y-61050000D01*
X116700000Y-72560000D02*
X115840000Y-72560000D01*
X116700000Y-72560000D02*
X116700000Y-73500000D01*
D60*
X126900000Y-94600000D02*
X128250000Y-94600000D01*
D59*
%TO.N,+12V*%
X104250000Y-82800000D02*
X104250000Y-85600127D01*
D61*
X103250000Y-89550000D02*
X103250000Y-89950000D01*
X100800000Y-75100000D02*
X100800000Y-74500000D01*
X104300000Y-88500000D02*
X103250000Y-89550000D01*
D60*
X105600000Y-98700000D02*
X108800000Y-98700000D01*
X100900000Y-98700000D02*
X105600000Y-98700000D01*
X105600000Y-96930000D02*
X105600000Y-98700000D01*
D61*
X100800000Y-74500000D02*
X102000000Y-73300000D01*
D59*
%TO.N,/RST_BTM*%
X127081860Y-68150000D02*
X128050000Y-68150000D01*
X124200000Y-71031860D02*
X124200000Y-71400000D01*
X117200000Y-71000000D02*
X116700000Y-71000000D01*
X121400000Y-71400000D02*
X117600000Y-71400000D01*
X128050000Y-68150000D02*
X129100000Y-67100000D01*
X117600000Y-71400000D02*
X117200000Y-71000000D01*
X127081860Y-68150000D02*
X124200000Y-71031860D01*
D62*
X116700000Y-69980000D02*
X116700000Y-71200000D01*
D58*
%TO.N,Net-(U5-VBST)*%
X112550000Y-68050000D02*
X113030000Y-67570000D01*
X112137500Y-68050000D02*
X112550000Y-68050000D01*
X113030000Y-67570000D02*
X113030000Y-66250000D01*
D60*
%TO.N,/TPS_SW*%
X110950000Y-68400000D02*
X110950000Y-66750000D01*
D58*
X109862500Y-68800000D02*
X110700000Y-68800000D01*
D60*
X109862500Y-68800000D02*
X108950000Y-68800000D01*
X110950000Y-66750000D02*
X110600000Y-66400000D01*
X109862500Y-68800000D02*
X110550000Y-68800000D01*
X110550000Y-68800000D02*
X110950000Y-68400000D01*
D58*
%TO.N,/usb_5v*%
X115750000Y-74900000D02*
X114550000Y-73700000D01*
X117190000Y-89750000D02*
X115750000Y-88310000D01*
X118580000Y-91200000D02*
X117120000Y-89740000D01*
X114550000Y-73700000D02*
X113500000Y-73700000D01*
X125650000Y-88800000D02*
X123250000Y-91200000D01*
X115750000Y-85000000D02*
X115750000Y-79000000D01*
X123250000Y-91200000D02*
X118580000Y-91200000D01*
X115750000Y-88310000D02*
X115750000Y-85000000D01*
D59*
%TO.N,/RS485B*%
X111200000Y-55400000D02*
X105800000Y-55400000D01*
X103000000Y-55550000D02*
X105650000Y-55550000D01*
X126200000Y-55400000D02*
X125200000Y-56400000D01*
X121810000Y-56410000D02*
X121800000Y-56400000D01*
X112200000Y-56400000D02*
X121800000Y-56400000D01*
X121810000Y-58340000D02*
X121810000Y-56410000D01*
X121800000Y-56400000D02*
X125200000Y-56400000D01*
X112200000Y-56400000D02*
X111200000Y-55400000D01*
X129155000Y-55400000D02*
X126200000Y-55400000D01*
%TO.N,/UART_TX*%
X124600000Y-65350000D02*
X124360000Y-65110000D01*
X124600000Y-66550000D02*
X124600000Y-65350000D01*
D62*
X124360000Y-62040000D02*
X128500000Y-57900000D01*
X124360000Y-63960000D02*
X124360000Y-62040000D01*
D59*
X124360000Y-65110000D02*
X124360000Y-63760000D01*
%TO.N,/RS485A*%
X107600000Y-57400000D02*
X107975000Y-57025000D01*
X105800000Y-57900000D02*
X107100000Y-57900000D01*
X107100000Y-57900000D02*
X107600000Y-57400000D01*
X107975000Y-57025000D02*
X108600000Y-56400000D01*
X103000000Y-57650000D02*
X105550000Y-57650000D01*
X123090000Y-57090000D02*
X123075000Y-57075000D01*
X108600000Y-56400000D02*
X111000000Y-56400000D01*
%TO.N,/UART_RX*%
X120800000Y-60100000D02*
X121100000Y-59800000D01*
X120540000Y-63760000D02*
X120540000Y-60360000D01*
X121600000Y-65550000D02*
X120540000Y-64490000D01*
X121600000Y-66550000D02*
X121600000Y-65550000D01*
X120540000Y-60360000D02*
X120800000Y-60100000D01*
X109600000Y-54400000D02*
X108100000Y-52900000D01*
X108100000Y-52900000D02*
X105800000Y-52900000D01*
D62*
%TO.N,Net-(U5-VFB)*%
X114000000Y-69800000D02*
X113100000Y-69800000D01*
X113050000Y-69750000D02*
X112137500Y-69750000D01*
X113100000Y-69800000D02*
X113050000Y-69750000D01*
X115500000Y-69800000D02*
X114000000Y-69800000D01*
D60*
%TO.N,/NTC_PIN*%
X125550000Y-91000000D02*
X126750000Y-91000000D01*
X130700000Y-86109999D02*
X130700000Y-85800000D01*
X130034999Y-86775000D02*
X128575000Y-86775000D01*
X130700000Y-86109999D02*
X130034999Y-86775000D01*
X127800000Y-89950000D02*
X127800000Y-88000000D01*
X123100000Y-93450000D02*
X125550000Y-91000000D01*
X126750000Y-91000000D02*
X127800000Y-89950000D01*
X128575000Y-86775000D02*
X127800000Y-87550000D01*
X130700000Y-85800000D02*
X130700000Y-84350000D01*
X127800000Y-87550000D02*
X127800000Y-88000000D01*
D58*
%TO.N,+3.3V*%
X101425000Y-63285000D02*
X101425000Y-69225000D01*
D61*
X122449000Y-69301000D02*
X122450000Y-69300000D01*
D58*
X103800000Y-71600000D02*
X103800000Y-74600000D01*
X104700000Y-61300000D02*
X103410000Y-61300000D01*
D61*
X130600000Y-66550000D02*
X130600000Y-67652000D01*
D58*
X101800000Y-76600000D02*
X101800000Y-80780000D01*
D60*
X106200000Y-82075516D02*
X106200000Y-82800000D01*
D58*
X144100000Y-89800000D02*
X143400000Y-90500000D01*
D60*
X105885984Y-81761500D02*
X106200000Y-82075516D01*
D58*
X150990000Y-79990000D02*
X144100000Y-86880000D01*
X102400000Y-62310000D02*
X101425000Y-63285000D01*
X144100000Y-88300000D02*
X144100000Y-89800000D01*
D61*
X117750000Y-69250000D02*
X117801000Y-69301000D01*
D58*
X103410000Y-61300000D02*
X102400000Y-62310000D01*
X101425000Y-69225000D02*
X103800000Y-71600000D01*
X144100000Y-86880000D02*
X144100000Y-88300000D01*
D61*
X117801000Y-69301000D02*
X122449000Y-69301000D01*
X127100000Y-69300000D02*
X128952000Y-69300000D01*
D58*
X103800000Y-74600000D02*
X101800000Y-76600000D01*
X130600000Y-81900000D02*
X130600000Y-66550000D01*
D60*
X102818500Y-81761500D02*
X105885984Y-81761500D01*
D58*
X101800000Y-80780000D02*
X102800000Y-81780000D01*
D61*
X130600000Y-62070000D02*
X130585314Y-62055314D01*
D58*
X129900000Y-82600000D02*
X130600000Y-81900000D01*
D61*
X117280000Y-68780000D02*
X117750000Y-69250000D01*
D58*
X128900000Y-86000000D02*
X129300000Y-86000000D01*
D61*
X117203236Y-68780000D02*
X117280000Y-68780000D01*
D58*
X129300000Y-86000000D02*
X129700000Y-85600000D01*
D61*
X128952000Y-69300000D02*
X130600000Y-67652000D01*
X130600000Y-66550000D02*
X130600000Y-62070000D01*
D58*
X143400000Y-90500000D02*
X132800000Y-90500000D01*
D61*
X117203236Y-68780000D02*
X116700000Y-68780000D01*
D58*
%TO.N,Net-(U_MOTOR_1-ILIM)*%
X110160000Y-79290000D02*
X110345000Y-79475000D01*
X108100000Y-79290000D02*
X110160000Y-79290000D01*
D62*
%TO.N,Net-(U5-EN)*%
X111475001Y-68800000D02*
X112137500Y-68800000D01*
X111820000Y-71300000D02*
X111174000Y-70654000D01*
X111174000Y-70654000D02*
X111174000Y-69101001D01*
X111174000Y-69101001D02*
X111475001Y-68800000D01*
D59*
%TO.N,/SCL*%
X127600000Y-66850000D02*
X118199000Y-76251000D01*
X118199000Y-76251000D02*
X107949000Y-76251000D01*
X106200000Y-78000000D02*
X106200000Y-80525000D01*
X107949000Y-76251000D02*
X106200000Y-78000000D01*
%TO.N,/SDA*%
X105550000Y-77850000D02*
X105550000Y-80525000D01*
X107600000Y-75800000D02*
X105550000Y-77850000D01*
X128928096Y-59949000D02*
X142802812Y-59949000D01*
X126100000Y-67650000D02*
X117950000Y-75800000D01*
X126100000Y-62777096D02*
X128928096Y-59949000D01*
X117950000Y-75800000D02*
X107600000Y-75800000D01*
X126100000Y-66750000D02*
X126100000Y-67650000D01*
X126100000Y-66550000D02*
X126100000Y-62777096D01*
%TO.N,/V_motor*%
X106200000Y-85200000D02*
X106200000Y-86800000D01*
X104900000Y-82800000D02*
X104900000Y-83900000D01*
X106200000Y-86800000D02*
X107400000Y-88000000D01*
X104900000Y-83900000D02*
X106200000Y-85200000D01*
%TO.N,/BOOT_BTM*%
X120100000Y-65350000D02*
X120100000Y-66550000D01*
X119300000Y-64550000D02*
X120100000Y-65350000D01*
%TO.N,/pwm2_io3*%
X120550000Y-77925000D02*
X113575000Y-77925000D01*
X126100000Y-83475000D02*
X120550000Y-77925000D01*
X113575000Y-77925000D02*
X112885000Y-78615000D01*
%TO.N,/485_RE_DE*%
X121810000Y-64710000D02*
X123100000Y-66000000D01*
X123100000Y-66750000D02*
X123100000Y-63970000D01*
X121810000Y-63960000D02*
X121810000Y-64710000D01*
%TO.N,/pwm1_io2*%
X121699000Y-77474000D02*
X112766000Y-77474000D01*
X112766000Y-77474000D02*
X111615000Y-78625000D01*
D58*
%TO.N,Net-(D6-Pad1)*%
X102400000Y-65300000D02*
X102900000Y-65800000D01*
X102400000Y-63890000D02*
X102400000Y-65300000D01*
%TD*%
%TA.AperFunction,Conductor*%
%TO.N,+12V*%
G36*
X102922665Y-85396821D02*
G01*
X102989691Y-85416543D01*
X103035417Y-85469372D01*
X103042369Y-85488727D01*
X103053213Y-85529196D01*
X103545953Y-85397167D01*
X103892195Y-85397358D01*
X103846519Y-85476473D01*
X103819260Y-85578206D01*
X103819260Y-85683528D01*
X103846519Y-85785261D01*
X103899180Y-85876473D01*
X103973654Y-85950947D01*
X104064866Y-86003608D01*
X104166599Y-86030867D01*
X104271921Y-86030867D01*
X104373654Y-86003608D01*
X104464866Y-85950947D01*
X104539340Y-85876473D01*
X104592001Y-85785261D01*
X104619260Y-85683528D01*
X104619260Y-85611299D01*
X104637723Y-85647113D01*
X104897224Y-86615581D01*
X104898193Y-86616583D01*
X104898390Y-86617141D01*
X104898595Y-86617356D01*
X104909970Y-86649855D01*
X104913511Y-86667560D01*
X104947592Y-86837960D01*
X104950000Y-86862279D01*
X104950000Y-88997261D01*
X104930315Y-89064300D01*
X104912012Y-89086581D01*
X103600000Y-90349999D01*
X103600000Y-94800001D01*
X103824998Y-95249998D01*
X103824999Y-95249999D01*
X103825000Y-95250000D01*
X100250777Y-95250000D01*
X100283175Y-88997261D01*
X100297141Y-86301938D01*
X103260269Y-86301938D01*
X103310234Y-86488414D01*
X103343366Y-86571049D01*
X103433341Y-86692546D01*
X103552768Y-86785270D01*
X103552770Y-86785271D01*
X103692773Y-86842331D01*
X103842988Y-86859503D01*
X103931110Y-86846880D01*
X104117589Y-86796912D01*
X103936416Y-86120764D01*
X103260269Y-86301938D01*
X100297141Y-86301938D01*
X100297235Y-86283777D01*
X100297235Y-86283776D01*
X100300000Y-85750160D01*
X100300000Y-85800000D01*
X101700000Y-85800000D01*
X101700000Y-85396143D01*
X102922665Y-85396821D01*
G37*
%TD.AperFunction*%
%TD*%
%TA.AperFunction,Conductor*%
%TO.N,GND*%
G36*
X113250000Y-86400000D02*
G01*
X113422975Y-87091903D01*
X113416703Y-87105248D01*
X113370188Y-87180663D01*
X113370186Y-87180666D01*
X113315001Y-87347203D01*
X113315001Y-87347204D01*
X113315000Y-87347204D01*
X113304500Y-87449983D01*
X113304500Y-87449996D01*
X113304501Y-88250000D01*
X112495500Y-88250000D01*
X112495499Y-87449992D01*
X112484999Y-87347203D01*
X112429814Y-87180666D01*
X112383295Y-87105246D01*
X112378275Y-87086899D01*
X112550000Y-86400000D01*
X112550000Y-84050000D01*
X113250000Y-84050000D01*
X113250000Y-86400000D01*
G37*
%TD.AperFunction*%
%TD*%
%TA.AperFunction,Conductor*%
%TO.N,+3.3V*%
G36*
X116200000Y-62100000D02*
G01*
X116200000Y-65600000D01*
X116963681Y-66363681D01*
X116997166Y-66425004D01*
X117000000Y-66451362D01*
X117000000Y-68875500D01*
X116980315Y-68942539D01*
X116927511Y-68988294D01*
X116876000Y-68999500D01*
X116465302Y-68999500D01*
X116429008Y-69002356D01*
X116429002Y-69002357D01*
X116273609Y-69047504D01*
X116273608Y-69047504D01*
X116146210Y-69122846D01*
X116078486Y-69140027D01*
X116019969Y-69122845D01*
X115926393Y-69067505D01*
X115926390Y-69067504D01*
X115770997Y-69022357D01*
X115770991Y-69022356D01*
X115734697Y-69019500D01*
X115734690Y-69019500D01*
X115324000Y-69019500D01*
X115256961Y-68999815D01*
X115211206Y-68947011D01*
X115200000Y-68895500D01*
X115200000Y-68200000D01*
X114789464Y-67789464D01*
X114784831Y-67782530D01*
X114780593Y-67779588D01*
X114762584Y-67749235D01*
X114709439Y-67620929D01*
X114700000Y-67573477D01*
X114700000Y-65600000D01*
X114661819Y-65561819D01*
X114628334Y-65500496D01*
X114625500Y-65474138D01*
X114625500Y-64016143D01*
X114625499Y-64016139D01*
X114615765Y-63967202D01*
X114601463Y-63895298D01*
X114554311Y-63781464D01*
X114554310Y-63781463D01*
X114554307Y-63781457D01*
X114485858Y-63679017D01*
X114485855Y-63679013D01*
X114395637Y-63588795D01*
X114395606Y-63588766D01*
X112715529Y-61908689D01*
X112708110Y-61901270D01*
X112708108Y-61901267D01*
X112620983Y-61814142D01*
X112599818Y-61800000D01*
X116200000Y-61800000D01*
X116200000Y-62100000D01*
G37*
%TD.AperFunction*%
%TD*%
%TA.AperFunction,Conductor*%
%TO.N,/Mot2*%
G36*
X114443039Y-84345184D02*
G01*
X114488794Y-84397988D01*
X114500000Y-84449499D01*
X114500000Y-86400000D01*
X114980652Y-87169043D01*
X114999500Y-87234763D01*
X114999500Y-88384917D01*
X115000000Y-88395085D01*
X115000000Y-90718644D01*
X114999500Y-90721158D01*
X114999500Y-90878842D01*
X115000000Y-90881355D01*
X115000000Y-94100500D01*
X114980315Y-94167539D01*
X114927511Y-94213294D01*
X114876000Y-94224500D01*
X113581073Y-94224500D01*
X113514034Y-94204815D01*
X113468279Y-94152011D01*
X113466510Y-94147948D01*
X113465084Y-94144506D01*
X113465080Y-94144498D01*
X113382951Y-94021584D01*
X113382948Y-94021580D01*
X113286319Y-93924951D01*
X113252834Y-93863628D01*
X113250000Y-93837270D01*
X113250000Y-90309167D01*
X113250427Y-90301188D01*
X113250322Y-90301183D01*
X113250497Y-90297898D01*
X113250500Y-90297873D01*
X113250499Y-89771906D01*
X113270183Y-89704868D01*
X113292115Y-89679231D01*
X114000000Y-89050000D01*
X114000000Y-87200000D01*
X113803702Y-86414808D01*
X113800000Y-86384734D01*
X113800000Y-84449499D01*
X113819685Y-84382460D01*
X113872489Y-84336705D01*
X113924000Y-84325499D01*
X114376000Y-84325499D01*
X114443039Y-84345184D01*
G37*
%TD.AperFunction*%
%TD*%
%TA.AperFunction,Conductor*%
%TO.N,GND*%
G36*
X109852664Y-81018793D02*
G01*
X109852671Y-81018797D01*
X109897618Y-81035561D01*
X109987517Y-81069091D01*
X110047127Y-81075500D01*
X110642872Y-81075499D01*
X110699557Y-81069405D01*
X110768315Y-81081811D01*
X110800491Y-81105014D01*
X110949999Y-81254521D01*
X111112245Y-81092274D01*
X111173568Y-81058789D01*
X111243258Y-81063772D01*
X111257517Y-81069091D01*
X111317127Y-81075500D01*
X111900000Y-81075499D01*
X111900000Y-83600000D01*
X111104523Y-83600000D01*
X110950001Y-83445477D01*
X110950000Y-83445477D01*
X110800491Y-83594985D01*
X110791307Y-83600000D01*
X108962742Y-83600000D01*
X108998329Y-84650694D01*
X108961866Y-84709947D01*
X107905047Y-84985638D01*
X107920080Y-84970606D01*
X107972741Y-84879394D01*
X108000000Y-84777661D01*
X108000000Y-84672339D01*
X107972741Y-84570606D01*
X107920080Y-84479394D01*
X107845606Y-84404920D01*
X107754394Y-84352259D01*
X107652661Y-84325000D01*
X107547339Y-84325000D01*
X107445606Y-84352259D01*
X107354394Y-84404920D01*
X107279920Y-84479394D01*
X107227259Y-84570606D01*
X107200000Y-84672339D01*
X107200000Y-84744567D01*
X107181536Y-84708753D01*
X107000000Y-84031253D01*
X107000000Y-83630423D01*
X107720819Y-83630423D01*
X107882842Y-84235101D01*
X108486268Y-84073414D01*
X108439030Y-84008395D01*
X108316602Y-83885967D01*
X108176524Y-83784195D01*
X108022257Y-83705591D01*
X107857585Y-83652086D01*
X107720819Y-83630423D01*
X107000000Y-83630423D01*
X107000000Y-82939430D01*
X110335000Y-82939430D01*
X110335000Y-83060570D01*
X110353075Y-83151445D01*
X110504522Y-82999999D01*
X110471702Y-82967179D01*
X110785000Y-82967179D01*
X110785000Y-83032821D01*
X110810119Y-83093465D01*
X110856535Y-83139881D01*
X110917179Y-83165000D01*
X110982821Y-83165000D01*
X111043465Y-83139881D01*
X111089881Y-83093465D01*
X111115000Y-83032821D01*
X111115000Y-82999999D01*
X111395477Y-82999999D01*
X111546923Y-83151445D01*
X111564003Y-83146264D01*
X111633870Y-83145641D01*
X111635996Y-83146265D01*
X111653074Y-83151445D01*
X111804522Y-82999999D01*
X111653075Y-82848552D01*
X111635994Y-82853734D01*
X111566127Y-82854357D01*
X111564005Y-82853734D01*
X111546924Y-82848552D01*
X111395477Y-82999999D01*
X111115000Y-82999999D01*
X111115000Y-82967179D01*
X111089881Y-82906535D01*
X111043465Y-82860119D01*
X110982821Y-82835000D01*
X110917179Y-82835000D01*
X110856535Y-82860119D01*
X110810119Y-82906535D01*
X110785000Y-82967179D01*
X110471702Y-82967179D01*
X110353075Y-82848552D01*
X110335000Y-82939430D01*
X107000000Y-82939430D01*
X107000000Y-82296924D01*
X110798552Y-82296924D01*
X110803734Y-82314005D01*
X110803902Y-82332914D01*
X110809068Y-82351106D01*
X110804340Y-82382026D01*
X110804357Y-82383872D01*
X110803734Y-82385994D01*
X110798552Y-82403075D01*
X110949999Y-82554521D01*
X111101445Y-82403074D01*
X111096265Y-82385996D01*
X111095640Y-82316129D01*
X111096264Y-82314003D01*
X111101445Y-82296923D01*
X110950000Y-82145477D01*
X110798552Y-82296924D01*
X107000000Y-82296924D01*
X107000000Y-81639430D01*
X110335000Y-81639430D01*
X110335000Y-81760570D01*
X110353075Y-81851445D01*
X110504522Y-81699999D01*
X110471702Y-81667179D01*
X110785000Y-81667179D01*
X110785000Y-81732821D01*
X110810119Y-81793465D01*
X110856535Y-81839881D01*
X110917179Y-81865000D01*
X110982821Y-81865000D01*
X111043465Y-81839881D01*
X111089881Y-81793465D01*
X111115000Y-81732821D01*
X111115000Y-81699999D01*
X111395477Y-81699999D01*
X111546923Y-81851445D01*
X111564003Y-81846264D01*
X111633870Y-81845641D01*
X111635996Y-81846265D01*
X111653074Y-81851445D01*
X111804522Y-81699999D01*
X111653075Y-81548552D01*
X111635994Y-81553734D01*
X111566127Y-81554357D01*
X111564005Y-81553734D01*
X111546924Y-81548552D01*
X111395477Y-81699999D01*
X111115000Y-81699999D01*
X111115000Y-81667179D01*
X111089881Y-81606535D01*
X111043465Y-81560119D01*
X110982821Y-81535000D01*
X110917179Y-81535000D01*
X110856535Y-81560119D01*
X110810119Y-81606535D01*
X110785000Y-81667179D01*
X110471702Y-81667179D01*
X110353075Y-81548552D01*
X110335000Y-81639430D01*
X107000000Y-81639430D01*
X107000000Y-81000000D01*
X109827560Y-81000000D01*
X109852664Y-81018793D01*
G37*
%TD.AperFunction*%
%TD*%
%TA.AperFunction,Conductor*%
%TO.N,GND*%
G36*
X109294500Y-63894500D02*
G01*
X109294500Y-66310619D01*
X109295220Y-66337596D01*
X109295924Y-66350774D01*
X109298076Y-66377626D01*
X109298076Y-66377627D01*
X109333592Y-66517048D01*
X109333595Y-66517056D01*
X109360021Y-66580939D01*
X109360277Y-66581569D01*
X109360306Y-66581628D01*
X109433667Y-66705397D01*
X109538930Y-66803488D01*
X109596300Y-66843359D01*
X109596305Y-66843362D01*
X109724935Y-66907821D01*
X110100000Y-67032842D01*
X110100000Y-67999500D01*
X109284298Y-67999500D01*
X109247432Y-68002401D01*
X109247426Y-68002402D01*
X109089448Y-68048300D01*
X109030660Y-68050841D01*
X109023919Y-68049500D01*
X109023918Y-68049500D01*
X108876082Y-68049500D01*
X108876080Y-68049500D01*
X108731092Y-68078340D01*
X108731082Y-68078343D01*
X108594511Y-68134912D01*
X108594498Y-68134919D01*
X108471584Y-68217048D01*
X108471580Y-68217051D01*
X108388631Y-68300000D01*
X103800000Y-68300000D01*
X103800000Y-63300000D01*
X108700000Y-63300000D01*
X109294500Y-63894500D01*
G37*
%TD.AperFunction*%
%TD*%
%TA.AperFunction,Conductor*%
%TO.N,/Mot1*%
G36*
X111943039Y-84345184D02*
G01*
X111988794Y-84397988D01*
X112000000Y-84449499D01*
X112000000Y-86384734D01*
X111996298Y-86414808D01*
X111800000Y-87200000D01*
X111800000Y-89050000D01*
X112408381Y-89590782D01*
X112445409Y-89650033D01*
X112450000Y-89683461D01*
X112450000Y-93764964D01*
X112430315Y-93832003D01*
X112394891Y-93868066D01*
X112321584Y-93917048D01*
X112321580Y-93917051D01*
X112217051Y-94021580D01*
X112217048Y-94021584D01*
X112134919Y-94144498D01*
X112134915Y-94144506D01*
X112133490Y-94147948D01*
X112132260Y-94149474D01*
X112132046Y-94149875D01*
X112131970Y-94149834D01*
X112089651Y-94202354D01*
X112023358Y-94224421D01*
X112018927Y-94224500D01*
X110924000Y-94224500D01*
X110856961Y-94204815D01*
X110811206Y-94152011D01*
X110800000Y-94100500D01*
X110800000Y-92881355D01*
X110800500Y-92878842D01*
X110800500Y-92721158D01*
X110800000Y-92718644D01*
X110800000Y-91226523D01*
X110809439Y-91179071D01*
X110869735Y-91033501D01*
X110869737Y-91033497D01*
X110900500Y-90878842D01*
X110900500Y-90721158D01*
X110900500Y-90721155D01*
X110900499Y-90721153D01*
X110869738Y-90566510D01*
X110869737Y-90566503D01*
X110809439Y-90420929D01*
X110800000Y-90373477D01*
X110800000Y-87235563D01*
X110818848Y-87169843D01*
X111300000Y-86400000D01*
X111300000Y-84449499D01*
X111319685Y-84382460D01*
X111372489Y-84336705D01*
X111424000Y-84325499D01*
X111876000Y-84325499D01*
X111943039Y-84345184D01*
G37*
%TD.AperFunction*%
%TD*%
%TA.AperFunction,Conductor*%
%TO.N,+12V*%
G36*
X103829339Y-95252682D02*
G01*
X103876017Y-95304672D01*
X103887177Y-95373645D01*
X103869686Y-95423258D01*
X103815645Y-95510872D01*
X103815641Y-95510881D01*
X103760494Y-95677303D01*
X103760493Y-95677310D01*
X103750000Y-95780014D01*
X103750000Y-96020184D01*
X104978546Y-96349371D01*
X104939762Y-96388156D01*
X104846740Y-96527374D01*
X104782665Y-96682064D01*
X104750000Y-96846282D01*
X104750000Y-97013718D01*
X104771564Y-97122131D01*
X103750000Y-96848404D01*
X103750000Y-98079985D01*
X103760493Y-98182689D01*
X103760494Y-98182696D01*
X103815641Y-98349118D01*
X103815643Y-98349123D01*
X103907684Y-98498344D01*
X104031655Y-98622315D01*
X104180876Y-98714356D01*
X104180881Y-98714358D01*
X104347303Y-98769505D01*
X104347310Y-98769506D01*
X104450014Y-98779999D01*
X104450027Y-98780000D01*
X104690184Y-98780000D01*
X104690184Y-98779999D01*
X104691556Y-98774881D01*
X104691556Y-98774880D01*
X105019370Y-97551452D01*
X105058156Y-97590238D01*
X105197374Y-97683260D01*
X105352064Y-97747335D01*
X105516282Y-97780000D01*
X105683718Y-97780000D01*
X105792130Y-97758435D01*
X105518404Y-98779999D01*
X105518404Y-98780000D01*
X106749973Y-98780000D01*
X106749985Y-98779999D01*
X106852689Y-98769506D01*
X106852696Y-98769505D01*
X107019118Y-98714358D01*
X107019123Y-98714356D01*
X107168344Y-98622315D01*
X107292315Y-98498344D01*
X107364195Y-98381809D01*
X107364195Y-98381808D01*
X107384355Y-98349125D01*
X107384358Y-98349118D01*
X107439505Y-98182696D01*
X107439506Y-98182689D01*
X107449999Y-98079985D01*
X107450000Y-98079972D01*
X107450000Y-97839814D01*
X106221454Y-97510627D01*
X106260238Y-97471844D01*
X106353260Y-97332626D01*
X106417335Y-97177936D01*
X106450000Y-97013718D01*
X106450000Y-96846282D01*
X106428435Y-96737867D01*
X107449999Y-97011594D01*
X107450000Y-97011594D01*
X107450000Y-95780027D01*
X107449999Y-95780014D01*
X107439506Y-95677310D01*
X107439505Y-95677303D01*
X107384358Y-95510881D01*
X107384356Y-95510876D01*
X107340082Y-95439097D01*
X107321642Y-95371704D01*
X107342565Y-95305041D01*
X107396207Y-95260271D01*
X107445621Y-95250000D01*
X109494317Y-95250000D01*
X109561356Y-95269685D01*
X109563146Y-95270857D01*
X109620821Y-95309394D01*
X109620823Y-95309395D01*
X109620827Y-95309397D01*
X109746168Y-95361314D01*
X109766503Y-95369737D01*
X109789443Y-95374300D01*
X109851353Y-95406682D01*
X109852937Y-95408238D01*
X109869391Y-95424693D01*
X109869398Y-95424698D01*
X109980020Y-95498613D01*
X109980023Y-95498614D01*
X109980031Y-95498620D01*
X109980037Y-95498622D01*
X109980038Y-95498623D01*
X110009610Y-95510872D01*
X110102964Y-95549540D01*
X110102968Y-95549540D01*
X110102969Y-95549541D01*
X110233466Y-95575500D01*
X110233469Y-95575500D01*
X115566532Y-95575500D01*
X115566533Y-95575499D01*
X115697036Y-95549541D01*
X115819969Y-95498620D01*
X115930606Y-95424695D01*
X115947061Y-95408239D01*
X116008381Y-95374752D01*
X116010470Y-95374317D01*
X116033497Y-95369737D01*
X116179179Y-95309394D01*
X116236793Y-95270897D01*
X116303468Y-95250020D01*
X116305683Y-95250000D01*
X117991103Y-95250000D01*
X118058142Y-95269685D01*
X118065403Y-95274726D01*
X118157668Y-95343795D01*
X118157671Y-95343797D01*
X118191108Y-95356268D01*
X118292517Y-95394091D01*
X118352127Y-95400500D01*
X119047872Y-95400499D01*
X119107483Y-95394091D01*
X119229006Y-95348765D01*
X119298694Y-95343782D01*
X119319785Y-95350385D01*
X119366503Y-95369737D01*
X119488928Y-95394089D01*
X119521153Y-95400499D01*
X119521156Y-95400500D01*
X119521158Y-95400500D01*
X119678844Y-95400500D01*
X119678845Y-95400499D01*
X119833497Y-95369737D01*
X119953127Y-95320185D01*
X119979172Y-95309397D01*
X119979172Y-95309396D01*
X119979179Y-95309394D01*
X120036793Y-95270897D01*
X120103468Y-95250020D01*
X120105683Y-95250000D01*
X124094317Y-95250000D01*
X124161356Y-95269685D01*
X124163146Y-95270857D01*
X124220821Y-95309394D01*
X124220823Y-95309395D01*
X124220827Y-95309397D01*
X124346168Y-95361314D01*
X124366503Y-95369737D01*
X124488928Y-95394089D01*
X124521153Y-95400499D01*
X124521156Y-95400500D01*
X124521158Y-95400500D01*
X124678844Y-95400500D01*
X124678845Y-95400499D01*
X124833497Y-95369737D01*
X124953127Y-95320185D01*
X124979172Y-95309397D01*
X124979172Y-95309396D01*
X124979179Y-95309394D01*
X125036793Y-95270897D01*
X125103468Y-95250020D01*
X125105683Y-95250000D01*
X126394317Y-95250000D01*
X126461356Y-95269685D01*
X126463146Y-95270857D01*
X126520821Y-95309394D01*
X126520823Y-95309395D01*
X126520827Y-95309397D01*
X126646168Y-95361314D01*
X126666503Y-95369737D01*
X126788928Y-95394089D01*
X126821153Y-95400499D01*
X126821156Y-95400500D01*
X126821158Y-95400500D01*
X126978844Y-95400500D01*
X126978845Y-95400499D01*
X127133497Y-95369737D01*
X127253127Y-95320185D01*
X127279172Y-95309397D01*
X127279172Y-95309396D01*
X127279179Y-95309394D01*
X127292490Y-95300500D01*
X127298628Y-95296399D01*
X127365305Y-95275520D01*
X127367520Y-95275500D01*
X127675205Y-95275500D01*
X127742244Y-95295185D01*
X127787999Y-95347989D01*
X127788761Y-95353077D01*
X128549437Y-96113752D01*
X128397374Y-96176740D01*
X128258156Y-96269762D01*
X128139762Y-96388156D01*
X128046740Y-96527374D01*
X127983753Y-96679437D01*
X127238651Y-95934336D01*
X127137227Y-96110007D01*
X127137220Y-96110021D01*
X127044421Y-96334060D01*
X126981653Y-96568312D01*
X126950001Y-96808735D01*
X126950000Y-96808751D01*
X126950000Y-97051248D01*
X126950001Y-97051264D01*
X126981653Y-97291687D01*
X127044421Y-97525939D01*
X127137221Y-97749981D01*
X127137229Y-97749997D01*
X127238651Y-97925663D01*
X127983752Y-97180562D01*
X128046740Y-97332626D01*
X128139762Y-97471844D01*
X128258156Y-97590238D01*
X128397374Y-97683260D01*
X128549437Y-97746246D01*
X127804335Y-98491347D01*
X127804335Y-98491348D01*
X127980002Y-98592770D01*
X127980018Y-98592778D01*
X128204060Y-98685578D01*
X128438312Y-98748346D01*
X128678735Y-98779998D01*
X128678752Y-98780000D01*
X128921248Y-98780000D01*
X128921264Y-98779998D01*
X129161687Y-98748346D01*
X129395939Y-98685578D01*
X129619981Y-98592778D01*
X129619990Y-98592773D01*
X129795663Y-98491347D01*
X129050562Y-97746247D01*
X129202626Y-97683260D01*
X129341844Y-97590238D01*
X129460238Y-97471844D01*
X129553260Y-97332626D01*
X129616247Y-97180562D01*
X130361347Y-97925663D01*
X130462773Y-97749990D01*
X130462778Y-97749981D01*
X130555578Y-97525939D01*
X130618346Y-97291687D01*
X130649998Y-97051264D01*
X130650000Y-97051248D01*
X130650000Y-96808751D01*
X130649998Y-96808735D01*
X130618346Y-96568312D01*
X130555578Y-96334060D01*
X130462778Y-96110018D01*
X130462770Y-96110002D01*
X130361347Y-95934335D01*
X129616246Y-96679436D01*
X129553260Y-96527374D01*
X129460238Y-96388156D01*
X129341844Y-96269762D01*
X129202626Y-96176740D01*
X129050560Y-96113752D01*
X129803000Y-95361314D01*
X129809263Y-95321151D01*
X129855643Y-95268895D01*
X129921437Y-95250000D01*
X130594189Y-95250000D01*
X130620583Y-95252842D01*
X130631407Y-95255200D01*
X130666503Y-95269737D01*
X130821158Y-95300500D01*
X130839348Y-95300500D01*
X130852394Y-95303342D01*
X130871810Y-95313951D01*
X130893039Y-95320185D01*
X130901870Y-95330377D01*
X130913707Y-95336845D01*
X130924305Y-95356268D01*
X130938794Y-95372989D01*
X130942350Y-95389338D01*
X130947174Y-95398178D01*
X130946454Y-95408200D01*
X130950000Y-95424500D01*
X130950000Y-99075500D01*
X130930315Y-99142539D01*
X130877511Y-99188294D01*
X130826000Y-99199500D01*
X100374000Y-99199500D01*
X100306961Y-99179815D01*
X100261206Y-99127011D01*
X100250000Y-99075500D01*
X100250000Y-95302323D01*
X100250004Y-95301328D01*
X100250416Y-95250000D01*
X100250777Y-95250000D01*
X103824999Y-95250000D01*
X103829339Y-95252682D01*
G37*
%TD.AperFunction*%
%TD*%
%TA.AperFunction,Conductor*%
%TO.N,+3.3V*%
G36*
X117743039Y-60019685D02*
G01*
X117788794Y-60072489D01*
X117800000Y-60124000D01*
X117800000Y-61463000D01*
X117780315Y-61530039D01*
X117750399Y-61562200D01*
X117228365Y-61953727D01*
X117066401Y-62075200D01*
X117000959Y-62099676D01*
X116992001Y-62100000D01*
X116200000Y-62100000D01*
X116200000Y-61800000D01*
X112599818Y-61800000D01*
X112569759Y-61779915D01*
X112518536Y-61745688D01*
X112518533Y-61745686D01*
X112518530Y-61745685D01*
X112444853Y-61715168D01*
X112444851Y-61715167D01*
X112438042Y-61712347D01*
X112404702Y-61698537D01*
X112344279Y-61686518D01*
X112339556Y-61685578D01*
X112339554Y-61685578D01*
X112283860Y-61674500D01*
X112283857Y-61674500D01*
X112283856Y-61674500D01*
X109767741Y-61674500D01*
X109767721Y-61674499D01*
X109761607Y-61674499D01*
X109638394Y-61674499D01*
X109537597Y-61694548D01*
X109537592Y-61694548D01*
X109517549Y-61698536D01*
X109517547Y-61698536D01*
X109470397Y-61718067D01*
X109403719Y-61745685D01*
X109403717Y-61745686D01*
X109301266Y-61814141D01*
X109301263Y-61814144D01*
X109200000Y-61915407D01*
X109200000Y-60600000D01*
X109763681Y-60036319D01*
X109825004Y-60002834D01*
X109851362Y-60000000D01*
X117676000Y-60000000D01*
X117743039Y-60019685D01*
G37*
%TD.AperFunction*%
%TD*%
%TA.AperFunction,Conductor*%
%TO.N,+12V*%
G36*
X101643039Y-72419685D02*
G01*
X101688794Y-72472489D01*
X101700000Y-72524000D01*
X101700000Y-75587269D01*
X101680315Y-75654308D01*
X101663681Y-75674950D01*
X101217050Y-76121580D01*
X101217044Y-76121588D01*
X101167812Y-76195268D01*
X101167813Y-76195269D01*
X101134921Y-76244496D01*
X101134914Y-76244508D01*
X101078342Y-76381086D01*
X101078340Y-76381092D01*
X101049500Y-76526079D01*
X101049500Y-76526082D01*
X101049500Y-80853918D01*
X101049500Y-80853920D01*
X101049499Y-80853920D01*
X101078340Y-80998907D01*
X101078343Y-80998917D01*
X101134912Y-81135488D01*
X101134921Y-81135504D01*
X101151520Y-81160345D01*
X101151521Y-81160349D01*
X101151523Y-81160349D01*
X101217051Y-81258420D01*
X101217052Y-81258421D01*
X101663681Y-81705049D01*
X101697166Y-81766372D01*
X101700000Y-81792730D01*
X101700000Y-85396144D01*
X101700000Y-85800000D01*
X100300000Y-85800000D01*
X100300000Y-72524000D01*
X100319685Y-72456961D01*
X100372489Y-72411206D01*
X100424000Y-72400000D01*
X101576000Y-72400000D01*
X101643039Y-72419685D01*
G37*
%TD.AperFunction*%
%TD*%
%TA.AperFunction,Conductor*%
%TO.N,+3.3V*%
G36*
X109200000Y-60600000D02*
G01*
X109200000Y-61915407D01*
X108551729Y-62563681D01*
X108490406Y-62597166D01*
X108464048Y-62600000D01*
X103424000Y-62600000D01*
X103356961Y-62580315D01*
X103311206Y-62527511D01*
X103300000Y-62476000D01*
X103300000Y-60524000D01*
X103319685Y-60456961D01*
X103372489Y-60411206D01*
X103424000Y-60400000D01*
X109400000Y-60400000D01*
X109200000Y-60600000D01*
G37*
%TD.AperFunction*%
%TD*%
%TA.AperFunction,Conductor*%
%TO.N,/TPS_SW*%
G36*
X111978837Y-62945185D02*
G01*
X111999479Y-62961819D01*
X112163681Y-63126021D01*
X112197166Y-63187344D01*
X112200000Y-63213702D01*
X112200000Y-65363721D01*
X112181538Y-65428818D01*
X112143001Y-65491294D01*
X112142996Y-65491305D01*
X112089651Y-65652290D01*
X112079500Y-65751647D01*
X112079500Y-66348337D01*
X112079501Y-66348355D01*
X112089650Y-66447707D01*
X112089651Y-66447710D01*
X112121214Y-66542960D01*
X112123616Y-66612789D01*
X112087884Y-66672830D01*
X112072291Y-66685138D01*
X111650461Y-66966359D01*
X111583762Y-66987167D01*
X111542466Y-66980822D01*
X109884788Y-66428262D01*
X109827413Y-66388388D01*
X109800705Y-66323824D01*
X109800000Y-66310625D01*
X109800000Y-63135953D01*
X109808644Y-63106515D01*
X109815168Y-63076525D01*
X109818923Y-63071508D01*
X109819685Y-63068914D01*
X109836315Y-63048275D01*
X109922773Y-62961818D01*
X109984097Y-62928334D01*
X110010454Y-62925500D01*
X111911798Y-62925500D01*
X111978837Y-62945185D01*
G37*
%TD.AperFunction*%
%TD*%
%TA.AperFunction,Conductor*%
%TO.N,GND*%
G36*
X110342414Y-90614367D02*
G01*
X110378990Y-90702672D01*
X110386044Y-90725927D01*
X110392616Y-90758960D01*
X110395000Y-90783156D01*
X110395000Y-90816840D01*
X110392617Y-90841033D01*
X110386045Y-90874070D01*
X110378990Y-90897328D01*
X110342414Y-90985632D01*
X110313656Y-91080435D01*
X110313651Y-91080456D01*
X110304212Y-91127906D01*
X110294500Y-91226525D01*
X110294500Y-92718647D01*
X110294649Y-92721677D01*
X110294600Y-92721679D01*
X110295000Y-92729809D01*
X110295000Y-92776427D01*
X110288931Y-92814745D01*
X110282754Y-92833755D01*
X110249500Y-93043713D01*
X110249500Y-93556286D01*
X110282753Y-93766240D01*
X110288431Y-93783714D01*
X110294500Y-93822032D01*
X110294500Y-94100500D01*
X110294501Y-94100509D01*
X110306052Y-94207950D01*
X110306054Y-94207962D01*
X110317260Y-94259472D01*
X110351383Y-94361997D01*
X110351386Y-94362003D01*
X110429171Y-94483037D01*
X110429179Y-94483048D01*
X110474923Y-94535840D01*
X110474926Y-94535843D01*
X110474930Y-94535847D01*
X110583664Y-94630067D01*
X110583667Y-94630068D01*
X110583668Y-94630069D01*
X110706627Y-94686224D01*
X110714541Y-94689838D01*
X110781580Y-94709523D01*
X110781584Y-94709524D01*
X110924000Y-94730000D01*
X111149487Y-94730000D01*
X111187803Y-94736068D01*
X111283757Y-94767246D01*
X111490556Y-94800000D01*
X109737361Y-94800000D01*
X109703779Y-94784663D01*
X109698272Y-94783046D01*
X109653843Y-94770000D01*
X109636734Y-94764976D01*
X109575721Y-94756204D01*
X109494317Y-94744500D01*
X109494315Y-94744500D01*
X109297452Y-94744500D01*
X109230413Y-94724815D01*
X109228607Y-94723632D01*
X109179179Y-94690606D01*
X109179172Y-94690602D01*
X109033501Y-94630264D01*
X109033489Y-94630261D01*
X108878845Y-94599500D01*
X108878842Y-94599500D01*
X108721158Y-94599500D01*
X108721155Y-94599500D01*
X108566510Y-94630261D01*
X108566498Y-94630264D01*
X108420827Y-94690602D01*
X108420820Y-94690606D01*
X108401853Y-94703280D01*
X108371438Y-94723602D01*
X108304762Y-94744480D01*
X108302548Y-94744500D01*
X107445619Y-94744500D01*
X107342744Y-94755078D01*
X107342741Y-94755078D01*
X107293347Y-94765345D01*
X107293343Y-94765346D01*
X107205867Y-94793118D01*
X107194761Y-94796644D01*
X107194758Y-94796645D01*
X107194753Y-94796648D01*
X107189319Y-94800000D01*
X105400000Y-94800000D01*
X105400000Y-94608890D01*
X105470143Y-94620000D01*
X105729857Y-94620000D01*
X105986377Y-94579370D01*
X106233377Y-94499115D01*
X106452023Y-94387708D01*
X105850562Y-93786247D01*
X106002626Y-93723260D01*
X106141844Y-93630238D01*
X106260238Y-93511844D01*
X106353260Y-93372626D01*
X106416247Y-93220562D01*
X107017708Y-93822023D01*
X107129115Y-93603377D01*
X107209370Y-93356377D01*
X107250000Y-93099857D01*
X107250000Y-92840142D01*
X107209370Y-92583622D01*
X107129115Y-92336622D01*
X107017708Y-92117975D01*
X106416247Y-92719437D01*
X106353260Y-92567374D01*
X106260238Y-92428156D01*
X106141844Y-92309762D01*
X106002626Y-92216740D01*
X105850559Y-92153751D01*
X106452022Y-91552289D01*
X106233377Y-91440883D01*
X105986377Y-91360629D01*
X105729857Y-91320000D01*
X105470142Y-91320000D01*
X105400000Y-91331109D01*
X105400000Y-90600000D01*
X110338056Y-90600000D01*
X110342414Y-90614367D01*
G37*
%TD.AperFunction*%
%TA.AperFunction,Conductor*%
G36*
X112749616Y-94312793D02*
G01*
X112805549Y-94354665D01*
X112811821Y-94363878D01*
X112815185Y-94369333D01*
X112815186Y-94369334D01*
X112907288Y-94518656D01*
X113031344Y-94642712D01*
X113180666Y-94734814D01*
X113347203Y-94789999D01*
X113445097Y-94800000D01*
X111709444Y-94800000D01*
X111916243Y-94767246D01*
X112015276Y-94735066D01*
X112026243Y-94732052D01*
X112036516Y-94729729D01*
X112041418Y-94729598D01*
X112183011Y-94704047D01*
X112249304Y-94681980D01*
X112249311Y-94681978D01*
X112377970Y-94617568D01*
X112483270Y-94519520D01*
X112483966Y-94518657D01*
X112525829Y-94466702D01*
X112527059Y-94465176D01*
X112527096Y-94465130D01*
X112527097Y-94465127D01*
X112531677Y-94459444D01*
X112539608Y-94449601D01*
X112539612Y-94449595D01*
X112543046Y-94445332D01*
X112543053Y-94445297D01*
X112550833Y-94431913D01*
X112555225Y-94425339D01*
X112555226Y-94425340D01*
X112590067Y-94373193D01*
X112605481Y-94354414D01*
X112618602Y-94341293D01*
X112679924Y-94307809D01*
X112749616Y-94312793D01*
G37*
%TD.AperFunction*%
%TA.AperFunction,Conductor*%
G36*
X116412179Y-90695048D02*
G01*
X116412181Y-90695049D01*
X116412184Y-90695051D01*
X116601588Y-90791557D01*
X116803757Y-90857246D01*
X117013713Y-90890500D01*
X117157770Y-90890500D01*
X117224809Y-90910185D01*
X117245451Y-90926819D01*
X118101586Y-91782954D01*
X118128572Y-91800984D01*
X118142067Y-91810001D01*
X118224505Y-91865084D01*
X118361087Y-91921658D01*
X118361091Y-91921658D01*
X118361092Y-91921659D01*
X118506079Y-91950500D01*
X118506082Y-91950500D01*
X118506083Y-91950500D01*
X118653918Y-91950500D01*
X120002691Y-91950500D01*
X120069730Y-91970185D01*
X120115485Y-92022989D01*
X120125429Y-92092147D01*
X120096404Y-92155703D01*
X120058986Y-92184985D01*
X120020353Y-92204669D01*
X120600000Y-92784316D01*
X120600001Y-92784316D01*
X121179646Y-92204669D01*
X121141014Y-92184985D01*
X121090218Y-92137010D01*
X121073423Y-92069189D01*
X121095961Y-92003054D01*
X121150676Y-91959603D01*
X121197309Y-91950500D01*
X121796659Y-91950500D01*
X121863698Y-91970185D01*
X121909453Y-92022989D01*
X121919397Y-92092147D01*
X121902198Y-92139596D01*
X121815189Y-92280659D01*
X121815185Y-92280668D01*
X121796644Y-92336622D01*
X121760001Y-92447203D01*
X121760001Y-92447204D01*
X121760000Y-92447204D01*
X121749500Y-92549983D01*
X121749500Y-92714821D01*
X121729815Y-92781860D01*
X121713181Y-92802502D01*
X121100000Y-93415683D01*
X121100000Y-93284174D01*
X121065925Y-93157007D01*
X121000099Y-93042993D01*
X120907007Y-92949901D01*
X120792993Y-92884075D01*
X120665826Y-92850000D01*
X120534174Y-92850000D01*
X120407007Y-92884075D01*
X120292993Y-92949901D01*
X120199901Y-93042993D01*
X120134075Y-93157007D01*
X120100000Y-93284174D01*
X120100000Y-93415826D01*
X120134075Y-93542993D01*
X120199901Y-93657007D01*
X120292993Y-93750099D01*
X120407007Y-93815925D01*
X120534174Y-93850000D01*
X120665683Y-93850000D01*
X120020352Y-94495329D01*
X120071421Y-94521350D01*
X120122217Y-94569324D01*
X120139012Y-94637145D01*
X120116475Y-94703280D01*
X120061760Y-94746732D01*
X120034962Y-94754238D01*
X119952421Y-94767614D01*
X119885750Y-94788489D01*
X119885744Y-94788492D01*
X119885739Y-94788494D01*
X119861690Y-94800000D01*
X119300835Y-94800000D01*
X119242331Y-94756204D01*
X119242328Y-94756202D01*
X119107486Y-94705910D01*
X119107485Y-94705909D01*
X119107483Y-94705909D01*
X119047873Y-94699500D01*
X119047863Y-94699500D01*
X118352129Y-94699500D01*
X118352123Y-94699501D01*
X118292516Y-94705908D01*
X118163628Y-94753981D01*
X118102649Y-94760537D01*
X117991104Y-94744500D01*
X117991103Y-94744500D01*
X117397452Y-94744500D01*
X117330413Y-94724815D01*
X117328607Y-94723632D01*
X117279179Y-94690606D01*
X117279172Y-94690602D01*
X117133501Y-94630264D01*
X117133489Y-94630261D01*
X116978845Y-94599500D01*
X116978842Y-94599500D01*
X116821158Y-94599500D01*
X116821155Y-94599500D01*
X116666510Y-94630261D01*
X116666498Y-94630264D01*
X116520827Y-94690602D01*
X116520820Y-94690606D01*
X116501853Y-94703280D01*
X116471438Y-94723602D01*
X116404762Y-94744480D01*
X116402548Y-94744500D01*
X116305683Y-94744500D01*
X116301119Y-94744521D01*
X116301070Y-94744521D01*
X116300947Y-94744522D01*
X116298919Y-94744540D01*
X116294454Y-94744599D01*
X116294437Y-94744600D01*
X116152422Y-94767614D01*
X116085750Y-94788489D01*
X116085744Y-94788492D01*
X116085739Y-94788494D01*
X116061690Y-94800000D01*
X114754893Y-94800000D01*
X114852797Y-94789999D01*
X115019334Y-94734814D01*
X115085848Y-94693786D01*
X115111772Y-94681676D01*
X115137504Y-94673113D01*
X115258543Y-94595325D01*
X115311347Y-94549570D01*
X115405567Y-94440836D01*
X115465338Y-94309959D01*
X115485023Y-94242920D01*
X115485024Y-94242916D01*
X115505500Y-94100500D01*
X115505500Y-93109493D01*
X119450000Y-93109493D01*
X119450000Y-93590506D01*
X119478317Y-93769293D01*
X119511841Y-93872472D01*
X119511842Y-93872472D01*
X120034316Y-93350000D01*
X119511842Y-92827526D01*
X119511841Y-92827526D01*
X119478317Y-92930704D01*
X119450000Y-93109493D01*
X115505500Y-93109493D01*
X115505500Y-90881355D01*
X115505500Y-90881348D01*
X115505351Y-90878318D01*
X115505398Y-90878315D01*
X115505000Y-90870187D01*
X115505000Y-90729809D01*
X115505399Y-90721679D01*
X115505351Y-90721677D01*
X115505500Y-90718647D01*
X115505500Y-90600000D01*
X116281355Y-90600000D01*
X116412179Y-90695048D01*
G37*
%TD.AperFunction*%
%TA.AperFunction,Conductor*%
G36*
X127119147Y-91656709D02*
G01*
X127154800Y-91716797D01*
X127157768Y-91762247D01*
X127150000Y-91826945D01*
X127150000Y-92570000D01*
X128045652Y-92570000D01*
X127982665Y-92722064D01*
X127950000Y-92886282D01*
X127950000Y-93053718D01*
X127982665Y-93217936D01*
X128045652Y-93370000D01*
X127150001Y-93370000D01*
X127150001Y-94113052D01*
X127160613Y-94201443D01*
X127160615Y-94201447D01*
X127216078Y-94342091D01*
X127216079Y-94342093D01*
X127307435Y-94462564D01*
X127419855Y-94547815D01*
X127461378Y-94604007D01*
X127465930Y-94673729D01*
X127432065Y-94734843D01*
X127370536Y-94767946D01*
X127358824Y-94769687D01*
X127214251Y-94793116D01*
X127192267Y-94800000D01*
X126637361Y-94800000D01*
X126603779Y-94784663D01*
X126598272Y-94783046D01*
X126553843Y-94770000D01*
X126536734Y-94764976D01*
X126475721Y-94756204D01*
X126394317Y-94744500D01*
X126394315Y-94744500D01*
X126197452Y-94744500D01*
X126130413Y-94724815D01*
X126128607Y-94723632D01*
X126079179Y-94690606D01*
X126079172Y-94690602D01*
X125933501Y-94630264D01*
X125933489Y-94630261D01*
X125778845Y-94599500D01*
X125778842Y-94599500D01*
X125621158Y-94599500D01*
X125621155Y-94599500D01*
X125466510Y-94630261D01*
X125466498Y-94630264D01*
X125320827Y-94690602D01*
X125320820Y-94690606D01*
X125301853Y-94703280D01*
X125271438Y-94723602D01*
X125204762Y-94744480D01*
X125202548Y-94744500D01*
X125105683Y-94744500D01*
X125101119Y-94744521D01*
X125101070Y-94744521D01*
X125100947Y-94744522D01*
X125098919Y-94744540D01*
X125094454Y-94744599D01*
X125094437Y-94744600D01*
X124952422Y-94767614D01*
X124885750Y-94788489D01*
X124885744Y-94788492D01*
X124885739Y-94788494D01*
X124861690Y-94800000D01*
X124337361Y-94800000D01*
X124310346Y-94787662D01*
X124257544Y-94741907D01*
X124237860Y-94674867D01*
X124257545Y-94607828D01*
X124274176Y-94587191D01*
X124292712Y-94568656D01*
X124384814Y-94419334D01*
X124439999Y-94252797D01*
X124450500Y-94150009D01*
X124450499Y-93106161D01*
X124470183Y-93039123D01*
X124486813Y-93018486D01*
X125793482Y-91711819D01*
X125854805Y-91678334D01*
X125881163Y-91675500D01*
X126816532Y-91675500D01*
X126816533Y-91675499D01*
X126947036Y-91649541D01*
X126987198Y-91632904D01*
X127056667Y-91625435D01*
X127119147Y-91656709D01*
G37*
%TD.AperFunction*%
%TA.AperFunction,Conductor*%
G36*
X129200000Y-94619999D02*
G01*
X129509413Y-94619999D01*
X129576452Y-94639684D01*
X129622207Y-94692488D01*
X129632151Y-94761646D01*
X129614635Y-94800000D01*
X127930726Y-94800000D01*
X127914283Y-94743997D01*
X127933969Y-94676958D01*
X127986773Y-94631204D01*
X128038283Y-94619999D01*
X128399999Y-94619999D01*
X128400000Y-94619998D01*
X128400000Y-93724347D01*
X128552064Y-93787335D01*
X128716282Y-93820000D01*
X128883718Y-93820000D01*
X129047936Y-93787335D01*
X129200000Y-93724347D01*
X129200000Y-94619999D01*
G37*
%TD.AperFunction*%
%TA.AperFunction,Conductor*%
G36*
X131000000Y-94800000D02*
G01*
X130896091Y-94800000D01*
X130810856Y-94783046D01*
X130797977Y-94779758D01*
X130739020Y-94761288D01*
X130739003Y-94761283D01*
X130731854Y-94759726D01*
X130728182Y-94758926D01*
X130728178Y-94758925D01*
X130728172Y-94758924D01*
X130700528Y-94754438D01*
X130672939Y-94746600D01*
X130633501Y-94730264D01*
X130633489Y-94730261D01*
X130478845Y-94699500D01*
X130478842Y-94699500D01*
X130348855Y-94699500D01*
X130281816Y-94679815D01*
X130236061Y-94627011D01*
X130226117Y-94557853D01*
X130255142Y-94494297D01*
X130273930Y-94476696D01*
X130292564Y-94462564D01*
X130383920Y-94342093D01*
X130383921Y-94342091D01*
X130439385Y-94201445D01*
X130450000Y-94113052D01*
X130450000Y-93370000D01*
X129554348Y-93370000D01*
X129617335Y-93217936D01*
X129650000Y-93053718D01*
X129650000Y-92886282D01*
X129617335Y-92722064D01*
X129554348Y-92570000D01*
X130449999Y-92570000D01*
X130449999Y-91826947D01*
X130439386Y-91738556D01*
X130439384Y-91738552D01*
X130383921Y-91597908D01*
X130383920Y-91597906D01*
X130292564Y-91477435D01*
X130172093Y-91386079D01*
X130172091Y-91386078D01*
X130031445Y-91330614D01*
X129943053Y-91320000D01*
X129200000Y-91320000D01*
X129200000Y-92215652D01*
X129047936Y-92152665D01*
X128883718Y-92120000D01*
X128716282Y-92120000D01*
X128552064Y-92152665D01*
X128400000Y-92215652D01*
X128400000Y-91320000D01*
X127684663Y-91320000D01*
X127617624Y-91300315D01*
X127571869Y-91247511D01*
X127561925Y-91178353D01*
X127590950Y-91114797D01*
X127596982Y-91108319D01*
X128324693Y-90380608D01*
X128324695Y-90380606D01*
X128360420Y-90327139D01*
X128398620Y-90269969D01*
X128449540Y-90147036D01*
X128462330Y-90082741D01*
X128475500Y-90016533D01*
X128475500Y-89087045D01*
X128550000Y-88850000D01*
X131000000Y-88400000D01*
X131000000Y-94800000D01*
G37*
%TD.AperFunction*%
%TD*%
%TA.AperFunction,Conductor*%
%TO.N,/V_IN*%
G36*
X108113858Y-69003222D02*
G01*
X108171271Y-69016574D01*
X108232108Y-69050932D01*
X108257744Y-69089897D01*
X108284916Y-69155495D01*
X108284919Y-69155501D01*
X108367048Y-69278415D01*
X108367051Y-69278419D01*
X108471580Y-69382948D01*
X108471584Y-69382951D01*
X108594498Y-69465080D01*
X108594511Y-69465087D01*
X108731082Y-69521656D01*
X108731087Y-69521658D01*
X108731091Y-69521658D01*
X108731092Y-69521659D01*
X108876079Y-69550500D01*
X108876082Y-69550500D01*
X109023914Y-69550500D01*
X109023918Y-69550500D01*
X109030657Y-69549159D01*
X109089447Y-69551699D01*
X109247426Y-69597597D01*
X109247429Y-69597597D01*
X109247431Y-69597598D01*
X109284306Y-69600500D01*
X109284314Y-69600500D01*
X110440686Y-69600500D01*
X110440694Y-69600500D01*
X110440701Y-69600499D01*
X110443132Y-69600404D01*
X110443167Y-69601297D01*
X110508108Y-69614915D01*
X110557883Y-69663948D01*
X110573500Y-69724190D01*
X110573500Y-70567330D01*
X110573499Y-70567348D01*
X110573499Y-70574943D01*
X110573499Y-70733057D01*
X110595775Y-70816190D01*
X110600000Y-70848284D01*
X110600000Y-74476000D01*
X110580315Y-74543039D01*
X110527511Y-74588794D01*
X110476000Y-74600000D01*
X107890515Y-74600000D01*
X107823476Y-74580315D01*
X107821624Y-74579102D01*
X107755500Y-74534919D01*
X107755488Y-74534912D01*
X107618917Y-74478343D01*
X107618907Y-74478340D01*
X107473920Y-74449500D01*
X107473918Y-74449500D01*
X107326082Y-74449500D01*
X107326080Y-74449500D01*
X107181092Y-74478340D01*
X107181082Y-74478343D01*
X107044511Y-74534912D01*
X107044499Y-74534919D01*
X106978376Y-74579102D01*
X106911699Y-74599980D01*
X106909485Y-74600000D01*
X104674500Y-74600000D01*
X104607461Y-74580315D01*
X104561706Y-74527511D01*
X104550500Y-74476000D01*
X104550500Y-71526079D01*
X104521659Y-71381093D01*
X104521658Y-71381087D01*
X104509437Y-71351584D01*
X104500000Y-71304135D01*
X104500000Y-69599939D01*
X104519685Y-69532900D01*
X104572489Y-69487145D01*
X104597652Y-69478771D01*
X106786982Y-69002830D01*
X106813323Y-69000000D01*
X108085772Y-69000000D01*
X108113858Y-69003222D01*
G37*
%TD.AperFunction*%
%TD*%
%TA.AperFunction,Conductor*%
%TO.N,/V_motor*%
G36*
X110643039Y-84345184D02*
G01*
X110688794Y-84397988D01*
X110700000Y-84449499D01*
X110700000Y-86370660D01*
X110681152Y-86436380D01*
X110390183Y-86901932D01*
X110332939Y-87030477D01*
X110332934Y-87030491D01*
X110314089Y-87096202D01*
X110314085Y-87096218D01*
X110306963Y-87146882D01*
X110288785Y-87196191D01*
X109300000Y-88749998D01*
X109300000Y-89476000D01*
X109280315Y-89543039D01*
X109227511Y-89588794D01*
X109176000Y-89600000D01*
X107224000Y-89600000D01*
X107156961Y-89580315D01*
X107111206Y-89527511D01*
X107100000Y-89476000D01*
X107100000Y-87201362D01*
X107119685Y-87134323D01*
X107136319Y-87113681D01*
X107463681Y-86786319D01*
X107525004Y-86752834D01*
X107551362Y-86750000D01*
X108300000Y-86750000D01*
X109755686Y-84384509D01*
X109807585Y-84337733D01*
X109861287Y-84325499D01*
X110576000Y-84325499D01*
X110643039Y-84345184D01*
G37*
%TD.AperFunction*%
%TD*%
%TA.AperFunction,Conductor*%
%TO.N,GND*%
G36*
X113688411Y-50820207D02*
G01*
X113757652Y-50875426D01*
X113796079Y-50955218D01*
X113796079Y-51043782D01*
X113757652Y-51123574D01*
X113742782Y-51140214D01*
X113605737Y-51277258D01*
X113458060Y-51469715D01*
X113336775Y-51679790D01*
X113336774Y-51679792D01*
X113243945Y-51903902D01*
X113210783Y-52027665D01*
X113181162Y-52138211D01*
X113149500Y-52378712D01*
X113149500Y-52621288D01*
X113150725Y-52630591D01*
X113181162Y-52861788D01*
X113181165Y-52861801D01*
X113243945Y-53096097D01*
X113243946Y-53096100D01*
X113336776Y-53320212D01*
X113384890Y-53403548D01*
X113458060Y-53530284D01*
X113605737Y-53722741D01*
X113777258Y-53894262D01*
X113969715Y-54041939D01*
X114028784Y-54076042D01*
X114179788Y-54163224D01*
X114403900Y-54256054D01*
X114638211Y-54318838D01*
X114878712Y-54350500D01*
X114878715Y-54350500D01*
X115121285Y-54350500D01*
X115121288Y-54350500D01*
X115361789Y-54318838D01*
X115596100Y-54256054D01*
X115820212Y-54163224D01*
X116017391Y-54049382D01*
X116030284Y-54041939D01*
X116030284Y-54041938D01*
X116030289Y-54041936D01*
X116222738Y-53894265D01*
X116394265Y-53722738D01*
X116541936Y-53530289D01*
X116663224Y-53320212D01*
X116756054Y-53096100D01*
X116818838Y-52861789D01*
X116850500Y-52621288D01*
X116850500Y-52378712D01*
X116818838Y-52138211D01*
X116756054Y-51903900D01*
X116663224Y-51679788D01*
X116587329Y-51548335D01*
X116541939Y-51469715D01*
X116394262Y-51277258D01*
X116257218Y-51140214D01*
X116210099Y-51065226D01*
X116200183Y-50977219D01*
X116229434Y-50893626D01*
X116292058Y-50831002D01*
X116375651Y-50801751D01*
X116397932Y-50800500D01*
X136000500Y-50800500D01*
X136086843Y-50820207D01*
X136156084Y-50875426D01*
X136194511Y-50955218D01*
X136199500Y-50999500D01*
X136199500Y-56578841D01*
X136230262Y-56733493D01*
X136230264Y-56733500D01*
X136290603Y-56879174D01*
X136290607Y-56879181D01*
X136323679Y-56928676D01*
X136378211Y-57010289D01*
X136489711Y-57121789D01*
X136565188Y-57172221D01*
X136620818Y-57209392D01*
X136620825Y-57209396D01*
X136657290Y-57224500D01*
X136766503Y-57269737D01*
X136921158Y-57300500D01*
X142701000Y-57300500D01*
X142787343Y-57320207D01*
X142856584Y-57375426D01*
X142895011Y-57455218D01*
X142900000Y-57499500D01*
X142900000Y-58700000D01*
X144900000Y-58700000D01*
X144900000Y-57499500D01*
X144919707Y-57413157D01*
X144974926Y-57343916D01*
X145054718Y-57305489D01*
X145099000Y-57300500D01*
X147876279Y-57300500D01*
X147915862Y-57300500D01*
X147915863Y-57300501D01*
X147994416Y-57300501D01*
X148005572Y-57300814D01*
X148291101Y-57316849D01*
X148313258Y-57319345D01*
X148555405Y-57360488D01*
X148589671Y-57366310D01*
X148611427Y-57371275D01*
X148880852Y-57448895D01*
X148901916Y-57456266D01*
X149160953Y-57563562D01*
X149181031Y-57573231D01*
X149426454Y-57708871D01*
X149445327Y-57720731D01*
X149673998Y-57882983D01*
X149691445Y-57896896D01*
X149900500Y-58083719D01*
X149916280Y-58099499D01*
X150103103Y-58308554D01*
X150117016Y-58326001D01*
X150279268Y-58554672D01*
X150291130Y-58573550D01*
X150426764Y-58818960D01*
X150436440Y-58839053D01*
X150543733Y-59098083D01*
X150551104Y-59119147D01*
X150628724Y-59388572D01*
X150633689Y-59410328D01*
X150680652Y-59686731D01*
X150683151Y-59708907D01*
X150699185Y-59994409D01*
X150699498Y-60005567D01*
X150699498Y-62977510D01*
X150699296Y-62986464D01*
X150696761Y-63042742D01*
X150696761Y-63042752D01*
X150697196Y-63045600D01*
X150699498Y-63060694D01*
X150699498Y-63078843D01*
X150711362Y-63138488D01*
X150712037Y-63142914D01*
X150720535Y-63198633D01*
X150721578Y-63201510D01*
X150725569Y-63212522D01*
X150726720Y-63215697D01*
X150730261Y-63233498D01*
X150753536Y-63289690D01*
X150755064Y-63293906D01*
X150755064Y-63293908D01*
X150774260Y-63346875D01*
X150774262Y-63346879D01*
X150775854Y-63349510D01*
X150789422Y-63376330D01*
X150790600Y-63379174D01*
X150821910Y-63426032D01*
X150826717Y-63433590D01*
X155665868Y-71433004D01*
X155665875Y-71433015D01*
X155671815Y-71442836D01*
X155672262Y-71444106D01*
X155714294Y-71513067D01*
X155714519Y-71513438D01*
X155714535Y-71513488D01*
X155717831Y-71519125D01*
X155951317Y-71935660D01*
X155957950Y-71948576D01*
X156158905Y-72377743D01*
X156164579Y-72391109D01*
X156333717Y-72833812D01*
X156338400Y-72847555D01*
X156474800Y-73301381D01*
X156478469Y-73315428D01*
X156488831Y-73361985D01*
X156575771Y-73752627D01*
X156581416Y-73777988D01*
X156584052Y-73792267D01*
X156653001Y-74261130D01*
X156654588Y-74275563D01*
X156689166Y-74748195D01*
X156689696Y-74762705D01*
X156689721Y-75236593D01*
X156689192Y-75251102D01*
X156654664Y-75723726D01*
X156653079Y-75738159D01*
X156584180Y-76207026D01*
X156581546Y-76221305D01*
X156478645Y-76683892D01*
X156474977Y-76697940D01*
X156338626Y-77151781D01*
X156333944Y-77165525D01*
X156164859Y-77608229D01*
X156159187Y-77621595D01*
X155958273Y-78050789D01*
X155951642Y-78063705D01*
X155718200Y-78480265D01*
X155714878Y-78485969D01*
X155714510Y-78486576D01*
X155672638Y-78555293D01*
X155672206Y-78556520D01*
X155666292Y-78566299D01*
X155666289Y-78566301D01*
X155666284Y-78566312D01*
X150826715Y-86566416D01*
X150821910Y-86573971D01*
X150790605Y-86620821D01*
X150790603Y-86620826D01*
X150789424Y-86623673D01*
X150775862Y-86650480D01*
X150774267Y-86653116D01*
X150774265Y-86653121D01*
X150755065Y-86706097D01*
X150751827Y-86714442D01*
X150730262Y-86766505D01*
X150729662Y-86769521D01*
X150721584Y-86798480D01*
X150720537Y-86801367D01*
X150719598Y-86807525D01*
X150711365Y-86861507D01*
X150699500Y-86921158D01*
X150699500Y-86939300D01*
X150697226Y-86954210D01*
X150697226Y-86954217D01*
X150696763Y-86957253D01*
X150696763Y-86957255D01*
X150696763Y-86957259D01*
X150699298Y-87013535D01*
X150699500Y-87022489D01*
X150699500Y-89994415D01*
X150699187Y-90005573D01*
X150683152Y-90291093D01*
X150680653Y-90313269D01*
X150633690Y-90589671D01*
X150628725Y-90611427D01*
X150551106Y-90880851D01*
X150543735Y-90901915D01*
X150436443Y-91160940D01*
X150426761Y-91181046D01*
X150291138Y-91426438D01*
X150279264Y-91445334D01*
X150117017Y-91673999D01*
X150103104Y-91691446D01*
X149916281Y-91900501D01*
X149900501Y-91916281D01*
X149691446Y-92103104D01*
X149673999Y-92117017D01*
X149445334Y-92279264D01*
X149426438Y-92291138D01*
X149181046Y-92426761D01*
X149160940Y-92436443D01*
X148901915Y-92543735D01*
X148880851Y-92551106D01*
X148611427Y-92628725D01*
X148589671Y-92633690D01*
X148313269Y-92680653D01*
X148291093Y-92683152D01*
X148005573Y-92699187D01*
X147994415Y-92699500D01*
X137078842Y-92699500D01*
X136921158Y-92699500D01*
X136870072Y-92709661D01*
X136766506Y-92730262D01*
X136766499Y-92730264D01*
X136620825Y-92790603D01*
X136620818Y-92790607D01*
X136489715Y-92878208D01*
X136489707Y-92878214D01*
X136378214Y-92989707D01*
X136378208Y-92989715D01*
X136290607Y-93120818D01*
X136290603Y-93120825D01*
X136230264Y-93266499D01*
X136230262Y-93266506D01*
X136199500Y-93421158D01*
X136199500Y-97601000D01*
X136179793Y-97687343D01*
X136124574Y-97756584D01*
X136044782Y-97795011D01*
X136000500Y-97800000D01*
X134800000Y-97800000D01*
X134800000Y-99000500D01*
X134780293Y-99086843D01*
X134725074Y-99156084D01*
X134645282Y-99194511D01*
X134601000Y-99199500D01*
X131654500Y-99199500D01*
X131568157Y-99179793D01*
X131498916Y-99124574D01*
X131460489Y-99044782D01*
X131455500Y-99000500D01*
X131455500Y-95424504D01*
X131444150Y-95318935D01*
X131443947Y-95317044D01*
X131442562Y-95310680D01*
X131441150Y-95290856D01*
X131434182Y-95272159D01*
X131432745Y-95265552D01*
X131430828Y-95259793D01*
X131412157Y-95203694D01*
X131398612Y-95162994D01*
X131376559Y-95128680D01*
X131369288Y-95116422D01*
X131368045Y-95114144D01*
X131368046Y-95114144D01*
X131359129Y-95097802D01*
X131357907Y-95095463D01*
X131357448Y-95094719D01*
X131342426Y-95074640D01*
X131334361Y-95063020D01*
X131320823Y-95041955D01*
X131304635Y-95023273D01*
X131295689Y-95012168D01*
X131289443Y-95003820D01*
X131271254Y-94979507D01*
X131271253Y-94979506D01*
X131271248Y-94979502D01*
X131227265Y-94946557D01*
X131217286Y-94939082D01*
X131166344Y-94894938D01*
X131114690Y-94871347D01*
X131113928Y-94870838D01*
X131114195Y-94870352D01*
X131108737Y-94867369D01*
X131108733Y-94867367D01*
X131094779Y-94859743D01*
X131094774Y-94859740D01*
X131071310Y-94850981D01*
X131071310Y-94850980D01*
X131064663Y-94848499D01*
X131035467Y-94835165D01*
X131014238Y-94828931D01*
X131014040Y-94829601D01*
X130998211Y-94823693D01*
X130998205Y-94823691D01*
X130987966Y-94819869D01*
X130959991Y-94809426D01*
X130959988Y-94809425D01*
X130959987Y-94809425D01*
X130946944Y-94806583D01*
X130917045Y-94803364D01*
X130899530Y-94800684D01*
X130896091Y-94800000D01*
X131000000Y-94800000D01*
X131000000Y-88400000D01*
X128550000Y-88850000D01*
X128275500Y-89723409D01*
X128275500Y-87937399D01*
X128275500Y-87829386D01*
X128295207Y-87743043D01*
X128333786Y-87688672D01*
X128713672Y-87308786D01*
X128788660Y-87261667D01*
X128854386Y-87250500D01*
X130097597Y-87250500D01*
X130097600Y-87250500D01*
X130218535Y-87218095D01*
X130326963Y-87155495D01*
X131080495Y-86401963D01*
X131143095Y-86293535D01*
X131175500Y-86172600D01*
X131175500Y-86122703D01*
X131195207Y-86036360D01*
X131214382Y-86004537D01*
X131233852Y-85978157D01*
X131277710Y-85852819D01*
X131280500Y-85823066D01*
X131280500Y-85376934D01*
X131277710Y-85347181D01*
X131233852Y-85221843D01*
X131233850Y-85221841D01*
X131228926Y-85207767D01*
X131232753Y-85206427D01*
X131217070Y-85147980D01*
X131233504Y-85060955D01*
X131275213Y-84999757D01*
X131302206Y-84972765D01*
X131302209Y-84972759D01*
X131318956Y-84934831D01*
X131371859Y-84863805D01*
X131450340Y-84822766D01*
X131538855Y-84819844D01*
X131619873Y-84855616D01*
X131677346Y-84922998D01*
X131699892Y-85008643D01*
X131700000Y-85015210D01*
X131700000Y-89300000D01*
X142700000Y-89300000D01*
X142700000Y-61566174D01*
X142719707Y-61479831D01*
X142774926Y-61410590D01*
X142854718Y-61372163D01*
X142943282Y-61372163D01*
X143023074Y-61410590D01*
X143039714Y-61425460D01*
X148766214Y-67151960D01*
X148813333Y-67226948D01*
X148824500Y-67292674D01*
X148824500Y-69734884D01*
X148804793Y-69821227D01*
X148749574Y-69890468D01*
X148669782Y-69928895D01*
X148581218Y-69928895D01*
X148559775Y-69922717D01*
X148472819Y-69892290D01*
X148443066Y-69889500D01*
X148056934Y-69889500D01*
X148027181Y-69892290D01*
X147901843Y-69936148D01*
X147901841Y-69936148D01*
X147895600Y-69938333D01*
X147829874Y-69949500D01*
X147427521Y-69949500D01*
X147339577Y-69973066D01*
X147287515Y-69987016D01*
X147287507Y-69987019D01*
X147161988Y-70059487D01*
X147161984Y-70059490D01*
X145309489Y-71911985D01*
X145241830Y-72029176D01*
X145237017Y-72037511D01*
X145199500Y-72177522D01*
X145199500Y-77572478D01*
X145210899Y-77615016D01*
X145237016Y-77712484D01*
X145237019Y-77712492D01*
X145309487Y-77838011D01*
X145309490Y-77838015D01*
X147901984Y-80430509D01*
X147901988Y-80430512D01*
X148027507Y-80502980D01*
X148027510Y-80502981D01*
X148027515Y-80502984D01*
X148167525Y-80540500D01*
X148167526Y-80540500D01*
X148312474Y-80540500D01*
X149180547Y-80540500D01*
X149266890Y-80560207D01*
X149336131Y-80615426D01*
X149374558Y-80695218D01*
X149374558Y-80783782D01*
X149336131Y-80863574D01*
X149321261Y-80880214D01*
X143659490Y-86541984D01*
X143659489Y-86541986D01*
X143625708Y-86600498D01*
X143625707Y-86600500D01*
X143587017Y-86667511D01*
X143587016Y-86667515D01*
X143549500Y-86807522D01*
X143549500Y-89489547D01*
X143542071Y-89522094D01*
X143538333Y-89555273D01*
X143532311Y-89564856D01*
X143529793Y-89575890D01*
X143491215Y-89630260D01*
X143230261Y-89891214D01*
X143155273Y-89938333D01*
X143089547Y-89949500D01*
X133091860Y-89949500D01*
X133040356Y-89942719D01*
X132879059Y-89899500D01*
X132879057Y-89899500D01*
X132720943Y-89899500D01*
X132568218Y-89940422D01*
X132568206Y-89940427D01*
X132431287Y-90019477D01*
X132431283Y-90019480D01*
X132319480Y-90131283D01*
X132319477Y-90131287D01*
X132240427Y-90268206D01*
X132240422Y-90268218D01*
X132199500Y-90420942D01*
X132199500Y-90579057D01*
X132240422Y-90731781D01*
X132240427Y-90731793D01*
X132319477Y-90868712D01*
X132319480Y-90868716D01*
X132431283Y-90980519D01*
X132431287Y-90980522D01*
X132568206Y-91059572D01*
X132568210Y-91059574D01*
X132568216Y-91059577D01*
X132720943Y-91100500D01*
X132879059Y-91100500D01*
X133040356Y-91057281D01*
X133091860Y-91050500D01*
X143472472Y-91050500D01*
X143472474Y-91050500D01*
X143472475Y-91050500D01*
X143612485Y-91012984D01*
X143635840Y-90999500D01*
X143738015Y-90940510D01*
X144540509Y-90138015D01*
X144612984Y-90012485D01*
X144624147Y-89970825D01*
X144648829Y-89878712D01*
X146149500Y-89878712D01*
X146149500Y-90121288D01*
X146178754Y-90343497D01*
X146181162Y-90361788D01*
X146181165Y-90361801D01*
X146238178Y-90574574D01*
X146243946Y-90596100D01*
X146336776Y-90820212D01*
X146369259Y-90876474D01*
X146458060Y-91030284D01*
X146605737Y-91222741D01*
X146777258Y-91394262D01*
X146969715Y-91541939D01*
X147048335Y-91587329D01*
X147179788Y-91663224D01*
X147403900Y-91756054D01*
X147638211Y-91818838D01*
X147878712Y-91850500D01*
X147878715Y-91850500D01*
X148121285Y-91850500D01*
X148121288Y-91850500D01*
X148361789Y-91818838D01*
X148596100Y-91756054D01*
X148820212Y-91663224D01*
X149030289Y-91541936D01*
X149222738Y-91394265D01*
X149394265Y-91222738D01*
X149541936Y-91030289D01*
X149663224Y-90820212D01*
X149756054Y-90596100D01*
X149818838Y-90361789D01*
X149850500Y-90121288D01*
X149850500Y-89878712D01*
X149818838Y-89638211D01*
X149756054Y-89403900D01*
X149663224Y-89179788D01*
X149544594Y-88974314D01*
X149541939Y-88969715D01*
X149474915Y-88882368D01*
X149394265Y-88777262D01*
X149394262Y-88777258D01*
X149222741Y-88605737D01*
X149030284Y-88458060D01*
X148881793Y-88372330D01*
X148820212Y-88336776D01*
X148596100Y-88243946D01*
X148596098Y-88243945D01*
X148596097Y-88243945D01*
X148361801Y-88181165D01*
X148361795Y-88181163D01*
X148361789Y-88181162D01*
X148121288Y-88149500D01*
X147878712Y-88149500D01*
X147638211Y-88181162D01*
X147638198Y-88181165D01*
X147403902Y-88243945D01*
X147179792Y-88336774D01*
X147179790Y-88336775D01*
X146969715Y-88458060D01*
X146777258Y-88605737D01*
X146605737Y-88777258D01*
X146458060Y-88969715D01*
X146336775Y-89179790D01*
X146336774Y-89179792D01*
X146243945Y-89403902D01*
X146182029Y-89634976D01*
X146181162Y-89638211D01*
X146149500Y-89878712D01*
X144648829Y-89878712D01*
X144650500Y-89872475D01*
X144650500Y-88227525D01*
X144650500Y-87190453D01*
X144670207Y-87104110D01*
X144708786Y-87049739D01*
X152324739Y-79433786D01*
X152399727Y-79386667D01*
X152465453Y-79375500D01*
X152646150Y-79375500D01*
X152696811Y-79369415D01*
X152730590Y-79365359D01*
X152800107Y-79337944D01*
X152864976Y-79312364D01*
X152980075Y-79225080D01*
X152980078Y-79225078D01*
X152980081Y-79225073D01*
X152989706Y-79215450D01*
X152991382Y-79217127D01*
X153044775Y-79172371D01*
X153088942Y-79156017D01*
X153111882Y-79150500D01*
X153222474Y-79150500D01*
X153222475Y-79150500D01*
X153362485Y-79112984D01*
X153405073Y-79088396D01*
X153488015Y-79040510D01*
X154690510Y-77838015D01*
X154762984Y-77712485D01*
X154789101Y-77615016D01*
X154800500Y-77572475D01*
X154800500Y-76677525D01*
X154800500Y-75677525D01*
X154800500Y-72177525D01*
X154762984Y-72037515D01*
X154758169Y-72029175D01*
X154738111Y-71994434D01*
X154690510Y-71911985D01*
X152838015Y-70059490D01*
X152838011Y-70059487D01*
X152712492Y-69987019D01*
X152712483Y-69987015D01*
X152660423Y-69973066D01*
X152572478Y-69949500D01*
X152572475Y-69949500D01*
X152170126Y-69949500D01*
X152104400Y-69938333D01*
X152098158Y-69936148D01*
X152098157Y-69936148D01*
X151972819Y-69892290D01*
X151943066Y-69889500D01*
X151556934Y-69889500D01*
X151533131Y-69891732D01*
X151527180Y-69892290D01*
X151440225Y-69922717D01*
X151352218Y-69932633D01*
X151268625Y-69903382D01*
X151206002Y-69840758D01*
X151176751Y-69757164D01*
X151175500Y-69734884D01*
X151175500Y-67840168D01*
X151146504Y-67731954D01*
X151146503Y-67731953D01*
X151146503Y-67731951D01*
X151090485Y-67634925D01*
X151011263Y-67555703D01*
X144938169Y-61482609D01*
X143334272Y-59878712D01*
X146149500Y-59878712D01*
X146149500Y-60121288D01*
X146174942Y-60314541D01*
X146181162Y-60361788D01*
X146181165Y-60361801D01*
X146243944Y-60596095D01*
X146243945Y-60596099D01*
X146243946Y-60596100D01*
X146336776Y-60820212D01*
X146384890Y-60903548D01*
X146458060Y-61030284D01*
X146605737Y-61222741D01*
X146777258Y-61394262D01*
X146969715Y-61541939D01*
X146998111Y-61558333D01*
X147179788Y-61663224D01*
X147403900Y-61756054D01*
X147638211Y-61818838D01*
X147878712Y-61850500D01*
X147878715Y-61850500D01*
X148121285Y-61850500D01*
X148121288Y-61850500D01*
X148361789Y-61818838D01*
X148596100Y-61756054D01*
X148820212Y-61663224D01*
X149030289Y-61541936D01*
X149222738Y-61394265D01*
X149394265Y-61222738D01*
X149541936Y-61030289D01*
X149663224Y-60820212D01*
X149756054Y-60596100D01*
X149756054Y-60596099D01*
X149756056Y-60596095D01*
X149787709Y-60477962D01*
X149818838Y-60361789D01*
X149850500Y-60121288D01*
X149850500Y-59878712D01*
X149818838Y-59638211D01*
X149756054Y-59403900D01*
X149663224Y-59179788D01*
X149550396Y-58984364D01*
X149541939Y-58969715D01*
X149394262Y-58777258D01*
X149222741Y-58605737D01*
X149030284Y-58458060D01*
X148903548Y-58384890D01*
X148820212Y-58336776D01*
X148596100Y-58243946D01*
X148596098Y-58243945D01*
X148596097Y-58243945D01*
X148361801Y-58181165D01*
X148361795Y-58181163D01*
X148361789Y-58181162D01*
X148121288Y-58149500D01*
X147878712Y-58149500D01*
X147638211Y-58181162D01*
X147638198Y-58181165D01*
X147403902Y-58243945D01*
X147179792Y-58336774D01*
X147179790Y-58336775D01*
X146969715Y-58458060D01*
X146777258Y-58605737D01*
X146605737Y-58777258D01*
X146458060Y-58969715D01*
X146336775Y-59179790D01*
X146336774Y-59179792D01*
X146243945Y-59403902D01*
X146185911Y-59620489D01*
X146181162Y-59638211D01*
X146149500Y-59878712D01*
X143334272Y-59878712D01*
X143064076Y-59608516D01*
X143064077Y-59608516D01*
X143049663Y-59600194D01*
X142967049Y-59552497D01*
X142967046Y-59552496D01*
X142967044Y-59552495D01*
X142967045Y-59552495D01*
X142858832Y-59523500D01*
X142858830Y-59523500D01*
X128984115Y-59523500D01*
X128872078Y-59523500D01*
X128872076Y-59523500D01*
X128763862Y-59552495D01*
X128666831Y-59608516D01*
X125759516Y-62515831D01*
X125703495Y-62612862D01*
X125674500Y-62721076D01*
X125674500Y-65331024D01*
X125669830Y-65351480D01*
X125670138Y-65372464D01*
X125660101Y-65394108D01*
X125654793Y-65417367D01*
X125641709Y-65433773D01*
X125632882Y-65452810D01*
X125615978Y-65466038D01*
X125599574Y-65486608D01*
X125564456Y-65509035D01*
X125560205Y-65511159D01*
X125477235Y-65547794D01*
X125467586Y-65557442D01*
X125438956Y-65571750D01*
X125408883Y-65579078D01*
X125380093Y-65590451D01*
X125366322Y-65589449D01*
X125352910Y-65592718D01*
X125322636Y-65586272D01*
X125291763Y-65584027D01*
X125275652Y-65576268D01*
X125266289Y-65574275D01*
X125257680Y-65567613D01*
X125237537Y-65557913D01*
X125222765Y-65547794D01*
X125144119Y-65513068D01*
X125073093Y-65460164D01*
X125032056Y-65381682D01*
X125025500Y-65331024D01*
X125025500Y-65293982D01*
X125023636Y-65287028D01*
X125023635Y-65287015D01*
X125023634Y-65287016D01*
X124996504Y-65185767D01*
X124996503Y-65185763D01*
X124985103Y-65166018D01*
X124940485Y-65088737D01*
X124875267Y-65023519D01*
X124828148Y-64948531D01*
X124818232Y-64860524D01*
X124843640Y-64783308D01*
X124905599Y-64675994D01*
X124945500Y-64527083D01*
X124945500Y-62992917D01*
X124905599Y-62844006D01*
X124828516Y-62710495D01*
X124818786Y-62700765D01*
X124801022Y-62672495D01*
X124780207Y-62646394D01*
X124777688Y-62635360D01*
X124771667Y-62625777D01*
X124760500Y-62560051D01*
X124760500Y-62288320D01*
X124780207Y-62201977D01*
X124818783Y-62147609D01*
X128107231Y-58859160D01*
X128182217Y-58812043D01*
X128270224Y-58802127D01*
X128353817Y-58831378D01*
X128364892Y-58838868D01*
X128419834Y-58878785D01*
X128427010Y-58883999D01*
X128588348Y-58966205D01*
X128588355Y-58966207D01*
X128588361Y-58966211D01*
X128588366Y-58966212D01*
X128588367Y-58966213D01*
X128760581Y-59022168D01*
X128760585Y-59022169D01*
X128760591Y-59022171D01*
X128939454Y-59050500D01*
X129370546Y-59050500D01*
X129549409Y-59022171D01*
X129721639Y-58966211D01*
X129882994Y-58883996D01*
X130029501Y-58777553D01*
X130157553Y-58649501D01*
X130263996Y-58502994D01*
X130346211Y-58341639D01*
X130402171Y-58169409D01*
X130430500Y-57990546D01*
X130430500Y-57809454D01*
X130402171Y-57630591D01*
X130380391Y-57563559D01*
X130346213Y-57458367D01*
X130346212Y-57458366D01*
X130346211Y-57458361D01*
X130346207Y-57458355D01*
X130346205Y-57458348D01*
X130263999Y-57297011D01*
X130263997Y-57297008D01*
X130263996Y-57297006D01*
X130157553Y-57150499D01*
X130029501Y-57022447D01*
X129882994Y-56916004D01*
X129882992Y-56916003D01*
X129882988Y-56916000D01*
X129714673Y-56830239D01*
X129715211Y-56829182D01*
X129649567Y-56782609D01*
X129606725Y-56705098D01*
X129601755Y-56616674D01*
X129635644Y-56534851D01*
X129701678Y-56475834D01*
X129721283Y-56466392D01*
X129721636Y-56466211D01*
X129721639Y-56466211D01*
X129882994Y-56383996D01*
X130029501Y-56277553D01*
X130157553Y-56149501D01*
X130263996Y-56002994D01*
X130346211Y-55841639D01*
X130402171Y-55669409D01*
X130430500Y-55490546D01*
X130430500Y-55309454D01*
X130402171Y-55130591D01*
X130396069Y-55111812D01*
X130346213Y-54958367D01*
X130346212Y-54958366D01*
X130346211Y-54958361D01*
X130346207Y-54958355D01*
X130346205Y-54958348D01*
X130263999Y-54797011D01*
X130263997Y-54797008D01*
X130263996Y-54797006D01*
X130157553Y-54650499D01*
X130029501Y-54522447D01*
X129882994Y-54416004D01*
X129882990Y-54416001D01*
X129878799Y-54413433D01*
X129876903Y-54411579D01*
X129876669Y-54411409D01*
X129876694Y-54411374D01*
X129815480Y-54351513D01*
X129785297Y-54268251D01*
X129794228Y-54180140D01*
X129840506Y-54104629D01*
X129914963Y-54056675D01*
X129959049Y-54046183D01*
X130011564Y-54039877D01*
X130152342Y-53984361D01*
X130272922Y-53892922D01*
X130364361Y-53772342D01*
X130419877Y-53631564D01*
X130424598Y-53592247D01*
X130430500Y-53543107D01*
X130430500Y-52256892D01*
X130419877Y-52168439D01*
X130419877Y-52168436D01*
X130364361Y-52027658D01*
X130272922Y-51907078D01*
X130152342Y-51815639D01*
X130152334Y-51815635D01*
X130011568Y-51760124D01*
X130011560Y-51760122D01*
X129923107Y-51749500D01*
X129923102Y-51749500D01*
X128386898Y-51749500D01*
X128386893Y-51749500D01*
X128298439Y-51760122D01*
X128298431Y-51760124D01*
X128157665Y-51815635D01*
X128157657Y-51815639D01*
X128037078Y-51907078D01*
X127945639Y-52027657D01*
X127945635Y-52027665D01*
X127890124Y-52168431D01*
X127890122Y-52168439D01*
X127879500Y-52256892D01*
X127879500Y-53543107D01*
X127890122Y-53631560D01*
X127890124Y-53631568D01*
X127945635Y-53772334D01*
X127945639Y-53772342D01*
X128037078Y-53892922D01*
X128157658Y-53984361D01*
X128157662Y-53984362D01*
X128157665Y-53984364D01*
X128241436Y-54017399D01*
X128298436Y-54039877D01*
X128350944Y-54046182D01*
X128434318Y-54076042D01*
X128496482Y-54139122D01*
X128525121Y-54222927D01*
X128514563Y-54310858D01*
X128466897Y-54385501D01*
X128431207Y-54413429D01*
X128427010Y-54416001D01*
X128280496Y-54522449D01*
X128152449Y-54650496D01*
X128046001Y-54797009D01*
X128010928Y-54865845D01*
X127954170Y-54933830D01*
X127873534Y-54970456D01*
X127833618Y-54974500D01*
X126143980Y-54974500D01*
X126035766Y-55003495D01*
X125938735Y-55059516D01*
X125082038Y-55916214D01*
X125007050Y-55963333D01*
X124941324Y-55974500D01*
X112458676Y-55974500D01*
X112372333Y-55954793D01*
X112317962Y-55916214D01*
X111461264Y-55059516D01*
X111461265Y-55059516D01*
X111444045Y-55049574D01*
X111364237Y-55003497D01*
X111364234Y-55003496D01*
X111364232Y-55003495D01*
X111364233Y-55003495D01*
X111256020Y-54974500D01*
X111256018Y-54974500D01*
X110306388Y-54974500D01*
X110220045Y-54954793D01*
X110150804Y-54899574D01*
X110112377Y-54819782D01*
X110112377Y-54731218D01*
X110134049Y-54676000D01*
X110159577Y-54631784D01*
X110200500Y-54479057D01*
X110200500Y-54320943D01*
X110190228Y-54282609D01*
X110181357Y-54249500D01*
X110159577Y-54168216D01*
X110159574Y-54168210D01*
X110159572Y-54168206D01*
X110080522Y-54031287D01*
X110080519Y-54031283D01*
X109968716Y-53919480D01*
X109968712Y-53919477D01*
X109831793Y-53840427D01*
X109831785Y-53840423D01*
X109831784Y-53840423D01*
X109831782Y-53840422D01*
X109831781Y-53840422D01*
X109679054Y-53799499D01*
X109666125Y-53797797D01*
X109666419Y-53795561D01*
X109597332Y-53779793D01*
X109542961Y-53741214D01*
X108971165Y-53169418D01*
X108361264Y-52559516D01*
X108361265Y-52559516D01*
X108346851Y-52551194D01*
X108264237Y-52503497D01*
X108264234Y-52503496D01*
X108264232Y-52503495D01*
X108264233Y-52503495D01*
X108156020Y-52474500D01*
X108156018Y-52474500D01*
X107121382Y-52474500D01*
X107035039Y-52454793D01*
X106965798Y-52399574D01*
X106944072Y-52365845D01*
X106908998Y-52297009D01*
X106879856Y-52256898D01*
X106802553Y-52150499D01*
X106674501Y-52022447D01*
X106527994Y-51916004D01*
X106527992Y-51916003D01*
X106527988Y-51916000D01*
X106366651Y-51833794D01*
X106366632Y-51833786D01*
X106194418Y-51777831D01*
X106194407Y-51777828D01*
X106015546Y-51749500D01*
X105584454Y-51749500D01*
X105405592Y-51777828D01*
X105405581Y-51777831D01*
X105233367Y-51833786D01*
X105233348Y-51833794D01*
X105072011Y-51916000D01*
X104925496Y-52022449D01*
X104797449Y-52150496D01*
X104691000Y-52297011D01*
X104608794Y-52458348D01*
X104608786Y-52458367D01*
X104552831Y-52630581D01*
X104552828Y-52630592D01*
X104524500Y-52809454D01*
X104524500Y-52990545D01*
X104552828Y-53169407D01*
X104552831Y-53169418D01*
X104608786Y-53341632D01*
X104608794Y-53341651D01*
X104691000Y-53502988D01*
X104691003Y-53502992D01*
X104691004Y-53502994D01*
X104797447Y-53649501D01*
X104925499Y-53777553D01*
X105072006Y-53883996D01*
X105072008Y-53883997D01*
X105072011Y-53883999D01*
X105240327Y-53969761D01*
X105239788Y-53970817D01*
X105305438Y-54017399D01*
X105348277Y-54094912D01*
X105353242Y-54183336D01*
X105319349Y-54265157D01*
X105253312Y-54324171D01*
X105233721Y-54333604D01*
X105072011Y-54416000D01*
X104925496Y-54522449D01*
X104797449Y-54650496D01*
X104691000Y-54797011D01*
X104608794Y-54958348D01*
X104608790Y-54958358D01*
X104608789Y-54958360D01*
X104608789Y-54958361D01*
X104604062Y-54972911D01*
X104599485Y-54986997D01*
X104581238Y-55017535D01*
X104565809Y-55049574D01*
X104558715Y-55055230D01*
X104554060Y-55063023D01*
X104524373Y-55082618D01*
X104496568Y-55104793D01*
X104487720Y-55106812D01*
X104480146Y-55111812D01*
X104410225Y-55124500D01*
X104099499Y-55124500D01*
X104013156Y-55104793D01*
X103943915Y-55049574D01*
X103905488Y-54969782D01*
X103900499Y-54925500D01*
X103900499Y-54905133D01*
X103897585Y-54880010D01*
X103873337Y-54825094D01*
X103852206Y-54777235D01*
X103772765Y-54697794D01*
X103772762Y-54697792D01*
X103772761Y-54697792D01*
X103669991Y-54652415D01*
X103644866Y-54649500D01*
X102355133Y-54649500D01*
X102330010Y-54652414D01*
X102227238Y-54697792D01*
X102227233Y-54697795D01*
X102147795Y-54777233D01*
X102147792Y-54777238D01*
X102102415Y-54880007D01*
X102102415Y-54880009D01*
X102099500Y-54905130D01*
X102099500Y-56194866D01*
X102102414Y-56219989D01*
X102102415Y-56219991D01*
X102147794Y-56322765D01*
X102227235Y-56402206D01*
X102262903Y-56417955D01*
X102333928Y-56470857D01*
X102374967Y-56549338D01*
X102377891Y-56637853D01*
X102342119Y-56718871D01*
X102274738Y-56776344D01*
X102262908Y-56782041D01*
X102227241Y-56797790D01*
X102227233Y-56797795D01*
X102147795Y-56877233D01*
X102147792Y-56877238D01*
X102102415Y-56980007D01*
X102102415Y-56980009D01*
X102099500Y-57005130D01*
X102099500Y-58294866D01*
X102102414Y-58319989D01*
X102102415Y-58319991D01*
X102147794Y-58422765D01*
X102227235Y-58502206D01*
X102330009Y-58547585D01*
X102355135Y-58550500D01*
X103644864Y-58550499D01*
X103644866Y-58550499D01*
X103657427Y-58549042D01*
X103669991Y-58547585D01*
X103772765Y-58502206D01*
X103852206Y-58422765D01*
X103897585Y-58319991D01*
X103900500Y-58294865D01*
X103900500Y-58274500D01*
X103905489Y-58252641D01*
X103905489Y-58230218D01*
X103915217Y-58210016D01*
X103920207Y-58188157D01*
X103934188Y-58170625D01*
X103943916Y-58150426D01*
X103961446Y-58136446D01*
X103975426Y-58118916D01*
X103995625Y-58109188D01*
X104013157Y-58095207D01*
X104035016Y-58090217D01*
X104055218Y-58080489D01*
X104099500Y-58075500D01*
X104325500Y-58075500D01*
X104411843Y-58095207D01*
X104481084Y-58150426D01*
X104519511Y-58230218D01*
X104524500Y-58274500D01*
X104524500Y-58543107D01*
X104535122Y-58631560D01*
X104535124Y-58631568D01*
X104590635Y-58772334D01*
X104590639Y-58772342D01*
X104682078Y-58892922D01*
X104802658Y-58984361D01*
X104802662Y-58984362D01*
X104802665Y-58984364D01*
X104898529Y-59022168D01*
X104943436Y-59039877D01*
X104972607Y-59043380D01*
X105031893Y-59050500D01*
X105031898Y-59050500D01*
X106568106Y-59050500D01*
X106612333Y-59045188D01*
X106656564Y-59039877D01*
X106797342Y-58984361D01*
X106917922Y-58892922D01*
X107009361Y-58772342D01*
X107064877Y-58631564D01*
X107069598Y-58592247D01*
X107075500Y-58543107D01*
X107075500Y-58499773D01*
X107095207Y-58413430D01*
X107150426Y-58344189D01*
X107222994Y-58307553D01*
X107264237Y-58296503D01*
X107361263Y-58240485D01*
X107940485Y-57661263D01*
X108315485Y-57286263D01*
X108717962Y-56883786D01*
X108792950Y-56836667D01*
X108858676Y-56825500D01*
X110493836Y-56825500D01*
X110580179Y-56845207D01*
X110620169Y-56873582D01*
X110620938Y-56872581D01*
X110631287Y-56880522D01*
X110768206Y-56959572D01*
X110768210Y-56959574D01*
X110768216Y-56959577D01*
X110920943Y-57000500D01*
X111079057Y-57000500D01*
X111231784Y-56959577D01*
X111368716Y-56880520D01*
X111480520Y-56768716D01*
X111528900Y-56684916D01*
X111589138Y-56619995D01*
X111671579Y-56587639D01*
X111759895Y-56594256D01*
X111836593Y-56638537D01*
X111841954Y-56643702D01*
X111938735Y-56740483D01*
X111938734Y-56740483D01*
X111938736Y-56740484D01*
X111938737Y-56740485D01*
X112035763Y-56796503D01*
X112035767Y-56796504D01*
X112035766Y-56796504D01*
X112143980Y-56825500D01*
X112143982Y-56825500D01*
X112256019Y-56825500D01*
X120058188Y-56825500D01*
X120144531Y-56845207D01*
X120213772Y-56900426D01*
X120252199Y-56980218D01*
X120252199Y-57068782D01*
X120213772Y-57148574D01*
X120189678Y-57172221D01*
X120189718Y-57172261D01*
X120071485Y-57290493D01*
X120071483Y-57290495D01*
X119994401Y-57424005D01*
X119994400Y-57424007D01*
X119986503Y-57453479D01*
X119945118Y-57531778D01*
X119873859Y-57584367D01*
X119786839Y-57600830D01*
X119721281Y-57587094D01*
X119575594Y-57529642D01*
X119575586Y-57529640D01*
X119491150Y-57519500D01*
X119491144Y-57519500D01*
X118908856Y-57519500D01*
X118908850Y-57519500D01*
X118824413Y-57529640D01*
X118824405Y-57529642D01*
X118690026Y-57582634D01*
X118564076Y-57678147D01*
X118561689Y-57674999D01*
X118508641Y-57708333D01*
X118442915Y-57719500D01*
X118057522Y-57719500D01*
X117917515Y-57757016D01*
X117917507Y-57757019D01*
X117791988Y-57829487D01*
X117791984Y-57829490D01*
X116185261Y-59436214D01*
X116110273Y-59483333D01*
X116044547Y-59494500D01*
X112642499Y-59494500D01*
X112556156Y-59474793D01*
X112486915Y-59419574D01*
X112448488Y-59339782D01*
X112443499Y-59295500D01*
X112443499Y-59043383D01*
X112440585Y-59018260D01*
X112438857Y-59014347D01*
X112395206Y-58915485D01*
X112315765Y-58836044D01*
X112315762Y-58836042D01*
X112315761Y-58836042D01*
X112212991Y-58790665D01*
X112187866Y-58787750D01*
X109812133Y-58787750D01*
X109787010Y-58790664D01*
X109684238Y-58836042D01*
X109684233Y-58836045D01*
X109604795Y-58915483D01*
X109604792Y-58915488D01*
X109559415Y-59018257D01*
X109559415Y-59018259D01*
X109556500Y-59043380D01*
X109556500Y-59466780D01*
X109548138Y-59503414D01*
X109542330Y-59540528D01*
X109538538Y-59545475D01*
X109536793Y-59553123D01*
X109492028Y-59613420D01*
X109484707Y-59620135D01*
X109406239Y-59678877D01*
X109245863Y-59839252D01*
X109242716Y-59842140D01*
X109207878Y-59861991D01*
X109173914Y-59883333D01*
X109168944Y-59884177D01*
X109165769Y-59885987D01*
X109153147Y-59886861D01*
X109108188Y-59894500D01*
X103424000Y-59894500D01*
X103334453Y-59904127D01*
X103316543Y-59906053D01*
X103316540Y-59906053D01*
X103265039Y-59917257D01*
X103265023Y-59917262D01*
X103162500Y-59951384D01*
X103141253Y-59965039D01*
X103041457Y-60029175D01*
X103041453Y-60029178D01*
X103041452Y-60029179D01*
X102988656Y-60074927D01*
X102894433Y-60183663D01*
X102834663Y-60314538D01*
X102834659Y-60314548D01*
X102814978Y-60381572D01*
X102814977Y-60381577D01*
X102814977Y-60381580D01*
X102814976Y-60381584D01*
X102812012Y-60402203D01*
X102794500Y-60524003D01*
X102794500Y-61054547D01*
X102774793Y-61140890D01*
X102736214Y-61195261D01*
X102420261Y-61511214D01*
X102345273Y-61558333D01*
X102279547Y-61569500D01*
X102104240Y-61569500D01*
X102020609Y-61579543D01*
X102020603Y-61579544D01*
X101887504Y-61632032D01*
X101887495Y-61632037D01*
X101773489Y-61718489D01*
X101687037Y-61832495D01*
X101687032Y-61832504D01*
X101634545Y-61965602D01*
X101634544Y-61965605D01*
X101624500Y-62049239D01*
X101624500Y-62224547D01*
X101604793Y-62310890D01*
X101566214Y-62365261D01*
X100984490Y-62946984D01*
X100984489Y-62946985D01*
X100933603Y-63035122D01*
X100933604Y-63035123D01*
X100912017Y-63072513D01*
X100912016Y-63072515D01*
X100874500Y-63212522D01*
X100874500Y-69297477D01*
X100895738Y-69376734D01*
X100896747Y-69380500D01*
X100899423Y-69390487D01*
X100912017Y-69437488D01*
X100984487Y-69563011D01*
X100984490Y-69563015D01*
X103181261Y-71759786D01*
X103228380Y-71834774D01*
X103238296Y-71922781D01*
X103209045Y-72006374D01*
X103146421Y-72068998D01*
X103062828Y-72098249D01*
X103040547Y-72099500D01*
X102111812Y-72099500D01*
X102025469Y-72079793D01*
X101981493Y-72050893D01*
X101916336Y-71994433D01*
X101785459Y-71934662D01*
X101785457Y-71934661D01*
X101785451Y-71934659D01*
X101718427Y-71914978D01*
X101718422Y-71914977D01*
X101718417Y-71914976D01*
X101718416Y-71914976D01*
X101576000Y-71894500D01*
X100534272Y-71894500D01*
X100447929Y-71874793D01*
X100378688Y-71819574D01*
X100340261Y-71739782D01*
X100335273Y-71694902D01*
X100387602Y-54479057D01*
X100393926Y-52398395D01*
X100413895Y-52312113D01*
X100469324Y-52243039D01*
X100549233Y-52204856D01*
X100592925Y-52200000D01*
X101200000Y-52200000D01*
X101200000Y-50999500D01*
X101219707Y-50913157D01*
X101274926Y-50843916D01*
X101354718Y-50805489D01*
X101399000Y-50800500D01*
X113602068Y-50800500D01*
X113688411Y-50820207D01*
G37*
%TD.AperFunction*%
%TA.AperFunction,Conductor*%
G36*
X129506996Y-94819869D02*
G01*
X129506996Y-94863281D01*
X129506571Y-94864162D01*
X129506562Y-94865140D01*
X129500397Y-94876982D01*
X129468569Y-94943073D01*
X129467372Y-94944560D01*
X129464660Y-94947893D01*
X129431197Y-94985597D01*
X129431196Y-94985599D01*
X129419182Y-95003811D01*
X129419176Y-95003820D01*
X129379084Y-95064603D01*
X129353679Y-95095747D01*
X129208803Y-95240621D01*
X129133814Y-95287739D01*
X129045808Y-95297655D01*
X129036962Y-95296456D01*
X128929898Y-95279500D01*
X128929897Y-95279500D01*
X128670103Y-95279500D01*
X128670102Y-95279500D01*
X128563032Y-95296457D01*
X128558487Y-95296150D01*
X128554185Y-95297656D01*
X128514501Y-95293184D01*
X128474670Y-95290499D01*
X128470707Y-95288250D01*
X128466178Y-95287740D01*
X128432366Y-95266494D01*
X128397643Y-95246791D01*
X128391207Y-95240637D01*
X128187551Y-95036982D01*
X128174782Y-95022246D01*
X128174686Y-95022330D01*
X128159936Y-95005308D01*
X128124275Y-94964153D01*
X128124272Y-94964150D01*
X128124270Y-94964148D01*
X128119835Y-94959713D01*
X128072716Y-94884725D01*
X128063170Y-94800000D01*
X129507186Y-94800000D01*
X129506996Y-94819869D01*
G37*
%TD.AperFunction*%
%TA.AperFunction,Conductor*%
G36*
X104846740Y-93372626D02*
G01*
X104939762Y-93511844D01*
X105058156Y-93630238D01*
X105197374Y-93723260D01*
X105349437Y-93786247D01*
X104747975Y-94387708D01*
X104966613Y-94499111D01*
X104966626Y-94499117D01*
X105213621Y-94579370D01*
X105213628Y-94579371D01*
X105400000Y-94608890D01*
X105400000Y-94800000D01*
X107189318Y-94800000D01*
X107072303Y-94872176D01*
X107018663Y-94916944D01*
X107018661Y-94916946D01*
X106922448Y-95023914D01*
X106922447Y-95023915D01*
X106922447Y-95023916D01*
X106860263Y-95153665D01*
X106860261Y-95153668D01*
X106857192Y-95160074D01*
X106856165Y-95159582D01*
X106810327Y-95226589D01*
X106733560Y-95270751D01*
X106675201Y-95279500D01*
X104538665Y-95279500D01*
X104452322Y-95259793D01*
X104383081Y-95204574D01*
X104364020Y-95175895D01*
X104354607Y-95158663D01*
X104332066Y-95086613D01*
X104252158Y-94966962D01*
X104246380Y-94960527D01*
X104236867Y-94943110D01*
X104236310Y-94941141D01*
X104233521Y-94936711D01*
X104126509Y-94722687D01*
X104105522Y-94636646D01*
X104105500Y-94633691D01*
X104105500Y-93981242D01*
X104125207Y-93894899D01*
X104163786Y-93840528D01*
X104783752Y-93220561D01*
X104846740Y-93372626D01*
G37*
%TD.AperFunction*%
%TA.AperFunction,Conductor*%
G36*
X110825259Y-94822772D02*
G01*
X110825301Y-94824847D01*
X110826202Y-94826718D01*
X110826202Y-94869031D01*
X110827064Y-94911317D01*
X110826202Y-94913204D01*
X110826202Y-94915282D01*
X110807850Y-94953387D01*
X110790273Y-94991877D01*
X110788674Y-94993205D01*
X110787775Y-94995074D01*
X110754710Y-95021442D01*
X110722171Y-95048495D01*
X110720158Y-95048997D01*
X110718534Y-95050293D01*
X110677286Y-95059707D01*
X110636248Y-95069959D01*
X110632191Y-95070000D01*
X110308797Y-95070000D01*
X110222454Y-95050293D01*
X110198244Y-95036466D01*
X110150232Y-95004385D01*
X110150231Y-95004385D01*
X110135377Y-94994460D01*
X110129549Y-94990413D01*
X110097025Y-94966962D01*
X110085641Y-94958754D01*
X110085640Y-94958753D01*
X110085638Y-94958752D01*
X110085636Y-94958751D01*
X110023735Y-94926374D01*
X110023734Y-94926373D01*
X110023731Y-94926372D01*
X110023725Y-94926370D01*
X110023723Y-94926369D01*
X109983798Y-94912285D01*
X109973846Y-94908471D01*
X109878375Y-94868926D01*
X109844398Y-94850788D01*
X109844383Y-94850811D01*
X109840048Y-94847944D01*
X109838138Y-94846693D01*
X109834655Y-94844434D01*
X109834650Y-94844431D01*
X109737362Y-94800000D01*
X110813715Y-94800000D01*
X110825259Y-94822772D01*
G37*
%TD.AperFunction*%
%TA.AperFunction,Conductor*%
G36*
X113482332Y-94822772D02*
G01*
X113484137Y-94911317D01*
X113447346Y-94991877D01*
X113379244Y-95048495D01*
X113293321Y-95069959D01*
X113289264Y-95070000D01*
X112312104Y-95070000D01*
X112225761Y-95050293D01*
X112156520Y-94995074D01*
X112118093Y-94915282D01*
X112118093Y-94826718D01*
X112130960Y-94800000D01*
X113470788Y-94800000D01*
X113482332Y-94822772D01*
G37*
%TD.AperFunction*%
%TA.AperFunction,Conductor*%
G36*
X115955951Y-94850589D02*
G01*
X115949774Y-94854107D01*
X115949675Y-94853934D01*
X115921630Y-94868923D01*
X115824027Y-94909352D01*
X115817429Y-94911948D01*
X115766100Y-94931096D01*
X115766096Y-94931098D01*
X115704778Y-94964584D01*
X115671202Y-94989720D01*
X115662504Y-94995875D01*
X115601759Y-95036463D01*
X115519018Y-95068046D01*
X115491201Y-95070000D01*
X115173096Y-95070000D01*
X115086753Y-95050293D01*
X115017512Y-94995074D01*
X114979085Y-94915282D01*
X114979085Y-94826718D01*
X114991952Y-94800000D01*
X116061687Y-94800000D01*
X115955951Y-94850589D01*
G37*
%TD.AperFunction*%
%TA.AperFunction,Conductor*%
G36*
X119755949Y-94850591D02*
G01*
X119743687Y-94858783D01*
X119730254Y-94865109D01*
X119727732Y-94865661D01*
X119721631Y-94868922D01*
X119704158Y-94876160D01*
X119666831Y-94887485D01*
X119657345Y-94889372D01*
X119648280Y-94891175D01*
X119609453Y-94895000D01*
X119590545Y-94895000D01*
X119551718Y-94891175D01*
X119529007Y-94886657D01*
X119499963Y-94878550D01*
X119473435Y-94868925D01*
X119470809Y-94867972D01*
X119461663Y-94865109D01*
X119449723Y-94861371D01*
X119406154Y-94849836D01*
X119262641Y-94839569D01*
X119262639Y-94839569D01*
X119234853Y-94841555D01*
X119192953Y-94844552D01*
X119192943Y-94844553D01*
X119192941Y-94844553D01*
X119192934Y-94844554D01*
X119052348Y-94875137D01*
X119032739Y-94882452D01*
X118963195Y-94894999D01*
X118467143Y-94894999D01*
X118380800Y-94875292D01*
X118353646Y-94859459D01*
X118346425Y-94854446D01*
X118331439Y-94844433D01*
X118331435Y-94844431D01*
X118331434Y-94844430D01*
X118234148Y-94800000D01*
X119861690Y-94800000D01*
X119755949Y-94850591D01*
G37*
%TD.AperFunction*%
%TA.AperFunction,Conductor*%
G36*
X124755951Y-94850589D02*
G01*
X124749774Y-94854107D01*
X124749675Y-94853934D01*
X124721631Y-94868922D01*
X124704158Y-94876160D01*
X124666831Y-94887485D01*
X124657345Y-94889372D01*
X124648280Y-94891175D01*
X124609453Y-94895000D01*
X124590550Y-94895000D01*
X124551717Y-94891174D01*
X124533161Y-94887482D01*
X124495841Y-94876160D01*
X124478374Y-94868925D01*
X124444391Y-94850798D01*
X124444383Y-94850811D01*
X124444247Y-94850721D01*
X124444243Y-94850719D01*
X124444113Y-94850632D01*
X124440048Y-94847944D01*
X124438138Y-94846693D01*
X124434655Y-94844434D01*
X124434650Y-94844431D01*
X124337362Y-94800000D01*
X124861687Y-94800000D01*
X124755951Y-94850589D01*
G37*
%TD.AperFunction*%
%TA.AperFunction,Conductor*%
G36*
X127147570Y-94813997D02*
G01*
X127101277Y-94836144D01*
X127096268Y-94838007D01*
X127004151Y-94876163D01*
X126966823Y-94887486D01*
X126948276Y-94891176D01*
X126909453Y-94895000D01*
X126890550Y-94895000D01*
X126851717Y-94891174D01*
X126833161Y-94887482D01*
X126795841Y-94876160D01*
X126778374Y-94868925D01*
X126744391Y-94850798D01*
X126744383Y-94850811D01*
X126744247Y-94850721D01*
X126744243Y-94850719D01*
X126744113Y-94850632D01*
X126740048Y-94847944D01*
X126738138Y-94846693D01*
X126734655Y-94844434D01*
X126734650Y-94844431D01*
X126637362Y-94800000D01*
X127192269Y-94800000D01*
X127147570Y-94813997D01*
G37*
%TD.AperFunction*%
%TA.AperFunction,Conductor*%
G36*
X105778574Y-86948582D02*
G01*
X105826839Y-87004666D01*
X105852861Y-87049739D01*
X105859515Y-87061263D01*
X106225917Y-87427665D01*
X106536214Y-87737961D01*
X106583333Y-87812949D01*
X106594500Y-87878675D01*
X106594500Y-89476000D01*
X106603023Y-89555273D01*
X106606053Y-89583456D01*
X106606053Y-89583459D01*
X106617257Y-89634960D01*
X106617262Y-89634976D01*
X106651384Y-89737499D01*
X106651386Y-89737503D01*
X106651387Y-89737504D01*
X106729175Y-89858543D01*
X106774930Y-89911347D01*
X106883664Y-90005567D01*
X107014541Y-90065338D01*
X107014548Y-90065340D01*
X107081572Y-90085021D01*
X107081575Y-90085021D01*
X107081580Y-90085023D01*
X107081584Y-90085024D01*
X107224000Y-90105500D01*
X107224003Y-90105500D01*
X109175995Y-90105500D01*
X109176000Y-90105500D01*
X109283456Y-90093947D01*
X109334967Y-90082741D01*
X109411811Y-90057164D01*
X109437499Y-90048615D01*
X109437500Y-90048614D01*
X109437504Y-90048613D01*
X109558543Y-89970825D01*
X109611347Y-89925070D01*
X109705567Y-89816336D01*
X109765338Y-89685459D01*
X109785023Y-89618420D01*
X109785024Y-89618416D01*
X109805500Y-89476000D01*
X109805500Y-88955148D01*
X109808145Y-88943557D01*
X109806882Y-88931735D01*
X109817901Y-88900811D01*
X109825207Y-88868805D01*
X109836611Y-88848310D01*
X109927612Y-88705307D01*
X109990592Y-88643045D01*
X110074352Y-88614274D01*
X110162300Y-88624694D01*
X110237018Y-88672241D01*
X110283706Y-88747498D01*
X110294500Y-88812147D01*
X110294500Y-90373482D01*
X110304213Y-90472098D01*
X110313650Y-90519540D01*
X110313654Y-90519556D01*
X110338057Y-90600000D01*
X105400000Y-90600000D01*
X105400000Y-91331109D01*
X105213628Y-91360628D01*
X105213621Y-91360629D01*
X104966626Y-91440882D01*
X104966613Y-91440888D01*
X104747976Y-91552290D01*
X105349438Y-92153752D01*
X105197374Y-92216740D01*
X105058156Y-92309762D01*
X104939762Y-92428156D01*
X104846740Y-92567374D01*
X104783752Y-92719437D01*
X104163786Y-92099471D01*
X104146022Y-92071201D01*
X104125207Y-92045100D01*
X104122688Y-92034066D01*
X104116667Y-92024483D01*
X104105500Y-91958757D01*
X104105500Y-90649628D01*
X104125207Y-90563285D01*
X104166462Y-90506287D01*
X105262648Y-89450703D01*
X105302619Y-89407450D01*
X105320922Y-89385169D01*
X105320928Y-89385160D01*
X105320938Y-89385148D01*
X105355562Y-89337604D01*
X105355562Y-89337603D01*
X105355567Y-89337597D01*
X105358740Y-89330651D01*
X105410161Y-89218056D01*
X105415338Y-89206720D01*
X105435023Y-89139681D01*
X105435024Y-89139677D01*
X105455500Y-88997261D01*
X105455500Y-87104166D01*
X105475207Y-87017823D01*
X105530426Y-86948582D01*
X105610218Y-86910155D01*
X105698782Y-86910155D01*
X105778574Y-86948582D01*
G37*
%TD.AperFunction*%
%TA.AperFunction,Conductor*%
G36*
X115828574Y-89168868D02*
G01*
X115845214Y-89183738D01*
X115917139Y-89255663D01*
X115964258Y-89330651D01*
X115974174Y-89418658D01*
X115972976Y-89427499D01*
X115969500Y-89449451D01*
X115969500Y-89630545D01*
X115997828Y-89809407D01*
X115997831Y-89809418D01*
X116053786Y-89981632D01*
X116053794Y-89981651D01*
X116136000Y-90142988D01*
X116136003Y-90142992D01*
X116136004Y-90142994D01*
X116242447Y-90289501D01*
X116370499Y-90417553D01*
X116517006Y-90523996D01*
X116517008Y-90523997D01*
X116517011Y-90523999D01*
X116666170Y-90600000D01*
X115505500Y-90600000D01*
X115505500Y-89324452D01*
X115525207Y-89238109D01*
X115580426Y-89168868D01*
X115660218Y-89130441D01*
X115748782Y-89130441D01*
X115828574Y-89168868D01*
G37*
%TD.AperFunction*%
%TA.AperFunction,Conductor*%
G36*
X128377555Y-85013740D02*
G01*
X128408233Y-85015971D01*
X128424609Y-85023857D01*
X128434073Y-85025892D01*
X128465630Y-85040601D01*
X128477235Y-85052206D01*
X128580009Y-85097585D01*
X128590490Y-85098800D01*
X128614336Y-85109916D01*
X128684269Y-85164256D01*
X128723699Y-85243557D01*
X128724817Y-85332113D01*
X128687401Y-85412385D01*
X128629763Y-85462623D01*
X128531285Y-85519479D01*
X128531283Y-85519480D01*
X128419480Y-85631283D01*
X128419477Y-85631287D01*
X128340427Y-85768206D01*
X128340422Y-85768218D01*
X128299500Y-85920942D01*
X128299500Y-86079057D01*
X128332946Y-86203880D01*
X128333508Y-86218906D01*
X128338476Y-86233103D01*
X128335145Y-86262659D01*
X128336258Y-86292382D01*
X128330243Y-86306166D01*
X128328560Y-86321109D01*
X128312737Y-86346290D01*
X128300842Y-86373555D01*
X128281442Y-86396098D01*
X128194506Y-86483035D01*
X128194503Y-86483038D01*
X127487964Y-87189574D01*
X127487952Y-87189588D01*
X127419505Y-87258036D01*
X127383041Y-87321193D01*
X127373751Y-87332848D01*
X127350487Y-87351407D01*
X127330243Y-87373225D01*
X127316260Y-87378712D01*
X127304520Y-87388079D01*
X127275508Y-87394706D01*
X127247802Y-87405580D01*
X127232823Y-87404457D01*
X127218181Y-87407802D01*
X127189162Y-87401184D01*
X127159486Y-87398960D01*
X127146480Y-87391450D01*
X127131834Y-87388111D01*
X127108560Y-87369557D01*
X127082788Y-87354678D01*
X127064353Y-87334316D01*
X127062582Y-87332905D01*
X127062021Y-87331741D01*
X127059580Y-87329045D01*
X127042923Y-87307079D01*
X127017216Y-87287585D01*
X126922342Y-87215639D01*
X126922334Y-87215635D01*
X126781568Y-87160124D01*
X126781560Y-87160122D01*
X126693107Y-87149500D01*
X126693102Y-87149500D01*
X124606898Y-87149500D01*
X124606893Y-87149500D01*
X124518439Y-87160122D01*
X124518431Y-87160124D01*
X124377665Y-87215635D01*
X124377657Y-87215639D01*
X124257078Y-87307078D01*
X124165639Y-87427657D01*
X124165635Y-87427665D01*
X124110124Y-87568431D01*
X124110122Y-87568439D01*
X124099500Y-87656892D01*
X124099500Y-89489546D01*
X124079793Y-89575889D01*
X124041214Y-89630260D01*
X123647653Y-90023820D01*
X123572664Y-90070939D01*
X123484658Y-90080855D01*
X123401064Y-90051604D01*
X123338441Y-89988980D01*
X123309190Y-89905387D01*
X123317681Y-89821604D01*
X123321684Y-89809284D01*
X123350000Y-89630506D01*
X123350000Y-89449493D01*
X123321684Y-89270714D01*
X123321682Y-89270705D01*
X123265749Y-89098559D01*
X123265743Y-89098546D01*
X123245961Y-89059723D01*
X122700000Y-89605685D01*
X122700000Y-89474174D01*
X122665925Y-89347007D01*
X122600099Y-89232993D01*
X122507007Y-89139901D01*
X122392993Y-89074075D01*
X122265826Y-89040000D01*
X122134174Y-89040000D01*
X122007007Y-89074075D01*
X121892993Y-89139901D01*
X121799901Y-89232993D01*
X121734075Y-89347007D01*
X121700000Y-89474174D01*
X121700000Y-89605826D01*
X121734075Y-89732993D01*
X121799901Y-89847007D01*
X121892993Y-89940099D01*
X122007007Y-90005925D01*
X122134174Y-90040000D01*
X122265685Y-90040000D01*
X121714470Y-90591214D01*
X121700487Y-90600000D01*
X120600000Y-90600000D01*
X120534281Y-90600000D01*
X120502398Y-90574574D01*
X120463971Y-90494782D01*
X120463971Y-90406218D01*
X120502398Y-90326426D01*
X120517268Y-90309786D01*
X120524806Y-90302248D01*
X120537553Y-90289501D01*
X120643996Y-90142994D01*
X120706930Y-90019480D01*
X120726205Y-89981651D01*
X120726205Y-89981650D01*
X120726211Y-89981639D01*
X120741003Y-89936111D01*
X120786426Y-89860087D01*
X120860338Y-89811297D01*
X120948100Y-89799408D01*
X121032329Y-89826775D01*
X121096342Y-89887977D01*
X121119523Y-89936113D01*
X121134250Y-89981438D01*
X121134251Y-89981440D01*
X121154037Y-90020275D01*
X121634314Y-89540000D01*
X121634314Y-89539999D01*
X121154037Y-89059723D01*
X121134252Y-89098554D01*
X121119524Y-89143885D01*
X121074100Y-89219913D01*
X121000188Y-89268702D01*
X120912426Y-89280591D01*
X120828197Y-89253224D01*
X120764184Y-89192022D01*
X120741003Y-89143886D01*
X120726213Y-89098367D01*
X120726212Y-89098364D01*
X120726211Y-89098361D01*
X120726207Y-89098355D01*
X120726205Y-89098348D01*
X120643999Y-88937011D01*
X120643997Y-88937008D01*
X120643996Y-88937006D01*
X120537553Y-88790499D01*
X120409501Y-88662447D01*
X120262994Y-88556004D01*
X120262992Y-88556003D01*
X120262988Y-88556000D01*
X120101651Y-88473794D01*
X120101632Y-88473786D01*
X120056923Y-88459260D01*
X119980896Y-88413837D01*
X119932107Y-88339924D01*
X119920218Y-88252163D01*
X119947585Y-88167934D01*
X120008788Y-88103920D01*
X120056923Y-88080740D01*
X120071260Y-88076081D01*
X120101639Y-88066211D01*
X120262994Y-87983996D01*
X120409501Y-87877553D01*
X120537553Y-87749501D01*
X120643996Y-87602994D01*
X120726211Y-87441639D01*
X120738292Y-87404457D01*
X120740740Y-87396923D01*
X120786163Y-87320896D01*
X120860076Y-87272107D01*
X120947837Y-87260218D01*
X121032066Y-87287585D01*
X121096080Y-87348788D01*
X121119260Y-87396923D01*
X121133786Y-87441632D01*
X121133794Y-87441651D01*
X121216000Y-87602988D01*
X121216003Y-87602992D01*
X121216004Y-87602994D01*
X121322447Y-87749501D01*
X121450499Y-87877553D01*
X121597006Y-87983996D01*
X121597008Y-87983997D01*
X121597011Y-87983999D01*
X121758348Y-88066205D01*
X121758355Y-88066207D01*
X121758361Y-88066211D01*
X121758366Y-88066212D01*
X121758367Y-88066213D01*
X121803886Y-88081003D01*
X121879913Y-88126427D01*
X121928703Y-88200339D01*
X121940591Y-88288101D01*
X121913223Y-88372330D01*
X121852021Y-88436343D01*
X121803885Y-88459524D01*
X121758554Y-88474252D01*
X121719723Y-88494037D01*
X122200000Y-88974314D01*
X122200001Y-88974314D01*
X122680275Y-88494037D01*
X122641440Y-88474251D01*
X122641438Y-88474250D01*
X122596113Y-88459523D01*
X122520086Y-88414099D01*
X122471296Y-88340187D01*
X122459408Y-88252425D01*
X122486776Y-88168196D01*
X122547978Y-88104183D01*
X122596109Y-88081004D01*
X122641639Y-88066211D01*
X122802994Y-87983996D01*
X122949501Y-87877553D01*
X123077553Y-87749501D01*
X123183996Y-87602994D01*
X123266211Y-87441639D01*
X123322171Y-87269409D01*
X123350500Y-87090546D01*
X123350500Y-86909454D01*
X123331057Y-86786696D01*
X123337015Y-86698335D01*
X123380721Y-86621308D01*
X123386871Y-86614875D01*
X124842962Y-85158785D01*
X124917951Y-85111666D01*
X124934590Y-85106648D01*
X124958749Y-85100499D01*
X125094864Y-85100499D01*
X125119991Y-85097585D01*
X125222765Y-85052206D01*
X125248126Y-85026844D01*
X125300914Y-85013409D01*
X125310750Y-85013164D01*
X125319903Y-85009549D01*
X125354640Y-85012074D01*
X125389450Y-85011210D01*
X125398417Y-85015257D01*
X125408233Y-85015971D01*
X125462466Y-85042088D01*
X125477231Y-85052202D01*
X125477235Y-85052206D01*
X125580009Y-85097585D01*
X125605135Y-85100500D01*
X126594864Y-85100499D01*
X126594866Y-85100499D01*
X126607427Y-85099042D01*
X126619991Y-85097585D01*
X126722765Y-85052206D01*
X126722770Y-85052200D01*
X126737534Y-85042088D01*
X126819903Y-85009549D01*
X126908233Y-85015971D01*
X126962466Y-85042088D01*
X126977231Y-85052202D01*
X126977235Y-85052206D01*
X127080009Y-85097585D01*
X127105135Y-85100500D01*
X128094864Y-85100499D01*
X128094866Y-85100499D01*
X128107427Y-85099042D01*
X128119991Y-85097585D01*
X128222765Y-85052206D01*
X128222770Y-85052200D01*
X128237534Y-85042088D01*
X128250560Y-85036941D01*
X128261401Y-85028071D01*
X128291297Y-85020849D01*
X128319903Y-85009549D01*
X128333873Y-85010564D01*
X128347488Y-85007276D01*
X128377555Y-85013740D01*
G37*
%TD.AperFunction*%
%TA.AperFunction,Conductor*%
G36*
X115173256Y-78370207D02*
G01*
X115242497Y-78425426D01*
X115280924Y-78505218D01*
X115280924Y-78593782D01*
X115259252Y-78649000D01*
X115190426Y-78768209D01*
X115190422Y-78768218D01*
X115149500Y-78920942D01*
X115149500Y-79079057D01*
X115192719Y-79240353D01*
X115199500Y-79291858D01*
X115199500Y-83912728D01*
X115179793Y-83999071D01*
X115124574Y-84068312D01*
X115044782Y-84106739D01*
X114956218Y-84106739D01*
X114876426Y-84068312D01*
X114850106Y-84043045D01*
X114829891Y-84019716D01*
X114825070Y-84014152D01*
X114716336Y-83919932D01*
X114585459Y-83860161D01*
X114585457Y-83860160D01*
X114585451Y-83860158D01*
X114519023Y-83840652D01*
X114519015Y-83840650D01*
X114518420Y-83840476D01*
X114518416Y-83840475D01*
X114497883Y-83837522D01*
X114474991Y-83827415D01*
X114449865Y-83824500D01*
X114407306Y-83824500D01*
X114393081Y-83822454D01*
X114377982Y-83820284D01*
X114376000Y-83819999D01*
X113924000Y-83819999D01*
X113923995Y-83819999D01*
X113922971Y-83820109D01*
X113922649Y-83820071D01*
X113918673Y-83820284D01*
X113918636Y-83819597D01*
X113835017Y-83809736D01*
X113760275Y-83762228D01*
X113713546Y-83686996D01*
X113704163Y-83599641D01*
X113550000Y-83445477D01*
X113398553Y-83596924D01*
X113451796Y-83607515D01*
X113532635Y-83643688D01*
X113589774Y-83711353D01*
X113611895Y-83797110D01*
X113594617Y-83883971D01*
X113543291Y-83953084D01*
X113488656Y-84000425D01*
X113394433Y-84109162D01*
X113334663Y-84240037D01*
X113334659Y-84240047D01*
X113314978Y-84307071D01*
X113314977Y-84307076D01*
X113314977Y-84307079D01*
X113314976Y-84307083D01*
X113294500Y-84449499D01*
X113294500Y-86384734D01*
X113298287Y-86446493D01*
X113301989Y-86476567D01*
X113306983Y-86503443D01*
X113312858Y-86535061D01*
X113313295Y-86537410D01*
X113471318Y-87169504D01*
X113488558Y-87238461D01*
X113494500Y-87286726D01*
X113494500Y-88733633D01*
X113474793Y-88819976D01*
X113427708Y-88882367D01*
X113372170Y-88931735D01*
X113030367Y-89235559D01*
X112952741Y-89278192D01*
X112864304Y-89282923D01*
X112782573Y-89248814D01*
X112749187Y-89218048D01*
X112749180Y-89218056D01*
X112749044Y-89217916D01*
X112746133Y-89215234D01*
X112744219Y-89212968D01*
X112744211Y-89212960D01*
X112372292Y-88882365D01*
X112320851Y-88810273D01*
X112305500Y-88733631D01*
X112305500Y-87286726D01*
X112311442Y-87238461D01*
X112321057Y-87200000D01*
X112350000Y-87200000D01*
X112350000Y-88250000D01*
X113450000Y-88250000D01*
X113450000Y-87200000D01*
X113250000Y-86400000D01*
X113250000Y-84050000D01*
X112550000Y-84050000D01*
X112550000Y-86400000D01*
X112350000Y-87200000D01*
X112321057Y-87200000D01*
X112486705Y-86537410D01*
X112498011Y-86476567D01*
X112501713Y-86446493D01*
X112505500Y-86384734D01*
X112505500Y-84449499D01*
X112493947Y-84342043D01*
X112482741Y-84290532D01*
X112464292Y-84235101D01*
X112448615Y-84187999D01*
X112448613Y-84187996D01*
X112448613Y-84187995D01*
X112370825Y-84066956D01*
X112325070Y-84014152D01*
X112254988Y-83953424D01*
X112202642Y-83881989D01*
X112186474Y-83794914D01*
X112209687Y-83709447D01*
X112267684Y-83642516D01*
X112346485Y-83607857D01*
X112401445Y-83596924D01*
X112250000Y-83445477D01*
X112091465Y-83604011D01*
X112094887Y-83652730D01*
X112062147Y-83735019D01*
X111996944Y-83794953D01*
X111912194Y-83820662D01*
X111883154Y-83819617D01*
X111883091Y-83820506D01*
X111876001Y-83819999D01*
X111876000Y-83819999D01*
X111424000Y-83819999D01*
X111423996Y-83819999D01*
X111392730Y-83823360D01*
X111374123Y-83824482D01*
X111372766Y-83824500D01*
X111320136Y-83824501D01*
X111313282Y-83825295D01*
X111303105Y-83825432D01*
X111269458Y-83818224D01*
X111235252Y-83814469D01*
X111226544Y-83809032D01*
X111216506Y-83806882D01*
X111189316Y-83785787D01*
X111160130Y-83767564D01*
X111154643Y-83758887D01*
X111146532Y-83752594D01*
X111131188Y-83721794D01*
X111112798Y-83692710D01*
X111111619Y-83682511D01*
X111107042Y-83673323D01*
X111106581Y-83638911D01*
X111102632Y-83604732D01*
X111103600Y-83600000D01*
X111900000Y-83600000D01*
X111900000Y-82967179D01*
X112085000Y-82967179D01*
X112085000Y-83032821D01*
X112110119Y-83093465D01*
X112156535Y-83139881D01*
X112217179Y-83165000D01*
X112282821Y-83165000D01*
X112343465Y-83139881D01*
X112389881Y-83093465D01*
X112415000Y-83032821D01*
X112415000Y-82999999D01*
X112695477Y-82999999D01*
X112847945Y-83152467D01*
X112930576Y-83146663D01*
X112952787Y-83151732D01*
X113104521Y-82999999D01*
X113071701Y-82967179D01*
X113385000Y-82967179D01*
X113385000Y-83032821D01*
X113410119Y-83093465D01*
X113456535Y-83139881D01*
X113517179Y-83165000D01*
X113582821Y-83165000D01*
X113643465Y-83139881D01*
X113689881Y-83093465D01*
X113715000Y-83032821D01*
X113715000Y-82999999D01*
X113995477Y-82999999D01*
X114146924Y-83151445D01*
X114165000Y-83060576D01*
X114165000Y-82939424D01*
X114146924Y-82848553D01*
X113995477Y-82999999D01*
X113715000Y-82999999D01*
X113715000Y-82967179D01*
X113689881Y-82906535D01*
X113643465Y-82860119D01*
X113582821Y-82835000D01*
X113517179Y-82835000D01*
X113456535Y-82860119D01*
X113410119Y-82906535D01*
X113385000Y-82967179D01*
X113071701Y-82967179D01*
X112952053Y-82847530D01*
X112945848Y-82847966D01*
X112934847Y-82852623D01*
X112902115Y-82851038D01*
X112869420Y-82853335D01*
X112858317Y-82848917D01*
X112847102Y-82848374D01*
X112695477Y-82999999D01*
X112415000Y-82999999D01*
X112415000Y-82967179D01*
X112389881Y-82906535D01*
X112343465Y-82860119D01*
X112282821Y-82835000D01*
X112217179Y-82835000D01*
X112156535Y-82860119D01*
X112110119Y-82906535D01*
X112085000Y-82967179D01*
X111900000Y-82967179D01*
X111900000Y-82297946D01*
X112097530Y-82297946D01*
X112103334Y-82380579D01*
X112098265Y-82402787D01*
X112249999Y-82554521D01*
X112402467Y-82402052D01*
X112396663Y-82319421D01*
X112401564Y-82297946D01*
X113397530Y-82297946D01*
X113403334Y-82380579D01*
X113398265Y-82402787D01*
X113549999Y-82554521D01*
X113702467Y-82402052D01*
X113696663Y-82319421D01*
X113701732Y-82297210D01*
X113550000Y-82145477D01*
X113397530Y-82297946D01*
X112401564Y-82297946D01*
X112401732Y-82297210D01*
X112250000Y-82145477D01*
X112097530Y-82297946D01*
X111900000Y-82297946D01*
X111900000Y-81667179D01*
X112085000Y-81667179D01*
X112085000Y-81732821D01*
X112110119Y-81793465D01*
X112156535Y-81839881D01*
X112217179Y-81865000D01*
X112282821Y-81865000D01*
X112343465Y-81839881D01*
X112389881Y-81793465D01*
X112415000Y-81732821D01*
X112415000Y-81699999D01*
X112695477Y-81699999D01*
X112847945Y-81852467D01*
X112930576Y-81846663D01*
X112952787Y-81851732D01*
X113104521Y-81699999D01*
X113071701Y-81667179D01*
X113385000Y-81667179D01*
X113385000Y-81732821D01*
X113410119Y-81793465D01*
X113456535Y-81839881D01*
X113517179Y-81865000D01*
X113582821Y-81865000D01*
X113643465Y-81839881D01*
X113689881Y-81793465D01*
X113715000Y-81732821D01*
X113715000Y-81699999D01*
X113995477Y-81699999D01*
X114146924Y-81851445D01*
X114165000Y-81760576D01*
X114165000Y-81639424D01*
X114146924Y-81548553D01*
X113995477Y-81699999D01*
X113715000Y-81699999D01*
X113715000Y-81667179D01*
X113689881Y-81606535D01*
X113643465Y-81560119D01*
X113582821Y-81535000D01*
X113517179Y-81535000D01*
X113456535Y-81560119D01*
X113410119Y-81606535D01*
X113385000Y-81667179D01*
X113071701Y-81667179D01*
X112952053Y-81547530D01*
X112869420Y-81553335D01*
X112847211Y-81548265D01*
X112695477Y-81699999D01*
X112415000Y-81699999D01*
X112415000Y-81667179D01*
X112389881Y-81606535D01*
X112343465Y-81560119D01*
X112282821Y-81535000D01*
X112217179Y-81535000D01*
X112156535Y-81560119D01*
X112110119Y-81606535D01*
X112085000Y-81667179D01*
X111900000Y-81667179D01*
X111900000Y-81000000D01*
X111120905Y-81000000D01*
X111136547Y-80960684D01*
X111201748Y-80900749D01*
X111286498Y-80875039D01*
X111314358Y-80875675D01*
X111314388Y-80875168D01*
X111320118Y-80875498D01*
X111320135Y-80875500D01*
X111899266Y-80875499D01*
X111985609Y-80895206D01*
X112054850Y-80950424D01*
X112093277Y-81030217D01*
X112093277Y-81097799D01*
X112249999Y-81254521D01*
X112346293Y-81158227D01*
X113453704Y-81158227D01*
X113549999Y-81254521D01*
X113701445Y-81103075D01*
X113610572Y-81085000D01*
X113582881Y-81085000D01*
X113453704Y-81158227D01*
X112346293Y-81158227D01*
X112407804Y-81096716D01*
X112404095Y-81043923D01*
X112436835Y-80961633D01*
X112502036Y-80901698D01*
X112586786Y-80875988D01*
X112600703Y-80875499D01*
X113179864Y-80875499D01*
X113204991Y-80872585D01*
X113307765Y-80827206D01*
X113387206Y-80747765D01*
X113432585Y-80644991D01*
X113435500Y-80619865D01*
X113435499Y-78748674D01*
X113442927Y-78716127D01*
X113446666Y-78682949D01*
X113452687Y-78673365D01*
X113455206Y-78662332D01*
X113493780Y-78607966D01*
X113692963Y-78408783D01*
X113767950Y-78361667D01*
X113833675Y-78350500D01*
X115086913Y-78350500D01*
X115173256Y-78370207D01*
G37*
%TD.AperFunction*%
%TA.AperFunction,Conductor*%
G36*
X108937928Y-84748850D02*
G01*
X108875892Y-84812056D01*
X108792575Y-84842086D01*
X108731884Y-84835821D01*
X108089897Y-85007841D01*
X108276606Y-85704649D01*
X108277956Y-85740741D01*
X108282335Y-85776586D01*
X108279599Y-85784643D01*
X108279918Y-85793150D01*
X108253867Y-85860449D01*
X108075809Y-86149795D01*
X108013774Y-86213001D01*
X107930457Y-86243032D01*
X107906329Y-86244500D01*
X107551362Y-86244500D01*
X107501825Y-86247155D01*
X107497321Y-86247397D01*
X107470969Y-86250230D01*
X107442154Y-86254899D01*
X107417552Y-86258886D01*
X107359416Y-86280569D01*
X107282739Y-86309169D01*
X107221422Y-86342650D01*
X107221420Y-86342652D01*
X107106234Y-86428880D01*
X106965214Y-86569901D01*
X106890226Y-86617020D01*
X106802219Y-86626936D01*
X106718626Y-86597685D01*
X106656002Y-86535061D01*
X106626751Y-86451468D01*
X106625500Y-86429187D01*
X106625500Y-85767217D01*
X106645207Y-85680874D01*
X106700426Y-85611633D01*
X106780218Y-85573206D01*
X106868782Y-85573206D01*
X106941469Y-85606223D01*
X107023473Y-85665803D01*
X107023485Y-85665810D01*
X107177734Y-85744404D01*
X107177753Y-85744412D01*
X107342413Y-85797913D01*
X107342421Y-85797915D01*
X107479179Y-85819574D01*
X107479180Y-85819574D01*
X107298149Y-85143960D01*
X107460267Y-85101669D01*
X107547339Y-85125000D01*
X107652661Y-85125000D01*
X107754394Y-85097741D01*
X107845606Y-85045080D01*
X107905045Y-84985640D01*
X108961868Y-84709947D01*
X108937928Y-84748850D01*
G37*
%TD.AperFunction*%
%TA.AperFunction,Conductor*%
G36*
X110791465Y-83604011D02*
G01*
X110794887Y-83652730D01*
X110762147Y-83735019D01*
X110696944Y-83794953D01*
X110612194Y-83820662D01*
X110583152Y-83819619D01*
X110583089Y-83820506D01*
X110576000Y-83819999D01*
X109861287Y-83819999D01*
X109861283Y-83819999D01*
X109749004Y-83832627D01*
X109695295Y-83844862D01*
X109588658Y-83882100D01*
X109588657Y-83882100D01*
X109469155Y-83962239D01*
X109469152Y-83962241D01*
X109420122Y-84006432D01*
X109417999Y-84008272D01*
X109417249Y-84009021D01*
X109325176Y-84119573D01*
X109325173Y-84119578D01*
X108998330Y-84650696D01*
X108962742Y-83600000D01*
X110795476Y-83600000D01*
X110791465Y-83604011D01*
G37*
%TD.AperFunction*%
%TA.AperFunction,Conductor*%
G36*
X112673092Y-76696207D02*
G01*
X112742333Y-76751426D01*
X112780760Y-76831218D01*
X112780760Y-76919782D01*
X112742333Y-76999574D01*
X112673092Y-77054793D01*
X112638256Y-77067718D01*
X112601770Y-77077495D01*
X112601763Y-77077497D01*
X112504735Y-77133516D01*
X111622036Y-78016214D01*
X111547047Y-78063333D01*
X111481323Y-78074500D01*
X111320132Y-78074500D01*
X111295010Y-78077414D01*
X111192238Y-78122792D01*
X111192233Y-78122795D01*
X111120714Y-78194315D01*
X111045726Y-78241434D01*
X110957719Y-78251350D01*
X110874126Y-78222099D01*
X110839286Y-78194315D01*
X110767766Y-78122795D01*
X110767765Y-78122794D01*
X110767762Y-78122792D01*
X110767761Y-78122792D01*
X110664991Y-78077415D01*
X110639867Y-78074500D01*
X110050133Y-78074500D01*
X110025010Y-78077414D01*
X109922238Y-78122792D01*
X109922233Y-78122795D01*
X109842795Y-78202233D01*
X109842792Y-78202238D01*
X109797415Y-78305007D01*
X109797415Y-78305009D01*
X109794500Y-78330130D01*
X109794500Y-78540500D01*
X109774793Y-78626843D01*
X109719574Y-78696084D01*
X109639782Y-78734511D01*
X109595500Y-78739500D01*
X109120045Y-78739500D01*
X109033702Y-78719793D01*
X108964461Y-78664574D01*
X108961537Y-78660816D01*
X108943271Y-78636729D01*
X108822959Y-78545493D01*
X108822951Y-78545489D01*
X108682497Y-78490101D01*
X108682489Y-78490099D01*
X108594228Y-78479500D01*
X107605777Y-78479500D01*
X107517511Y-78490099D01*
X107517503Y-78490101D01*
X107377048Y-78545489D01*
X107377040Y-78545493D01*
X107256729Y-78636729D01*
X107165493Y-78757040D01*
X107165489Y-78757048D01*
X107110101Y-78897502D01*
X107110099Y-78897510D01*
X107099500Y-78985771D01*
X107099500Y-79594222D01*
X107110099Y-79682488D01*
X107110101Y-79682496D01*
X107165489Y-79822951D01*
X107165493Y-79822959D01*
X107256729Y-79943271D01*
X107377041Y-80034507D01*
X107377045Y-80034508D01*
X107377048Y-80034510D01*
X107389702Y-80039500D01*
X107517507Y-80089900D01*
X107605777Y-80100500D01*
X108594222Y-80100499D01*
X108682493Y-80089900D01*
X108822959Y-80034507D01*
X108943271Y-79943271D01*
X108961484Y-79919253D01*
X109029355Y-79862367D01*
X109115191Y-79840559D01*
X109120045Y-79840500D01*
X109595501Y-79840500D01*
X109681844Y-79860207D01*
X109751085Y-79915426D01*
X109789512Y-79995218D01*
X109794501Y-80039500D01*
X109794501Y-80619866D01*
X109797414Y-80644989D01*
X109797415Y-80644991D01*
X109842794Y-80747765D01*
X109922235Y-80827206D01*
X110025009Y-80872585D01*
X110050135Y-80875500D01*
X110599266Y-80875499D01*
X110685609Y-80895206D01*
X110754850Y-80950424D01*
X110778725Y-81000000D01*
X107000000Y-81000000D01*
X107000000Y-84031250D01*
X106948414Y-83838729D01*
X106935848Y-83834280D01*
X106904846Y-83848362D01*
X106902559Y-83848310D01*
X106900460Y-83849208D01*
X106858416Y-83847319D01*
X106816305Y-83846374D01*
X106814268Y-83845336D01*
X106811986Y-83845234D01*
X106774922Y-83825288D01*
X106769022Y-83822282D01*
X106785027Y-83853691D01*
X106787016Y-83942232D01*
X106753056Y-84019285D01*
X106659194Y-84148477D01*
X106659189Y-84148485D01*
X106580595Y-84302734D01*
X106580587Y-84302753D01*
X106527086Y-84467413D01*
X106527085Y-84467421D01*
X106525570Y-84476984D01*
X106492594Y-84559180D01*
X106427221Y-84618928D01*
X106342399Y-84644395D01*
X106254926Y-84630537D01*
X106188307Y-84586559D01*
X105621464Y-84019716D01*
X105574345Y-83944728D01*
X105564429Y-83856721D01*
X105593680Y-83773128D01*
X105656304Y-83710504D01*
X105739897Y-83681253D01*
X105827904Y-83691169D01*
X105852518Y-83701690D01*
X105941874Y-83747219D01*
X106041512Y-83763000D01*
X106358488Y-83763000D01*
X106458126Y-83747219D01*
X106501718Y-83725007D01*
X106587591Y-83703368D01*
X106674355Y-83721131D01*
X106680951Y-83726153D01*
X106674430Y-83690212D01*
X106665980Y-83648940D01*
X106666538Y-83646722D01*
X106666131Y-83644475D01*
X106687618Y-83563064D01*
X106734719Y-83470626D01*
X106750500Y-83370988D01*
X106750500Y-82229012D01*
X106734719Y-82129374D01*
X106734718Y-82129372D01*
X106734718Y-82129371D01*
X106685131Y-82032051D01*
X106684084Y-82029966D01*
X106675329Y-82012274D01*
X106643095Y-81891980D01*
X106635634Y-81879057D01*
X106580495Y-81783552D01*
X106526621Y-81729678D01*
X106479502Y-81654690D01*
X106469586Y-81566683D01*
X106498837Y-81483090D01*
X106561461Y-81420466D01*
X106576997Y-81411651D01*
X106578220Y-81411028D01*
X106673528Y-81315720D01*
X106734719Y-81195626D01*
X106750500Y-81095988D01*
X106750500Y-79954012D01*
X106734719Y-79854374D01*
X106734718Y-79854372D01*
X106734718Y-79854371D01*
X106673528Y-79734279D01*
X106664322Y-79721608D01*
X106667793Y-79719085D01*
X106636667Y-79669549D01*
X106625500Y-79603823D01*
X106625500Y-78258676D01*
X106645207Y-78172333D01*
X106683786Y-78117962D01*
X108066962Y-76734786D01*
X108141950Y-76687667D01*
X108207676Y-76676500D01*
X112586749Y-76676500D01*
X112673092Y-76696207D01*
G37*
%TD.AperFunction*%
%TA.AperFunction,Conductor*%
G36*
X129956374Y-69646508D02*
G01*
X130018998Y-69709132D01*
X130048249Y-69792725D01*
X130049500Y-69815006D01*
X130049500Y-81589546D01*
X130029793Y-81675889D01*
X129991214Y-81730260D01*
X129842417Y-81879057D01*
X129717111Y-82004363D01*
X129675897Y-82035987D01*
X129531285Y-82119479D01*
X129531283Y-82119480D01*
X129419480Y-82231283D01*
X129419477Y-82231287D01*
X129340427Y-82368206D01*
X129340423Y-82368215D01*
X129303796Y-82504908D01*
X129262412Y-82583208D01*
X129191154Y-82635798D01*
X129104134Y-82652262D01*
X129018589Y-82629339D01*
X128970863Y-82594115D01*
X128811264Y-82434516D01*
X128811265Y-82434516D01*
X128786325Y-82420117D01*
X128714237Y-82378497D01*
X128714234Y-82378496D01*
X128714232Y-82378495D01*
X128714233Y-82378495D01*
X128606020Y-82349500D01*
X128606018Y-82349500D01*
X127258676Y-82349500D01*
X127172333Y-82329793D01*
X127117962Y-82291214D01*
X121960264Y-77133516D01*
X121960265Y-77133516D01*
X121945851Y-77125194D01*
X121863237Y-77077497D01*
X121863234Y-77077496D01*
X121863232Y-77077495D01*
X121863233Y-77077495D01*
X121755020Y-77048500D01*
X121755018Y-77048500D01*
X118378251Y-77048500D01*
X118291908Y-77028793D01*
X118222667Y-76973574D01*
X118184240Y-76893782D01*
X118184240Y-76805218D01*
X118222667Y-76725426D01*
X118291908Y-76670207D01*
X118326743Y-76657281D01*
X118363237Y-76647503D01*
X118460263Y-76591485D01*
X123376348Y-71675399D01*
X123451334Y-71628282D01*
X123539341Y-71618366D01*
X123622934Y-71647617D01*
X123685558Y-71710241D01*
X123689399Y-71716614D01*
X123719480Y-71768716D01*
X123831283Y-71880519D01*
X123831287Y-71880522D01*
X123968206Y-71959572D01*
X123968210Y-71959574D01*
X123968216Y-71959577D01*
X124120943Y-72000500D01*
X124279057Y-72000500D01*
X124431784Y-71959577D01*
X124450839Y-71948576D01*
X124504763Y-71917443D01*
X124568716Y-71880520D01*
X124680520Y-71768716D01*
X124734395Y-71675401D01*
X124759572Y-71631793D01*
X124759572Y-71631791D01*
X124759577Y-71631784D01*
X124800500Y-71479057D01*
X124800500Y-71320943D01*
X124769408Y-71204909D01*
X124766097Y-71116410D01*
X124801513Y-71035236D01*
X124820907Y-71012699D01*
X126124547Y-69709059D01*
X126199533Y-69661942D01*
X126287540Y-69652026D01*
X126371133Y-69681277D01*
X126430721Y-69739216D01*
X126478211Y-69810289D01*
X126589711Y-69921789D01*
X126700611Y-69995890D01*
X126720818Y-70009392D01*
X126720825Y-70009396D01*
X126783912Y-70035527D01*
X126866503Y-70069737D01*
X127021158Y-70100500D01*
X127021159Y-70100500D01*
X129030841Y-70100500D01*
X129030842Y-70100500D01*
X129185497Y-70069737D01*
X129331179Y-70009394D01*
X129462289Y-69921789D01*
X129709786Y-69674292D01*
X129784774Y-69627173D01*
X129872781Y-69617257D01*
X129956374Y-69646508D01*
G37*
%TD.AperFunction*%
%TA.AperFunction,Conductor*%
G36*
X107443345Y-74958821D02*
G01*
X107452238Y-74960590D01*
X107489566Y-74971913D01*
X107497932Y-74975378D01*
X107532347Y-74993773D01*
X107535219Y-74995692D01*
X107540782Y-74999409D01*
X107544657Y-75001973D01*
X107546509Y-75003186D01*
X107550179Y-75005567D01*
X107553471Y-75007070D01*
X107554874Y-75008143D01*
X107556592Y-75009086D01*
X107556448Y-75009347D01*
X107623823Y-75060861D01*
X107663871Y-75139852D01*
X107665680Y-75228397D01*
X107628891Y-75308958D01*
X107560792Y-75365579D01*
X107522310Y-75380306D01*
X107435766Y-75403495D01*
X107338735Y-75459516D01*
X105209516Y-77588735D01*
X105153495Y-77685766D01*
X105124500Y-77793980D01*
X105124500Y-79603823D01*
X105104793Y-79690166D01*
X105083569Y-79720076D01*
X105085678Y-79721608D01*
X105076471Y-79734279D01*
X105015281Y-79854371D01*
X105015281Y-79854373D01*
X104999500Y-79954012D01*
X104999500Y-81087000D01*
X104979793Y-81173343D01*
X104924574Y-81242584D01*
X104844782Y-81281011D01*
X104800500Y-81286000D01*
X103604360Y-81286000D01*
X103518017Y-81266293D01*
X103448776Y-81211074D01*
X103445796Y-81207243D01*
X103425077Y-81179921D01*
X103309975Y-81092635D01*
X103309976Y-81092635D01*
X103175594Y-81039642D01*
X103175586Y-81039640D01*
X103091150Y-81029500D01*
X103091144Y-81029500D01*
X102910452Y-81029500D01*
X102824109Y-81009793D01*
X102769738Y-80971214D01*
X102408786Y-80610261D01*
X102361667Y-80535272D01*
X102350500Y-80469547D01*
X102350500Y-76910453D01*
X102370207Y-76824110D01*
X102408786Y-76769739D01*
X104125798Y-75052727D01*
X104200786Y-75005608D01*
X104288793Y-74995692D01*
X104349178Y-75012423D01*
X104465041Y-75065338D01*
X104465048Y-75065340D01*
X104532072Y-75085021D01*
X104532075Y-75085021D01*
X104532080Y-75085023D01*
X104532084Y-75085024D01*
X104674500Y-75105500D01*
X104674503Y-75105500D01*
X106909470Y-75105500D01*
X106909485Y-75105500D01*
X106914051Y-75105479D01*
X106916265Y-75105459D01*
X106920723Y-75105399D01*
X107062750Y-75082384D01*
X107129427Y-75061506D01*
X107129431Y-75061505D01*
X107259221Y-74999407D01*
X107279251Y-74986022D01*
X107291820Y-74979965D01*
X107294726Y-74979300D01*
X107302057Y-74975382D01*
X107302067Y-74975378D01*
X107310427Y-74971915D01*
X107347775Y-74960587D01*
X107353631Y-74959422D01*
X107356663Y-74958820D01*
X107395466Y-74955000D01*
X107404533Y-74955000D01*
X107443345Y-74958821D01*
G37*
%TD.AperFunction*%
%TA.AperFunction,Conductor*%
G36*
X152275890Y-71070207D02*
G01*
X152330261Y-71108786D01*
X153641214Y-72419739D01*
X153688333Y-72494727D01*
X153699500Y-72560453D01*
X153699500Y-73597043D01*
X153679793Y-73683386D01*
X153624574Y-73752627D01*
X153544782Y-73791054D01*
X153456218Y-73791054D01*
X153434776Y-73784876D01*
X153384701Y-73767354D01*
X153384702Y-73767354D01*
X153373286Y-73766283D01*
X153354266Y-73764500D01*
X151595734Y-73764500D01*
X151565301Y-73767354D01*
X151437118Y-73812207D01*
X151437116Y-73812208D01*
X151437114Y-73812209D01*
X151327849Y-73892849D01*
X151247209Y-74002114D01*
X151247208Y-74002116D01*
X151247207Y-74002118D01*
X151202354Y-74130301D01*
X151199500Y-74160734D01*
X151199500Y-74569266D01*
X151202354Y-74599699D01*
X151247207Y-74727882D01*
X151247208Y-74727884D01*
X151247209Y-74727885D01*
X151327849Y-74837150D01*
X151331555Y-74839885D01*
X151337548Y-74846849D01*
X151338395Y-74847696D01*
X151338331Y-74847759D01*
X151389324Y-74907013D01*
X151412246Y-74992559D01*
X151395781Y-75079578D01*
X151343191Y-75150836D01*
X151331555Y-75160115D01*
X151327849Y-75162849D01*
X151247209Y-75272114D01*
X151247208Y-75272116D01*
X151247207Y-75272118D01*
X151202354Y-75400301D01*
X151199500Y-75430734D01*
X151199500Y-75839266D01*
X151202354Y-75869699D01*
X151247207Y-75997882D01*
X151247208Y-75997884D01*
X151247209Y-75997885D01*
X151327849Y-76107150D01*
X151331555Y-76109885D01*
X151337548Y-76116849D01*
X151338395Y-76117696D01*
X151338331Y-76117759D01*
X151389324Y-76177013D01*
X151412246Y-76262559D01*
X151395781Y-76349578D01*
X151343191Y-76420836D01*
X151331555Y-76430115D01*
X151327849Y-76432849D01*
X151247209Y-76542114D01*
X151247208Y-76542116D01*
X151247207Y-76542118D01*
X151202354Y-76670301D01*
X151199500Y-76700734D01*
X151199500Y-77109266D01*
X151202354Y-77139699D01*
X151247207Y-77267882D01*
X151247208Y-77267884D01*
X151247209Y-77267885D01*
X151327849Y-77377150D01*
X151430456Y-77452876D01*
X151437118Y-77457793D01*
X151565301Y-77502646D01*
X151595734Y-77505500D01*
X151595739Y-77505500D01*
X151816976Y-77505500D01*
X151903319Y-77525207D01*
X151972560Y-77580426D01*
X152010987Y-77660218D01*
X152010987Y-77748782D01*
X151972560Y-77828574D01*
X151906880Y-77880952D01*
X151906888Y-77880965D01*
X151906810Y-77881008D01*
X151903319Y-77883793D01*
X151896748Y-77886666D01*
X151895024Y-77887635D01*
X151779922Y-77974921D01*
X151779921Y-77974922D01*
X151692635Y-78090023D01*
X151639642Y-78224405D01*
X151639640Y-78224413D01*
X151629500Y-78308849D01*
X151629500Y-78489547D01*
X151609793Y-78575890D01*
X151571214Y-78630261D01*
X150820261Y-79381214D01*
X150745273Y-79428333D01*
X150679547Y-79439500D01*
X148550453Y-79439500D01*
X148464110Y-79419793D01*
X148409739Y-79381214D01*
X146873739Y-77845214D01*
X146826620Y-77770226D01*
X146816704Y-77682219D01*
X146845955Y-77598626D01*
X146908579Y-77536002D01*
X146992172Y-77506751D01*
X147014453Y-77505500D01*
X148404261Y-77505500D01*
X148404266Y-77505500D01*
X148434699Y-77502646D01*
X148562882Y-77457793D01*
X148672150Y-77377150D01*
X148752793Y-77267882D01*
X148797646Y-77139699D01*
X148800500Y-77109266D01*
X148800500Y-76700734D01*
X148797646Y-76670301D01*
X148752793Y-76542118D01*
X148672150Y-76432850D01*
X148668447Y-76430117D01*
X148662453Y-76423152D01*
X148661605Y-76422304D01*
X148661668Y-76422240D01*
X148610678Y-76362992D01*
X148587753Y-76277448D01*
X148604215Y-76190428D01*
X148656804Y-76119168D01*
X148668444Y-76109885D01*
X148672150Y-76107150D01*
X148752793Y-75997882D01*
X148797646Y-75869699D01*
X148797736Y-75868733D01*
X148798094Y-75867644D01*
X148800230Y-75857869D01*
X148801238Y-75858089D01*
X148825413Y-75784611D01*
X148855149Y-75746597D01*
X150994878Y-73606867D01*
X150994883Y-73606864D01*
X151011261Y-73590485D01*
X151011263Y-73590485D01*
X151090485Y-73511263D01*
X151146503Y-73414237D01*
X151160504Y-73361985D01*
X151175500Y-73306019D01*
X151175500Y-73193982D01*
X151175500Y-71265115D01*
X151195207Y-71178772D01*
X151250426Y-71109531D01*
X151330218Y-71071104D01*
X151418782Y-71071104D01*
X151440223Y-71077281D01*
X151527178Y-71107709D01*
X151527181Y-71107710D01*
X151556934Y-71110500D01*
X151556938Y-71110500D01*
X151943062Y-71110500D01*
X151943066Y-71110500D01*
X151972819Y-71107710D01*
X152098157Y-71063852D01*
X152098158Y-71063851D01*
X152104400Y-71061667D01*
X152170126Y-71050500D01*
X152189547Y-71050500D01*
X152275890Y-71070207D01*
G37*
%TD.AperFunction*%
%TA.AperFunction,Conductor*%
G36*
X113464417Y-70220207D02*
G01*
X113502304Y-70247089D01*
X113503003Y-70246143D01*
X113514999Y-70254996D01*
X113515001Y-70254999D01*
X113621843Y-70333852D01*
X113747181Y-70377710D01*
X113776934Y-70380500D01*
X113776938Y-70380500D01*
X114223062Y-70380500D01*
X114223066Y-70380500D01*
X114252819Y-70377710D01*
X114378157Y-70333852D01*
X114484999Y-70254999D01*
X114485000Y-70254996D01*
X114496997Y-70246143D01*
X114498370Y-70248004D01*
X114509481Y-70241022D01*
X114535583Y-70220207D01*
X114546616Y-70217688D01*
X114556200Y-70211667D01*
X114621926Y-70200500D01*
X114878074Y-70200500D01*
X114964417Y-70220207D01*
X115002304Y-70247089D01*
X115003003Y-70246143D01*
X115014999Y-70254996D01*
X115015001Y-70254999D01*
X115121843Y-70333852D01*
X115247181Y-70377710D01*
X115276934Y-70380500D01*
X115276938Y-70380500D01*
X115723057Y-70380500D01*
X115723066Y-70380500D01*
X115730319Y-70379819D01*
X115818121Y-70391374D01*
X115892218Y-70439882D01*
X115937931Y-70515735D01*
X115946205Y-70603911D01*
X115937642Y-70637007D01*
X115937768Y-70637039D01*
X115934640Y-70649413D01*
X115924500Y-70733849D01*
X115924500Y-71266150D01*
X115934640Y-71350586D01*
X115934642Y-71350594D01*
X115987635Y-71484976D01*
X116074921Y-71600077D01*
X116074922Y-71600078D01*
X116190024Y-71687364D01*
X116190023Y-71687364D01*
X116319759Y-71738525D01*
X116324410Y-71740359D01*
X116352558Y-71743739D01*
X116408850Y-71750500D01*
X116408856Y-71750500D01*
X116991150Y-71750500D01*
X117041811Y-71744415D01*
X117075590Y-71740359D01*
X117144514Y-71713178D01*
X117147286Y-71712755D01*
X117149644Y-71711237D01*
X117190911Y-71706107D01*
X117232064Y-71699836D01*
X117234747Y-71700658D01*
X117237531Y-71700313D01*
X117250862Y-71705601D01*
X117316735Y-71725803D01*
X117321454Y-71728604D01*
X117335393Y-71737141D01*
X117338737Y-71740485D01*
X117373385Y-71760489D01*
X117435763Y-71796503D01*
X117543981Y-71825500D01*
X117543982Y-71825500D01*
X120842323Y-71825500D01*
X120928666Y-71845207D01*
X120997907Y-71900426D01*
X121036334Y-71980218D01*
X121036334Y-72068782D01*
X120997907Y-72148574D01*
X120983037Y-72165214D01*
X117832038Y-75316214D01*
X117757050Y-75363333D01*
X117691324Y-75374500D01*
X116503883Y-75374500D01*
X116417540Y-75354793D01*
X116348299Y-75299574D01*
X116309872Y-75219782D01*
X116309872Y-75131218D01*
X116311664Y-75123995D01*
X116323566Y-75079578D01*
X116350500Y-74979057D01*
X116350500Y-74820943D01*
X116309577Y-74668216D01*
X116309574Y-74668210D01*
X116309572Y-74668206D01*
X116230522Y-74531287D01*
X116230519Y-74531283D01*
X116118716Y-74419480D01*
X116118712Y-74419477D01*
X115974102Y-74335987D01*
X115932887Y-74304362D01*
X115108786Y-73480261D01*
X115061667Y-73405273D01*
X115050500Y-73339547D01*
X115050500Y-73006892D01*
X115039877Y-72918439D01*
X115039877Y-72918436D01*
X115009177Y-72840586D01*
X114984364Y-72777665D01*
X114984362Y-72777662D01*
X114984361Y-72777658D01*
X114892922Y-72657078D01*
X114772342Y-72565639D01*
X114772334Y-72565635D01*
X114631568Y-72510124D01*
X114631560Y-72510122D01*
X114543107Y-72499500D01*
X114543102Y-72499500D01*
X112456898Y-72499500D01*
X112456893Y-72499500D01*
X112368439Y-72510122D01*
X112368431Y-72510124D01*
X112227665Y-72565635D01*
X112227657Y-72565639D01*
X112107078Y-72657078D01*
X112015639Y-72777657D01*
X112015635Y-72777665D01*
X111960124Y-72918431D01*
X111960122Y-72918439D01*
X111949500Y-73006892D01*
X111949500Y-74393107D01*
X111960122Y-74481560D01*
X111960124Y-74481568D01*
X112015635Y-74622334D01*
X112015639Y-74622342D01*
X112107078Y-74742922D01*
X112227658Y-74834361D01*
X112227662Y-74834362D01*
X112227665Y-74834364D01*
X112285355Y-74857114D01*
X112368436Y-74889877D01*
X112401609Y-74893860D01*
X112456893Y-74900500D01*
X112456898Y-74900500D01*
X114543106Y-74900500D01*
X114587333Y-74895188D01*
X114631564Y-74889877D01*
X114714645Y-74857114D01*
X114746658Y-74844490D01*
X114834210Y-74831147D01*
X114918881Y-74857114D01*
X114960376Y-74888901D01*
X115106261Y-75034786D01*
X115153380Y-75109774D01*
X115163296Y-75197781D01*
X115134045Y-75281374D01*
X115071421Y-75343998D01*
X114987828Y-75373249D01*
X114965547Y-75374500D01*
X110908144Y-75374500D01*
X110821801Y-75354793D01*
X110752560Y-75299574D01*
X110714133Y-75219782D01*
X110714133Y-75131218D01*
X110752560Y-75051426D01*
X110800550Y-75008094D01*
X110858543Y-74970825D01*
X110911347Y-74925070D01*
X111005567Y-74816336D01*
X111065338Y-74685459D01*
X111085023Y-74618420D01*
X111085024Y-74618416D01*
X111105500Y-74476000D01*
X111105500Y-72103896D01*
X111125207Y-72017553D01*
X111180426Y-71948312D01*
X111260218Y-71909885D01*
X111348782Y-71909885D01*
X111374043Y-71917443D01*
X111377667Y-71918794D01*
X111377669Y-71918796D01*
X111512517Y-71969091D01*
X111572127Y-71975500D01*
X112067872Y-71975499D01*
X112067876Y-71975499D01*
X112107612Y-71971227D01*
X112127483Y-71969091D01*
X112262331Y-71918796D01*
X112377546Y-71832546D01*
X112463796Y-71717331D01*
X112514091Y-71582483D01*
X112520500Y-71522873D01*
X112520499Y-70877128D01*
X112520499Y-70877123D01*
X112514091Y-70817518D01*
X112506527Y-70797236D01*
X112463796Y-70682669D01*
X112458152Y-70675129D01*
X112453382Y-70668757D01*
X112417415Y-70587826D01*
X112420124Y-70499304D01*
X112460973Y-70420724D01*
X112531871Y-70367650D01*
X112612689Y-70350500D01*
X112704261Y-70350500D01*
X112704266Y-70350500D01*
X112734699Y-70347646D01*
X112862882Y-70302793D01*
X112948796Y-70239386D01*
X112965969Y-70231893D01*
X112980621Y-70220209D01*
X113006056Y-70214403D01*
X113029970Y-70203970D01*
X113066964Y-70200501D01*
X113152727Y-70200501D01*
X113152730Y-70200500D01*
X113164936Y-70200500D01*
X113378074Y-70200500D01*
X113464417Y-70220207D01*
G37*
%TD.AperFunction*%
%TA.AperFunction,Conductor*%
G36*
X147895600Y-71061667D02*
G01*
X147901841Y-71063851D01*
X147901843Y-71063852D01*
X148027181Y-71107710D01*
X148056934Y-71110500D01*
X148056938Y-71110500D01*
X148443062Y-71110500D01*
X148443066Y-71110500D01*
X148472819Y-71107710D01*
X148559774Y-71077282D01*
X148647780Y-71067366D01*
X148731373Y-71096616D01*
X148793998Y-71159240D01*
X148823249Y-71242833D01*
X148824500Y-71265115D01*
X148824500Y-72353287D01*
X148804793Y-72439630D01*
X148749574Y-72508871D01*
X148669782Y-72547298D01*
X148581218Y-72547298D01*
X148559777Y-72541120D01*
X148471191Y-72510123D01*
X148434700Y-72497354D01*
X148429626Y-72496878D01*
X148404266Y-72494500D01*
X146764453Y-72494500D01*
X146678110Y-72474793D01*
X146608869Y-72419574D01*
X146570442Y-72339782D01*
X146570442Y-72251218D01*
X146608869Y-72171426D01*
X146623739Y-72154786D01*
X147669739Y-71108786D01*
X147698008Y-71091022D01*
X147724110Y-71070207D01*
X147735143Y-71067688D01*
X147744727Y-71061667D01*
X147810453Y-71050500D01*
X147829874Y-71050500D01*
X147895600Y-71061667D01*
G37*
%TD.AperFunction*%
%TA.AperFunction,Conductor*%
G36*
X109219086Y-62830008D02*
G01*
X109281711Y-62892631D01*
X109310962Y-62976224D01*
X109310189Y-63026827D01*
X109294500Y-63135954D01*
X109294500Y-63894500D01*
X108700000Y-63300000D01*
X103800000Y-63300000D01*
X103800000Y-68300000D01*
X108715025Y-68300000D01*
X108611986Y-68359490D01*
X108500268Y-68471208D01*
X108498706Y-68469646D01*
X108443974Y-68514991D01*
X108358014Y-68536306D01*
X108293047Y-68524734D01*
X108292560Y-68526311D01*
X108285768Y-68524210D01*
X108228381Y-68510864D01*
X108228368Y-68510862D01*
X108216839Y-68508867D01*
X108171471Y-68501016D01*
X108158256Y-68499500D01*
X108143396Y-68497795D01*
X108143389Y-68497794D01*
X108143385Y-68497794D01*
X108143374Y-68497793D01*
X108143369Y-68497793D01*
X108085785Y-68494500D01*
X108085772Y-68494500D01*
X106813323Y-68494500D01*
X106813312Y-68494500D01*
X106759323Y-68497391D01*
X106759321Y-68497391D01*
X106733006Y-68500219D01*
X106732988Y-68500221D01*
X106732983Y-68500222D01*
X106732977Y-68500223D01*
X106679585Y-68508869D01*
X106679566Y-68508873D01*
X104490271Y-68984806D01*
X104438039Y-68999131D01*
X104412872Y-69007506D01*
X104399773Y-69012659D01*
X104362496Y-69027326D01*
X104241457Y-69105114D01*
X104241453Y-69105117D01*
X104241452Y-69105118D01*
X104225627Y-69118831D01*
X104188653Y-69150869D01*
X104158875Y-69185233D01*
X104094433Y-69259602D01*
X104034663Y-69390477D01*
X104034659Y-69390487D01*
X104014978Y-69457511D01*
X104014977Y-69457516D01*
X104014977Y-69457519D01*
X104014976Y-69457523D01*
X103999810Y-69563011D01*
X103994500Y-69599942D01*
X103994500Y-70535547D01*
X103974793Y-70621890D01*
X103919574Y-70691131D01*
X103839782Y-70729558D01*
X103751218Y-70729558D01*
X103671426Y-70691131D01*
X103654786Y-70676261D01*
X102033786Y-69055261D01*
X101986667Y-68980273D01*
X101975500Y-68914547D01*
X101975500Y-66232978D01*
X101995207Y-66146635D01*
X102050426Y-66077394D01*
X102130218Y-66038967D01*
X102218782Y-66038967D01*
X102298574Y-66077394D01*
X102353793Y-66146635D01*
X102362332Y-66167251D01*
X102366148Y-66178157D01*
X102445001Y-66284999D01*
X102551843Y-66363852D01*
X102677181Y-66407710D01*
X102706934Y-66410500D01*
X102706938Y-66410500D01*
X103093062Y-66410500D01*
X103093066Y-66410500D01*
X103122819Y-66407710D01*
X103248157Y-66363852D01*
X103354999Y-66284999D01*
X103433852Y-66178157D01*
X103477710Y-66052819D01*
X103480500Y-66023066D01*
X103480500Y-65576934D01*
X103477710Y-65547181D01*
X103433852Y-65421843D01*
X103354999Y-65315001D01*
X103248157Y-65236148D01*
X103122819Y-65192290D01*
X103122818Y-65192289D01*
X103122813Y-65192288D01*
X103113271Y-65190204D01*
X103102187Y-65184993D01*
X103090016Y-65183622D01*
X103062515Y-65166342D01*
X103033124Y-65152524D01*
X103015028Y-65136503D01*
X103008786Y-65130261D01*
X102961667Y-65055273D01*
X102950500Y-64989547D01*
X102950500Y-64637990D01*
X102970207Y-64551647D01*
X103017762Y-64492014D01*
X103016884Y-64491136D01*
X103024685Y-64483334D01*
X103025426Y-64482406D01*
X103026272Y-64481747D01*
X103026505Y-64481513D01*
X103026510Y-64481510D01*
X103112965Y-64367501D01*
X103165456Y-64234395D01*
X103175499Y-64150759D01*
X103175500Y-64150759D01*
X103175500Y-63629240D01*
X103175499Y-63629239D01*
X103165456Y-63545609D01*
X103165456Y-63545605D01*
X103112965Y-63412499D01*
X103106467Y-63403930D01*
X103070000Y-63323223D01*
X103072162Y-63234686D01*
X103112524Y-63155855D01*
X103183093Y-63102343D01*
X103269891Y-63084749D01*
X103293348Y-63086715D01*
X103424000Y-63105500D01*
X108464037Y-63105500D01*
X108464048Y-63105500D01*
X108518088Y-63102603D01*
X108544446Y-63099769D01*
X108597858Y-63091114D01*
X108732667Y-63040832D01*
X108763328Y-63024089D01*
X108793987Y-63007349D01*
X108793987Y-63007348D01*
X108793990Y-63007347D01*
X108909172Y-62921123D01*
X108972499Y-62857794D01*
X109047486Y-62810676D01*
X109135492Y-62800759D01*
X109219086Y-62830008D01*
G37*
%TD.AperFunction*%
%TA.AperFunction,Conductor*%
G36*
X118529258Y-58840207D02*
G01*
X118562567Y-58863841D01*
X118564076Y-58861853D01*
X118574921Y-58870077D01*
X118574922Y-58870078D01*
X118605045Y-58892921D01*
X118690026Y-58957365D01*
X118818418Y-59007996D01*
X118824410Y-59010359D01*
X118852558Y-59013739D01*
X118908850Y-59020500D01*
X118908856Y-59020500D01*
X119491150Y-59020500D01*
X119542381Y-59014347D01*
X119575590Y-59010359D01*
X119687353Y-58966284D01*
X119774904Y-58952942D01*
X119859576Y-58978909D01*
X119924595Y-59039041D01*
X119952576Y-59099904D01*
X119994401Y-59255993D01*
X119994401Y-59255994D01*
X120066073Y-59380134D01*
X120071484Y-59389505D01*
X120180495Y-59498516D01*
X120314006Y-59575599D01*
X120314010Y-59575600D01*
X120326056Y-59580590D01*
X120324646Y-59583993D01*
X120329663Y-59586645D01*
X120357731Y-59596467D01*
X120368370Y-59607106D01*
X120381674Y-59614139D01*
X120399329Y-59638065D01*
X120420355Y-59659091D01*
X120425324Y-59673293D01*
X120434259Y-59685401D01*
X120439784Y-59714615D01*
X120449606Y-59742684D01*
X120447921Y-59757638D01*
X120450717Y-59772422D01*
X120443019Y-59801141D01*
X120439690Y-59830691D01*
X120431684Y-59843431D01*
X120427789Y-59857966D01*
X120392572Y-59905680D01*
X120278737Y-60019515D01*
X120278736Y-60019515D01*
X120278735Y-60019516D01*
X120199516Y-60098735D01*
X120143495Y-60195766D01*
X120114500Y-60303980D01*
X120114500Y-62586884D01*
X120094793Y-62673227D01*
X120073379Y-62708025D01*
X120071485Y-62710492D01*
X119994401Y-62844005D01*
X119954500Y-62992913D01*
X119954500Y-63948806D01*
X119934793Y-64035149D01*
X119879574Y-64104390D01*
X119799782Y-64142817D01*
X119711218Y-64142817D01*
X119650353Y-64114206D01*
X119649311Y-64116013D01*
X119629179Y-64104390D01*
X119512485Y-64037016D01*
X119505517Y-64035149D01*
X119372477Y-63999500D01*
X119372475Y-63999500D01*
X119227525Y-63999500D01*
X119227522Y-63999500D01*
X119087514Y-64037016D01*
X118961985Y-64109490D01*
X118859490Y-64211985D01*
X118787016Y-64337514D01*
X118749500Y-64477522D01*
X118749500Y-64622477D01*
X118787016Y-64762485D01*
X118857156Y-64883972D01*
X118859491Y-64888015D01*
X118961985Y-64990509D01*
X119087515Y-65062984D01*
X119205018Y-65094469D01*
X119211712Y-65098007D01*
X119219238Y-65098855D01*
X119250584Y-65118551D01*
X119283318Y-65135852D01*
X119294226Y-65145974D01*
X119445926Y-65297674D01*
X119493045Y-65372662D01*
X119502961Y-65460669D01*
X119473710Y-65544262D01*
X119445927Y-65579101D01*
X119397796Y-65627232D01*
X119397792Y-65627238D01*
X119352415Y-65730007D01*
X119352415Y-65730009D01*
X119349500Y-65755130D01*
X119349500Y-67344866D01*
X119352414Y-67369989D01*
X119352415Y-67369991D01*
X119397794Y-67472765D01*
X119477235Y-67552206D01*
X119580009Y-67597585D01*
X119605135Y-67600500D01*
X120594864Y-67600499D01*
X120594866Y-67600499D01*
X120607427Y-67599042D01*
X120619991Y-67597585D01*
X120722765Y-67552206D01*
X120722770Y-67552200D01*
X120737534Y-67542088D01*
X120819903Y-67509549D01*
X120908233Y-67515971D01*
X120962466Y-67542088D01*
X120977231Y-67552202D01*
X120977235Y-67552206D01*
X121080009Y-67597585D01*
X121105135Y-67600500D01*
X122094864Y-67600499D01*
X122094866Y-67600499D01*
X122107427Y-67599042D01*
X122119991Y-67597585D01*
X122222765Y-67552206D01*
X122222770Y-67552200D01*
X122237534Y-67542088D01*
X122319903Y-67509549D01*
X122408233Y-67515971D01*
X122462466Y-67542088D01*
X122477231Y-67552202D01*
X122477235Y-67552206D01*
X122580009Y-67597585D01*
X122605135Y-67600500D01*
X123594864Y-67600499D01*
X123594866Y-67600499D01*
X123607427Y-67599042D01*
X123619991Y-67597585D01*
X123722765Y-67552206D01*
X123722770Y-67552200D01*
X123737534Y-67542088D01*
X123819903Y-67509549D01*
X123908233Y-67515971D01*
X123962466Y-67542088D01*
X123977231Y-67552202D01*
X123977235Y-67552206D01*
X124080009Y-67597585D01*
X124105135Y-67600500D01*
X125067323Y-67600499D01*
X125153666Y-67620206D01*
X125222907Y-67675424D01*
X125261334Y-67755217D01*
X125261334Y-67843780D01*
X125222908Y-67923573D01*
X125208037Y-67940213D01*
X123585525Y-69562725D01*
X123510537Y-69609844D01*
X123422530Y-69619760D01*
X123338937Y-69590509D01*
X123276313Y-69527885D01*
X123247062Y-69444292D01*
X123249635Y-69383188D01*
X123250500Y-69378843D01*
X123250500Y-69221158D01*
X123219737Y-69066503D01*
X123159393Y-68920821D01*
X123071789Y-68789711D01*
X122960289Y-68678211D01*
X122829179Y-68590607D01*
X122829177Y-68590606D01*
X122829174Y-68590604D01*
X122698086Y-68536306D01*
X122683497Y-68530263D01*
X122683495Y-68530262D01*
X122683494Y-68530262D01*
X122536463Y-68501016D01*
X122528842Y-68499500D01*
X122371157Y-68499500D01*
X122371155Y-68499500D01*
X122370739Y-68499541D01*
X122351229Y-68500500D01*
X118215006Y-68500500D01*
X118128663Y-68480793D01*
X118074292Y-68442214D01*
X117790292Y-68158214D01*
X117790289Y-68158211D01*
X117686914Y-68089138D01*
X117659181Y-68070607D01*
X117659172Y-68070602D01*
X117628345Y-68057833D01*
X117556116Y-68006584D01*
X117513277Y-67929071D01*
X117505500Y-67873982D01*
X117505500Y-66451372D01*
X117505500Y-66451362D01*
X117502603Y-66397322D01*
X117499769Y-66370964D01*
X117491114Y-66317552D01*
X117440832Y-66182743D01*
X117438327Y-66178155D01*
X117407349Y-66121422D01*
X117407347Y-66121420D01*
X117374389Y-66077394D01*
X117321123Y-66006239D01*
X117321121Y-66006237D01*
X117321119Y-66006234D01*
X116763786Y-65448901D01*
X116716667Y-65373913D01*
X116705500Y-65308187D01*
X116705500Y-62804500D01*
X116725207Y-62718157D01*
X116780426Y-62648916D01*
X116860218Y-62610489D01*
X116904500Y-62605500D01*
X116991976Y-62605500D01*
X116992001Y-62605500D01*
X117010272Y-62605170D01*
X117019230Y-62604846D01*
X117037477Y-62603855D01*
X117178041Y-62573144D01*
X117243483Y-62548668D01*
X117369702Y-62479600D01*
X118053700Y-61966600D01*
X118120526Y-61906491D01*
X118150442Y-61874330D01*
X118205567Y-61803336D01*
X118265338Y-61672459D01*
X118285023Y-61605420D01*
X118285024Y-61605416D01*
X118305500Y-61463000D01*
X118305500Y-60124000D01*
X118293947Y-60016544D01*
X118282741Y-59965033D01*
X118256432Y-59885987D01*
X118248615Y-59862500D01*
X118248613Y-59862497D01*
X118248613Y-59862496D01*
X118170825Y-59741457D01*
X118125070Y-59688653D01*
X118016336Y-59594433D01*
X117980313Y-59577981D01*
X117909961Y-59524184D01*
X117869917Y-59445191D01*
X117868112Y-59356646D01*
X117904905Y-59276087D01*
X117922254Y-59256269D01*
X118299741Y-58878783D01*
X118328010Y-58861021D01*
X118354110Y-58840207D01*
X118365144Y-58837688D01*
X118374728Y-58831667D01*
X118440453Y-58820500D01*
X118442915Y-58820500D01*
X118529258Y-58840207D01*
G37*
%TD.AperFunction*%
%TA.AperFunction,Conductor*%
G36*
X113941946Y-64762221D02*
G01*
X113955222Y-64761536D01*
X113984230Y-64773705D01*
X114014585Y-64781950D01*
X114024630Y-64790654D01*
X114036889Y-64795797D01*
X114057743Y-64819347D01*
X114081517Y-64839947D01*
X114086791Y-64852149D01*
X114095603Y-64862100D01*
X114104172Y-64892361D01*
X114116656Y-64921241D01*
X114118728Y-64943759D01*
X114119735Y-64947313D01*
X114119290Y-64949860D01*
X114120000Y-64957571D01*
X114120000Y-65474138D01*
X114122897Y-65528178D01*
X114125731Y-65554536D01*
X114134386Y-65607948D01*
X114170438Y-65704607D01*
X114170440Y-65704613D01*
X114181953Y-65735479D01*
X114194500Y-65805022D01*
X114194500Y-67573482D01*
X114204213Y-67672098D01*
X114213648Y-67719533D01*
X114213656Y-67719564D01*
X114242416Y-67814372D01*
X114242418Y-67814380D01*
X114295553Y-67942662D01*
X114295556Y-67942666D01*
X114295561Y-67942678D01*
X114300081Y-67951707D01*
X114327845Y-68007174D01*
X114327851Y-68007184D01*
X114345850Y-68037523D01*
X114377082Y-68082500D01*
X114387015Y-68096805D01*
X114393732Y-68103058D01*
X114400519Y-68109684D01*
X114406511Y-68115821D01*
X114432022Y-68146906D01*
X114637099Y-68351983D01*
X114637885Y-68352788D01*
X114660383Y-68389562D01*
X114683333Y-68426086D01*
X114683565Y-68427453D01*
X114684104Y-68428334D01*
X114684668Y-68433948D01*
X114694500Y-68491812D01*
X114694500Y-68895500D01*
X114697223Y-68920825D01*
X114706053Y-69002956D01*
X114706053Y-69002959D01*
X114717257Y-69054460D01*
X114717259Y-69054467D01*
X114722742Y-69070941D01*
X114731308Y-69159089D01*
X114700780Y-69242225D01*
X114637204Y-69303882D01*
X114553172Y-69331848D01*
X114465328Y-69320585D01*
X114415753Y-69293895D01*
X114378159Y-69266149D01*
X114378157Y-69266148D01*
X114252819Y-69222290D01*
X114223066Y-69219500D01*
X113776934Y-69219500D01*
X113747181Y-69222290D01*
X113621842Y-69266148D01*
X113584247Y-69293895D01*
X113515001Y-69345001D01*
X113514999Y-69345002D01*
X113503003Y-69353857D01*
X113501629Y-69351995D01*
X113490518Y-69358977D01*
X113464417Y-69379793D01*
X113453383Y-69382311D01*
X113443800Y-69388333D01*
X113378074Y-69399500D01*
X113297239Y-69399500D01*
X113216892Y-69381161D01*
X113216635Y-69381783D01*
X113212978Y-69380268D01*
X113210896Y-69379793D01*
X113207508Y-69378002D01*
X113204584Y-69376791D01*
X113204524Y-69376775D01*
X113204446Y-69376734D01*
X113192533Y-69371799D01*
X113192995Y-69370681D01*
X113126226Y-69335388D01*
X113073638Y-69264128D01*
X113057178Y-69177108D01*
X113068204Y-69118837D01*
X113097646Y-69034699D01*
X113100500Y-69004266D01*
X113100500Y-68595734D01*
X113097646Y-68565301D01*
X113065216Y-68472622D01*
X113055301Y-68384621D01*
X113084551Y-68301027D01*
X113112332Y-68266191D01*
X113470510Y-67908014D01*
X113470511Y-67908011D01*
X113470514Y-67908008D01*
X113542983Y-67782487D01*
X113550291Y-67755217D01*
X113561875Y-67711985D01*
X113562446Y-67709853D01*
X113580500Y-67642476D01*
X113580500Y-66807085D01*
X113600207Y-66720742D01*
X113623841Y-66687432D01*
X113621853Y-66685924D01*
X113630078Y-66675078D01*
X113717364Y-66559975D01*
X113770359Y-66425590D01*
X113776119Y-66377625D01*
X113780500Y-66341150D01*
X113780500Y-65784924D01*
X113780500Y-65758856D01*
X113770359Y-65674410D01*
X113719035Y-65544262D01*
X113717363Y-65540022D01*
X113630078Y-65424922D01*
X113630077Y-65424921D01*
X113534180Y-65352199D01*
X113477290Y-65284325D01*
X113455483Y-65198488D01*
X113473079Y-65111690D01*
X113522494Y-65044654D01*
X113533950Y-65034508D01*
X113633043Y-64970825D01*
X113685847Y-64925070D01*
X113779226Y-64817305D01*
X113789070Y-64808589D01*
X113816671Y-64793496D01*
X113842043Y-64774905D01*
X113855112Y-64772478D01*
X113866776Y-64766101D01*
X113898190Y-64764479D01*
X113929118Y-64758737D01*
X113941946Y-64762221D01*
G37*
%TD.AperFunction*%
%TA.AperFunction,Conductor*%
G36*
X110338429Y-67112319D02*
G01*
X110414109Y-67158319D01*
X110462336Y-67232600D01*
X110474500Y-67301107D01*
X110474500Y-68000500D01*
X110454793Y-68086843D01*
X110399574Y-68156084D01*
X110319782Y-68194511D01*
X110275500Y-68199500D01*
X110100000Y-68199500D01*
X110100000Y-67032842D01*
X110338429Y-67112319D01*
G37*
%TD.AperFunction*%
%TA.AperFunction,Conductor*%
G36*
X142443669Y-60845207D02*
G01*
X142498040Y-60883786D01*
X142574540Y-60960286D01*
X142621659Y-61035274D01*
X142631575Y-61123281D01*
X142602324Y-61206874D01*
X142539700Y-61269498D01*
X142456107Y-61298749D01*
X142433826Y-61300000D01*
X131700000Y-61300000D01*
X131700000Y-61590034D01*
X131680293Y-61676377D01*
X131625074Y-61745618D01*
X131545282Y-61784045D01*
X131456718Y-61784045D01*
X131376926Y-61745618D01*
X131321707Y-61676377D01*
X131315875Y-61663038D01*
X131267364Y-61540023D01*
X131180078Y-61424922D01*
X131180077Y-61424921D01*
X131064975Y-61337635D01*
X131064976Y-61337635D01*
X130930594Y-61284642D01*
X130930586Y-61284640D01*
X130846150Y-61274500D01*
X130846144Y-61274500D01*
X130763124Y-61274500D01*
X130664156Y-61254814D01*
X130506472Y-61254814D01*
X130407504Y-61274500D01*
X130313856Y-61274500D01*
X130313850Y-61274500D01*
X130229413Y-61284640D01*
X130229405Y-61284642D01*
X130095023Y-61337635D01*
X129979922Y-61424921D01*
X129979921Y-61424922D01*
X129892635Y-61540023D01*
X129839642Y-61674405D01*
X129839640Y-61674413D01*
X129829499Y-61758856D01*
X129829443Y-61759795D01*
X129829324Y-61760308D01*
X129828790Y-61764762D01*
X129828313Y-61764704D01*
X129817394Y-61812147D01*
X129818416Y-61812457D01*
X129815576Y-61821818D01*
X129805131Y-61874330D01*
X129784814Y-61976472D01*
X129784814Y-62134156D01*
X129795676Y-62188762D01*
X129799500Y-62227585D01*
X129799500Y-63305763D01*
X129785625Y-63378767D01*
X129783308Y-63384643D01*
X129760123Y-63443434D01*
X129760122Y-63443439D01*
X129749500Y-63531892D01*
X129749500Y-64568107D01*
X129760122Y-64656560D01*
X129760122Y-64656562D01*
X129760123Y-64656564D01*
X129785625Y-64721233D01*
X129799500Y-64794236D01*
X129799500Y-65300500D01*
X129779793Y-65386843D01*
X129724574Y-65456084D01*
X129644782Y-65494511D01*
X129600500Y-65499500D01*
X128605133Y-65499500D01*
X128580010Y-65502414D01*
X128477235Y-65547793D01*
X128462463Y-65557913D01*
X128446922Y-65564051D01*
X128433711Y-65574275D01*
X128406230Y-65580125D01*
X128380093Y-65590451D01*
X128363429Y-65589239D01*
X128347090Y-65592718D01*
X128328038Y-65586665D01*
X128291763Y-65584027D01*
X128261044Y-65571750D01*
X128232413Y-65557442D01*
X128222765Y-65547794D01*
X128139794Y-65511159D01*
X128135544Y-65509035D01*
X128104905Y-65483860D01*
X128073093Y-65460164D01*
X128070852Y-65455878D01*
X128067118Y-65452810D01*
X128050433Y-65416828D01*
X128032056Y-65381682D01*
X128031250Y-65375458D01*
X128029862Y-65372464D01*
X128029963Y-65365514D01*
X128025500Y-65331024D01*
X128025500Y-62468210D01*
X128045207Y-62381867D01*
X128083786Y-62327496D01*
X129527496Y-60883786D01*
X129602484Y-60836667D01*
X129668210Y-60825500D01*
X142357326Y-60825500D01*
X142443669Y-60845207D01*
G37*
%TD.AperFunction*%
%TA.AperFunction,Conductor*%
G36*
X127919961Y-55845207D02*
G01*
X127989202Y-55900426D01*
X128010928Y-55934155D01*
X128046001Y-56002990D01*
X128046004Y-56002994D01*
X128152447Y-56149501D01*
X128280499Y-56277553D01*
X128427006Y-56383996D01*
X128427008Y-56383997D01*
X128427011Y-56383999D01*
X128595327Y-56469761D01*
X128594788Y-56470817D01*
X128660438Y-56517399D01*
X128703277Y-56594912D01*
X128708242Y-56683336D01*
X128674349Y-56765157D01*
X128608312Y-56824171D01*
X128588721Y-56833604D01*
X128427011Y-56916000D01*
X128280496Y-57022449D01*
X128152449Y-57150496D01*
X128046000Y-57297011D01*
X127963794Y-57458348D01*
X127963786Y-57458367D01*
X127907831Y-57630581D01*
X127907828Y-57630592D01*
X127879500Y-57809454D01*
X127879500Y-57871679D01*
X127859793Y-57958022D01*
X127821214Y-58012393D01*
X124039521Y-61794085D01*
X124039519Y-61794087D01*
X123986793Y-61885410D01*
X123965307Y-61965602D01*
X123965306Y-61965605D01*
X123959500Y-61987270D01*
X123959500Y-62560051D01*
X123953577Y-62586001D01*
X123952438Y-62612596D01*
X123944316Y-62626575D01*
X123939793Y-62646394D01*
X123910632Y-62690671D01*
X123906106Y-62695872D01*
X123891484Y-62710495D01*
X123887735Y-62716988D01*
X123875132Y-62731474D01*
X123854476Y-62746546D01*
X123837084Y-62765287D01*
X123819151Y-62772322D01*
X123803590Y-62783678D01*
X123778439Y-62788295D01*
X123754639Y-62797634D01*
X123735431Y-62796192D01*
X123716483Y-62799672D01*
X123691820Y-62792920D01*
X123666324Y-62791007D01*
X123649641Y-62781373D01*
X123631063Y-62776287D01*
X123611773Y-62759504D01*
X123589630Y-62746717D01*
X123572757Y-62725559D01*
X123566923Y-62720484D01*
X123566456Y-62720843D01*
X123564687Y-62718538D01*
X123564248Y-62718156D01*
X123564061Y-62717722D01*
X123558514Y-62710493D01*
X123449504Y-62601483D01*
X123315994Y-62524401D01*
X123167086Y-62484500D01*
X123167083Y-62484500D01*
X123012917Y-62484500D01*
X123012913Y-62484500D01*
X122864005Y-62524401D01*
X122730495Y-62601483D01*
X122621485Y-62710493D01*
X122613544Y-62720843D01*
X122612270Y-62719866D01*
X122562097Y-62773938D01*
X122479655Y-62806292D01*
X122391339Y-62799672D01*
X122314642Y-62755388D01*
X122286851Y-62720539D01*
X122286456Y-62720843D01*
X122278514Y-62710493D01*
X122169504Y-62601483D01*
X122035994Y-62524401D01*
X121887086Y-62484500D01*
X121887083Y-62484500D01*
X121732917Y-62484500D01*
X121732913Y-62484500D01*
X121584005Y-62524401D01*
X121450495Y-62601483D01*
X121341485Y-62710493D01*
X121333544Y-62720843D01*
X121331979Y-62719642D01*
X121326964Y-62729337D01*
X121305419Y-62745529D01*
X121287084Y-62765287D01*
X121270450Y-62771813D01*
X121256168Y-62782548D01*
X121229729Y-62787790D01*
X121204639Y-62797634D01*
X121186822Y-62796297D01*
X121169296Y-62799772D01*
X121143202Y-62793023D01*
X121116324Y-62791007D01*
X121100850Y-62782071D01*
X121083553Y-62777598D01*
X121068933Y-62763639D01*
X121039630Y-62746717D01*
X121015923Y-62720418D01*
X121008685Y-62710789D01*
X121008516Y-62710495D01*
X121008309Y-62710288D01*
X121005423Y-62706448D01*
X121002736Y-62700434D01*
X121002671Y-62700372D01*
X121002004Y-62699217D01*
X121002154Y-62699130D01*
X120987748Y-62666882D01*
X120969695Y-62627527D01*
X120969553Y-62626152D01*
X120969300Y-62625586D01*
X120969342Y-62624110D01*
X120965500Y-62586884D01*
X120965500Y-60618676D01*
X120985207Y-60532333D01*
X121023786Y-60477962D01*
X121042962Y-60458786D01*
X121117950Y-60411667D01*
X121166289Y-60403453D01*
X121166125Y-60402203D01*
X121179054Y-60400500D01*
X121179057Y-60400500D01*
X121331784Y-60359577D01*
X121468716Y-60280520D01*
X121580520Y-60168716D01*
X121659577Y-60031784D01*
X121700500Y-59879057D01*
X121700500Y-59814500D01*
X121720207Y-59728157D01*
X121775426Y-59658916D01*
X121855218Y-59620489D01*
X121874301Y-59618338D01*
X121874152Y-59617202D01*
X121887078Y-59615500D01*
X121887083Y-59615500D01*
X122035994Y-59575599D01*
X122169505Y-59498516D01*
X122278516Y-59389505D01*
X122278519Y-59389498D01*
X122286456Y-59379157D01*
X122287729Y-59380134D01*
X122337896Y-59326066D01*
X122420337Y-59293708D01*
X122508652Y-59300325D01*
X122585351Y-59344605D01*
X122613147Y-59379461D01*
X122613544Y-59379157D01*
X122621483Y-59389503D01*
X122621484Y-59389505D01*
X122730495Y-59498516D01*
X122864006Y-59575599D01*
X123012917Y-59615500D01*
X123012920Y-59615500D01*
X123167080Y-59615500D01*
X123167083Y-59615500D01*
X123315994Y-59575599D01*
X123449505Y-59498516D01*
X123558516Y-59389505D01*
X123635599Y-59255994D01*
X123675500Y-59107083D01*
X123675500Y-57572917D01*
X123635599Y-57424006D01*
X123629335Y-57413157D01*
X123619307Y-57395787D01*
X123613548Y-57377117D01*
X123603286Y-57360488D01*
X123602663Y-57341832D01*
X123593202Y-57311159D01*
X123594083Y-57272404D01*
X123595774Y-57258410D01*
X123625500Y-57147475D01*
X123625500Y-57012513D01*
X123626938Y-57000618D01*
X123637953Y-56969937D01*
X123645207Y-56938157D01*
X123652767Y-56928676D01*
X123656865Y-56917264D01*
X123680103Y-56894399D01*
X123700426Y-56868916D01*
X123711349Y-56863655D01*
X123719994Y-56855150D01*
X123750847Y-56844633D01*
X123780218Y-56830489D01*
X123798332Y-56828448D01*
X123803822Y-56826577D01*
X123809185Y-56827225D01*
X123824500Y-56825500D01*
X125256020Y-56825500D01*
X125364233Y-56796504D01*
X125364232Y-56796504D01*
X125364237Y-56796503D01*
X125461263Y-56740485D01*
X126317962Y-55883786D01*
X126392950Y-55836667D01*
X126458676Y-55825500D01*
X127833618Y-55825500D01*
X127919961Y-55845207D01*
G37*
%TD.AperFunction*%
%TD*%
M02*
