%TF.GenerationSoftware,KiCad,Pcbnew,9.0.3*%
%TF.CreationDate,2025-08-09T17:03:07-04:00*%
%TF.ProjectId,DC_servo_joint,44435f73-6572-4766-9f5f-6a6f696e742e,rev?*%
%TF.SameCoordinates,Original*%
%TF.FileFunction,Copper,L2,Bot*%
%TF.FilePolarity,Positive*%
%FSLAX46Y46*%
G04 Gerber Fmt 4.6, Leading zero omitted, Abs format (unit mm)*
G04 Created by KiCad (PCBNEW 9.0.3) date 2025-08-09 17:03:07*
%MOMM*%
%LPD*%
G01*
G04 APERTURE LIST*
G04 Aperture macros list*
%AMRoundRect*
0 Rectangle with rounded corners*
0 $1 Rounding radius*
0 $2 $3 $4 $5 $6 $7 $8 $9 X,Y pos of 4 corners*
0 Add a 4 corners polygon primitive as box body*
4,1,4,$2,$3,$4,$5,$6,$7,$8,$9,$2,$3,0*
0 Add four circle primitives for the rounded corners*
1,1,$1+$1,$2,$3*
1,1,$1+$1,$4,$5*
1,1,$1+$1,$6,$7*
1,1,$1+$1,$8,$9*
0 Add four rect primitives between the rounded corners*
20,1,$1+$1,$2,$3,$4,$5,0*
20,1,$1+$1,$4,$5,$6,$7,0*
20,1,$1+$1,$6,$7,$8,$9,0*
20,1,$1+$1,$8,$9,$2,$3,0*%
G04 Aperture macros list end*
%TA.AperFunction,HeatsinkPad*%
%ADD10C,0.600000*%
%TD*%
%TA.AperFunction,ComponentPad*%
%ADD11C,0.630000*%
%TD*%
%TA.AperFunction,SMDPad,CuDef*%
%ADD12R,3.300000X2.600000*%
%TD*%
%TA.AperFunction,ComponentPad*%
%ADD13R,1.700000X1.700000*%
%TD*%
%TA.AperFunction,ComponentPad*%
%ADD14C,1.700000*%
%TD*%
%TA.AperFunction,ComponentPad*%
%ADD15RoundRect,0.250000X0.600000X0.750000X-0.600000X0.750000X-0.600000X-0.750000X0.600000X-0.750000X0*%
%TD*%
%TA.AperFunction,ComponentPad*%
%ADD16O,1.700000X2.000000*%
%TD*%
%TA.AperFunction,SMDPad,CuDef*%
%ADD17RoundRect,0.250000X0.650000X-0.425000X0.650000X0.425000X-0.650000X0.425000X-0.650000X-0.425000X0*%
%TD*%
%TA.AperFunction,ComponentPad*%
%ADD18RoundRect,0.250000X-0.725000X0.600000X-0.725000X-0.600000X0.725000X-0.600000X0.725000X0.600000X0*%
%TD*%
%TA.AperFunction,ComponentPad*%
%ADD19O,1.950000X1.700000*%
%TD*%
%TA.AperFunction,ComponentPad*%
%ADD20RoundRect,0.250001X1.099999X-1.099999X1.099999X1.099999X-1.099999X1.099999X-1.099999X-1.099999X0*%
%TD*%
%TA.AperFunction,ComponentPad*%
%ADD21C,2.700000*%
%TD*%
%TA.AperFunction,ComponentPad*%
%ADD22RoundRect,0.250000X-0.388909X-0.673610X0.673610X-0.388909X0.388909X0.673610X-0.673610X0.388909X0*%
%TD*%
%TA.AperFunction,ComponentPad*%
%ADD23C,1.600000*%
%TD*%
%TA.AperFunction,SMDPad,CuDef*%
%ADD24RoundRect,0.250000X-0.425000X-0.650000X0.425000X-0.650000X0.425000X0.650000X-0.425000X0.650000X0*%
%TD*%
%TA.AperFunction,ComponentPad*%
%ADD25RoundRect,0.250001X-1.099999X1.099999X-1.099999X-1.099999X1.099999X-1.099999X1.099999X1.099999X0*%
%TD*%
%TA.AperFunction,ComponentPad*%
%ADD26RoundRect,0.250000X0.725000X-0.600000X0.725000X0.600000X-0.725000X0.600000X-0.725000X-0.600000X0*%
%TD*%
%TA.AperFunction,ViaPad*%
%ADD27C,0.600000*%
%TD*%
%TA.AperFunction,ViaPad*%
%ADD28C,0.500000*%
%TD*%
%TA.AperFunction,ViaPad*%
%ADD29C,0.400000*%
%TD*%
%TA.AperFunction,Conductor*%
%ADD30C,0.350000*%
%TD*%
%TA.AperFunction,Conductor*%
%ADD31C,0.250000*%
%TD*%
%TA.AperFunction,Conductor*%
%ADD32C,0.500000*%
%TD*%
%TA.AperFunction,Conductor*%
%ADD33C,1.000000*%
%TD*%
G04 APERTURE END LIST*
D10*
%TO.P,U2,19,GND*%
%TO.N,GND*%
X124950000Y-75160000D03*
X123850000Y-75160000D03*
X125500000Y-75710000D03*
X124400000Y-75710000D03*
X123300000Y-75710000D03*
X124950000Y-76260000D03*
X123850000Y-76260000D03*
X125500000Y-76810000D03*
X124400000Y-76810000D03*
X123300000Y-76810000D03*
X124950000Y-77360000D03*
X123850000Y-77360000D03*
%TD*%
D11*
%TO.P,U_MOTOR_1,9,GND*%
%TO.N,GND*%
X113550000Y-81700000D03*
X112250000Y-81700000D03*
X110950000Y-81700000D03*
D12*
X112250000Y-82350000D03*
D11*
X113550000Y-83000000D03*
X112250000Y-83000000D03*
X110950000Y-83000000D03*
%TD*%
D13*
%TO.P,J_USB1,1,Pin_1*%
%TO.N,unconnected-(J_USB1-Pin_1-Pad1)*%
X117120000Y-87000000D03*
D14*
%TO.P,J_USB1,2,Pin_2*%
%TO.N,/usb_5v*%
X117120000Y-89540000D03*
%TO.P,J_USB1,3,Pin_3*%
%TO.N,/D-*%
X119660000Y-87000000D03*
%TO.P,J_USB1,4,Pin_4*%
%TO.N,unconnected-(J_USB1-Pin_4-Pad4)*%
X119660000Y-89540000D03*
%TO.P,J_USB1,5,Pin_5*%
%TO.N,/D+*%
X122200000Y-87000000D03*
%TO.P,J_USB1,6,Pin_6*%
%TO.N,GND*%
X122200000Y-89540000D03*
%TD*%
D15*
%TO.P,J_MOT1,1*%
%TO.N,/Mot2*%
X114100000Y-93300000D03*
D16*
%TO.P,J_MOT1,2*%
%TO.N,/Mot1*%
X111600000Y-93300000D03*
%TD*%
D17*
%TO.P,S2,1,A*%
%TO.N,/BOOT_BTM*%
X118450000Y-63275000D03*
%TO.P,S2,2,B*%
%TO.N,GND*%
X118450000Y-59125000D03*
%TD*%
D18*
%TO.P,J_BUS1,1*%
%TO.N,/RS485A*%
X129155000Y-52900000D03*
D19*
%TO.P,J_BUS1,2*%
%TO.N,/RS485B*%
X129155000Y-55400000D03*
%TO.P,J_BUS1,3*%
%TO.N,/UART_TX*%
X129155000Y-57900000D03*
%TD*%
D20*
%TO.P,J_PWR1,1*%
%TO.N,+12V*%
X105600000Y-96930000D03*
D21*
%TO.P,J_PWR1,2*%
%TO.N,GND*%
X105600000Y-92970000D03*
%TD*%
D22*
%TO.P,C15,1*%
%TO.N,+12V*%
X104219260Y-85630867D03*
D23*
%TO.P,C15,2*%
%TO.N,GND*%
X107600000Y-84725000D03*
%TD*%
D24*
%TO.P,S1,1,A*%
%TO.N,/RST_BTM*%
X124500000Y-72950000D03*
%TO.P,S1,2,B*%
%TO.N,GND*%
X128650000Y-72950000D03*
%TD*%
D25*
%TO.P,J_PWR2,1*%
%TO.N,GND*%
X128800000Y-92970000D03*
D21*
%TO.P,J_PWR2,2*%
%TO.N,+12V*%
X128800000Y-96930000D03*
%TD*%
D15*
%TO.P,J_NTC1,1*%
%TO.N,/NTC_PIN*%
X123100000Y-93350000D03*
D16*
%TO.P,J_NTC1,2*%
%TO.N,GND*%
X120600000Y-93350000D03*
%TD*%
D26*
%TO.P,J_BUS2,1*%
%TO.N,/RS485A*%
X105800000Y-57900000D03*
D19*
%TO.P,J_BUS2,2*%
%TO.N,/RS485B*%
X105800000Y-55400000D03*
%TO.P,J_BUS2,3*%
%TO.N,/UART_RX*%
X105800000Y-52900000D03*
%TD*%
D27*
%TO.N,GND*%
X148250000Y-71475000D03*
D28*
X112150000Y-76850000D03*
D27*
X144500000Y-76600000D03*
X143300000Y-80000000D03*
X143300000Y-83850000D03*
D28*
X131000000Y-61000000D03*
X134000000Y-61000000D03*
X137000000Y-61000000D03*
X140000000Y-61000000D03*
X143000000Y-61750000D03*
X128250000Y-59500000D03*
X134000000Y-59250000D03*
D27*
X150750000Y-75500000D03*
X147250000Y-77750000D03*
X149000000Y-76250000D03*
X151500000Y-71500000D03*
X150500000Y-66750000D03*
X151750000Y-68250000D03*
X148250000Y-68250000D03*
X108650000Y-59350000D03*
X110000000Y-94600000D03*
X143000000Y-87900000D03*
D28*
X121450000Y-92200000D03*
D27*
X108400000Y-90800000D03*
D28*
X135750000Y-55450000D03*
D27*
X112250000Y-72250000D03*
D28*
X104800000Y-77800000D03*
X105800000Y-51150000D03*
D27*
X129534832Y-81253627D03*
X106000000Y-84000000D03*
X115800000Y-90800000D03*
X134500000Y-98700000D03*
X134850000Y-89600000D03*
D28*
X128500000Y-65300000D03*
D27*
X130900000Y-94500000D03*
X135700000Y-93350000D03*
X148000000Y-66750000D03*
X138700000Y-92100000D03*
D28*
X106800000Y-78800000D03*
D27*
X153000000Y-68200000D03*
X124600000Y-94600000D03*
X119900000Y-72300000D03*
X149550000Y-78600000D03*
X141800000Y-92100000D03*
X110100000Y-90800000D03*
X115800000Y-72600000D03*
D28*
X137000000Y-59250000D03*
D27*
X103650000Y-59250000D03*
X126350000Y-61350000D03*
X104550000Y-66150000D03*
X107400000Y-65500000D03*
X126800000Y-91900000D03*
X112850000Y-55350000D03*
X119600000Y-94600000D03*
X122400000Y-73700000D03*
D28*
X140000000Y-59250000D03*
D27*
X126100000Y-70800000D03*
X104600000Y-79200000D03*
D28*
X131400000Y-51150000D03*
D27*
X109050000Y-52200000D03*
X135700000Y-97450000D03*
X107700000Y-83300000D03*
X111450000Y-74900000D03*
X153000000Y-72250000D03*
X118600000Y-68050000D03*
X125200000Y-79500000D03*
X116250000Y-58050000D03*
X112900000Y-87150000D03*
X108700000Y-64900000D03*
D28*
X110800000Y-51150000D03*
D27*
X119700000Y-55250000D03*
X104300000Y-68400000D03*
X117200000Y-74750000D03*
D28*
X125100000Y-64800000D03*
X135750000Y-51150000D03*
D27*
X114100000Y-70900000D03*
X143300000Y-70000000D03*
D29*
X114600000Y-76850000D03*
D28*
X112800000Y-94500000D03*
D27*
X128800000Y-90250000D03*
X114000000Y-68000000D03*
X109200000Y-82300000D03*
X131100000Y-86800000D03*
X105700000Y-90800000D03*
X107350000Y-66900000D03*
X128100000Y-91100000D03*
X100800000Y-59700000D03*
X119400000Y-92200000D03*
D29*
X116900000Y-76850000D03*
D27*
X143300000Y-66150000D03*
X131000000Y-90700000D03*
X113800000Y-58100000D03*
X101350000Y-71350000D03*
X124350000Y-55250000D03*
X127125000Y-81250000D03*
X144500000Y-73400000D03*
D29*
X114650000Y-75150000D03*
D28*
X100800000Y-56000000D03*
D27*
X125100000Y-58350000D03*
D28*
X121400000Y-51150000D03*
D27*
X129325000Y-62975000D03*
D28*
X108350000Y-76850000D03*
D27*
X105000000Y-65450000D03*
D28*
X126400000Y-51150000D03*
D27*
X106150000Y-65500000D03*
X112900000Y-87850000D03*
X139900000Y-89600000D03*
X109150000Y-57300000D03*
D28*
X143000000Y-59250000D03*
D27*
X115800000Y-94600000D03*
X119200000Y-61000000D03*
X119500000Y-76500000D03*
X118600000Y-65300000D03*
X108900000Y-66000000D03*
D28*
X123800000Y-68100000D03*
D27*
X116700000Y-73500000D03*
X126900000Y-94600000D03*
D28*
X129650000Y-61325000D03*
X107400000Y-75200000D03*
X131000000Y-59250000D03*
D27*
X111100000Y-53850000D03*
X153000000Y-81800000D03*
X131900000Y-98700000D03*
X110000000Y-92800000D03*
%TO.N,+12V*%
X108800000Y-98700000D03*
X125700000Y-98700000D03*
X102700000Y-88500000D03*
X121500000Y-98650000D03*
X121500000Y-95350000D03*
X130400000Y-95500000D03*
X116900000Y-95400000D03*
X100850000Y-81800000D03*
X130500000Y-98700000D03*
X108800000Y-95400000D03*
X100750000Y-87050000D03*
X112800000Y-95750000D03*
X100900000Y-98700000D03*
X100900000Y-91600000D03*
X125700000Y-95400000D03*
X112800000Y-98700000D03*
X116900000Y-98700000D03*
X100900000Y-95600000D03*
X100800000Y-75100000D03*
%TO.N,/RST_BTM*%
X121400000Y-71400000D03*
X124200000Y-71400000D03*
D28*
%TO.N,/TPS_SW*%
X108950000Y-68800000D03*
X111900000Y-65100000D03*
X111300000Y-65100000D03*
X110950000Y-68400000D03*
X110600000Y-66400000D03*
X110600000Y-65800000D03*
X110700000Y-65100000D03*
X110100000Y-65100000D03*
D27*
%TO.N,/usb_5v*%
X115750000Y-74900000D03*
X115750000Y-79000000D03*
D28*
%TO.N,/RS485A*%
X123075000Y-57075000D03*
D27*
X111000000Y-56400000D03*
%TO.N,/UART_RX*%
X121100000Y-59800000D03*
X109600000Y-54400000D03*
%TO.N,+3.3V*%
X132800000Y-90500000D03*
X129900000Y-82600000D03*
X128900000Y-86000000D03*
X127100000Y-69300000D03*
X122450000Y-69300000D03*
D28*
%TO.N,/BOOT_BTM*%
X119300000Y-64550000D03*
%TD*%
D30*
%TO.N,GND*%
X130800000Y-94600000D02*
X130900000Y-94500000D01*
D31*
X105600000Y-94500000D02*
X105750000Y-94650000D01*
D30*
X110076000Y-94676000D02*
X110000000Y-94600000D01*
X126900000Y-94600000D02*
X128750000Y-94600000D01*
X112800000Y-94500000D02*
X112624000Y-94676000D01*
X115800000Y-94600000D02*
X115724000Y-94676000D01*
X128800000Y-94550000D02*
X128800000Y-92970000D01*
X112624000Y-94676000D02*
X110076000Y-94676000D01*
D31*
X105600000Y-92970000D02*
X105600000Y-94500000D01*
X105750000Y-94650000D02*
X106450000Y-94650000D01*
D30*
X115724000Y-94676000D02*
X112976000Y-94676000D01*
X112976000Y-94676000D02*
X112800000Y-94500000D01*
X128750000Y-94600000D02*
X130800000Y-94600000D01*
D31*
X119600000Y-94600000D02*
X120600000Y-94600000D01*
X120600000Y-94600000D02*
X120600000Y-93350000D01*
D30*
X128750000Y-94600000D02*
X128800000Y-94550000D01*
D31*
X105600000Y-92970000D02*
X105600000Y-90900000D01*
X105600000Y-90900000D02*
X105700000Y-90800000D01*
D30*
%TO.N,+12V*%
X105600000Y-98700000D02*
X108800000Y-98700000D01*
X130500000Y-98700000D02*
X125700000Y-98700000D01*
D32*
X100800000Y-86100000D02*
X102050000Y-86100000D01*
D33*
X100800000Y-86300000D02*
X100800000Y-75500000D01*
D30*
X101000000Y-95500000D02*
X100900000Y-95600000D01*
X105600000Y-98700000D02*
X105600000Y-96930000D01*
D33*
X100800000Y-75500000D02*
X100800000Y-75100000D01*
D30*
X108700000Y-95500000D02*
X101000000Y-95500000D01*
X108800000Y-95400000D02*
X108700000Y-95500000D01*
X100900000Y-98700000D02*
X105600000Y-98700000D01*
D31*
%TO.N,/RST_BTM*%
X121600000Y-71400000D02*
X121400000Y-71400000D01*
X124200000Y-71400000D02*
X124200000Y-72650000D01*
X124200000Y-71400000D02*
X121600000Y-71400000D01*
D32*
%TO.N,/usb_5v*%
X115750000Y-79000000D02*
X115750000Y-74900000D01*
D31*
%TO.N,/RS485A*%
X125200000Y-56400000D02*
X128700000Y-52900000D01*
X123075000Y-56425000D02*
X123100000Y-56400000D01*
X123100000Y-56400000D02*
X125200000Y-56400000D01*
X123075000Y-57075000D02*
X123075000Y-56425000D01*
X111000000Y-56400000D02*
X123100000Y-56400000D01*
%TO.N,/UART_RX*%
X121100000Y-57500000D02*
X121000000Y-57400000D01*
X121000000Y-57400000D02*
X120800000Y-57200000D01*
X120800000Y-57200000D02*
X120600000Y-57200000D01*
X121100000Y-59800000D02*
X121100000Y-57500000D01*
X110000000Y-56700000D02*
X109600000Y-56300000D01*
X120600000Y-57200000D02*
X110500000Y-57200000D01*
X109600000Y-56300000D02*
X109600000Y-54400000D01*
X110500000Y-57200000D02*
X110000000Y-56700000D01*
D32*
%TO.N,+3.3V*%
X132800000Y-90500000D02*
X132545032Y-90500000D01*
X131872516Y-89827484D02*
X128900000Y-86854968D01*
D33*
X122450000Y-69300000D02*
X125300000Y-69300000D01*
D32*
X128900000Y-83600000D02*
X129900000Y-82600000D01*
X132545032Y-90500000D02*
X131872516Y-89827484D01*
X128900000Y-86000000D02*
X128900000Y-83600000D01*
D33*
X125250000Y-69300000D02*
X127100000Y-69300000D01*
X125300000Y-69300000D02*
X125250000Y-69300000D01*
D32*
X128900000Y-86854968D02*
X128900000Y-86000000D01*
D31*
%TO.N,/BOOT_BTM*%
X118450000Y-63700000D02*
X119300000Y-64550000D01*
%TD*%
%TA.AperFunction,Conductor*%
%TO.N,GND*%
G36*
X137357115Y-92699500D02*
G01*
X136921155Y-92699500D01*
X136766510Y-92730261D01*
X136766498Y-92730264D01*
X136620827Y-92790602D01*
X136620814Y-92790609D01*
X136489711Y-92878210D01*
X136489707Y-92878213D01*
X136378213Y-92989707D01*
X136378210Y-92989711D01*
X136290609Y-93120814D01*
X136290602Y-93120827D01*
X136230264Y-93266498D01*
X136230261Y-93266510D01*
X136199500Y-93421153D01*
X136199500Y-97676000D01*
X136179815Y-97743039D01*
X136127011Y-97788794D01*
X136075500Y-97800000D01*
X134800000Y-97800000D01*
X134800000Y-99075500D01*
X134780315Y-99142539D01*
X134727511Y-99188294D01*
X134676000Y-99199500D01*
X131579500Y-99199500D01*
X131512461Y-99179815D01*
X131466706Y-99127011D01*
X131455500Y-99075500D01*
X131455500Y-95424508D01*
X131455499Y-95424492D01*
X131443946Y-95317043D01*
X131443945Y-95317036D01*
X131439759Y-95297795D01*
X131439591Y-95297022D01*
X131439547Y-95297031D01*
X131438067Y-95291687D01*
X131435138Y-95265690D01*
X131423856Y-95238844D01*
X131398613Y-95162997D01*
X131380848Y-95135355D01*
X131378852Y-95132141D01*
X131372481Y-95121528D01*
X131372480Y-95121526D01*
X131343445Y-95073157D01*
X131343443Y-95073153D01*
X131335561Y-95063474D01*
X131334670Y-95062363D01*
X131330827Y-95057521D01*
X131320825Y-95041957D01*
X131304721Y-95023372D01*
X131304131Y-95023882D01*
X131292892Y-95009719D01*
X131275843Y-94990043D01*
X131273402Y-94987137D01*
X131252612Y-94961605D01*
X131252608Y-94961601D01*
X131213967Y-94935061D01*
X131213958Y-94935055D01*
X131207600Y-94930688D01*
X131166343Y-94894938D01*
X131134125Y-94880223D01*
X131134009Y-94880144D01*
X131125765Y-94876069D01*
X131125760Y-94876066D01*
X131078213Y-94852567D01*
X131078213Y-94852566D01*
X131078206Y-94852565D01*
X131076460Y-94851702D01*
X131072677Y-94849611D01*
X131064000Y-94846772D01*
X131059617Y-94845337D01*
X131046681Y-94840286D01*
X131035466Y-94835165D01*
X131035465Y-94835164D01*
X131035457Y-94835161D01*
X130973721Y-94817032D01*
X130971854Y-94816625D01*
X130934602Y-94804438D01*
X130923988Y-94802579D01*
X130897455Y-94800273D01*
X130896083Y-94800000D01*
X131400000Y-94800000D01*
X131400000Y-90416336D01*
X132066612Y-91082948D01*
X132066616Y-91082951D01*
X132189530Y-91165080D01*
X132189543Y-91165087D01*
X132296501Y-91209390D01*
X132326119Y-91221658D01*
X132326123Y-91221658D01*
X132326124Y-91221659D01*
X132471111Y-91250500D01*
X132471114Y-91250500D01*
X132495396Y-91250500D01*
X132542844Y-91259937D01*
X132566503Y-91269737D01*
X132566508Y-91269738D01*
X132566511Y-91269739D01*
X132721153Y-91300499D01*
X132721156Y-91300500D01*
X132721158Y-91300500D01*
X132878844Y-91300500D01*
X132878845Y-91300499D01*
X133033497Y-91269737D01*
X133179179Y-91209394D01*
X133310289Y-91121789D01*
X133421789Y-91010289D01*
X133509394Y-90879179D01*
X133569737Y-90733497D01*
X133600500Y-90578842D01*
X133600500Y-90421158D01*
X133600500Y-90421155D01*
X133600499Y-90421153D01*
X133569737Y-90266503D01*
X133569735Y-90266498D01*
X133509397Y-90120827D01*
X133509390Y-90120814D01*
X133421789Y-89989711D01*
X133421786Y-89989707D01*
X133310292Y-89878213D01*
X133310288Y-89878210D01*
X133179185Y-89790609D01*
X133179172Y-89790602D01*
X133033501Y-89730264D01*
X133033489Y-89730261D01*
X132878845Y-89699500D01*
X132878842Y-89699500D01*
X132857261Y-89699500D01*
X132827820Y-89690855D01*
X132797834Y-89684332D01*
X132792818Y-89680577D01*
X132790222Y-89679815D01*
X132769580Y-89663181D01*
X132618080Y-89511681D01*
X132584595Y-89450358D01*
X132589579Y-89380666D01*
X132631451Y-89324733D01*
X132696915Y-89300316D01*
X132705761Y-89300000D01*
X137360545Y-89300000D01*
X137357115Y-92699500D01*
G37*
%TD.AperFunction*%
%TD*%
%TA.AperFunction,Conductor*%
%TO.N,+12V*%
G36*
X101321617Y-84119685D02*
G01*
X101334671Y-84129337D01*
X102600000Y-85200000D01*
X102669552Y-85198550D01*
X102736984Y-85216833D01*
X102783829Y-85268672D01*
X102794550Y-85302770D01*
X102808269Y-85387792D01*
X102808270Y-85387797D01*
X102860028Y-85580960D01*
X103995957Y-85276590D01*
X104031422Y-85277434D01*
X103973654Y-85310787D01*
X103899180Y-85385261D01*
X103846519Y-85476473D01*
X103819260Y-85578206D01*
X103819260Y-85683528D01*
X103846519Y-85785261D01*
X103899180Y-85876473D01*
X103973654Y-85950947D01*
X104064866Y-86003608D01*
X104166599Y-86030867D01*
X104271921Y-86030867D01*
X104373654Y-86003608D01*
X104464866Y-85950947D01*
X104539340Y-85876473D01*
X104592001Y-85785261D01*
X104619260Y-85683528D01*
X104619260Y-85611299D01*
X104637723Y-85647113D01*
X104942095Y-86783041D01*
X104957872Y-86792150D01*
X105006088Y-86842717D01*
X105019864Y-86898128D01*
X105049406Y-89497814D01*
X105030484Y-89565073D01*
X105013095Y-89586904D01*
X104050000Y-90549999D01*
X104050000Y-91920452D01*
X104033387Y-91982452D01*
X103936777Y-92149784D01*
X103936773Y-92149794D01*
X103843947Y-92373895D01*
X103781161Y-92608214D01*
X103749500Y-92848711D01*
X103749500Y-93091288D01*
X103781161Y-93331785D01*
X103843947Y-93566104D01*
X103936774Y-93790208D01*
X103936776Y-93790212D01*
X104033388Y-93957549D01*
X104050000Y-94019546D01*
X104050000Y-95300000D01*
X100250000Y-95300000D01*
X100289939Y-86353702D01*
X103067084Y-86353702D01*
X103118843Y-86546866D01*
X103155567Y-86643374D01*
X103251904Y-86789847D01*
X103251905Y-86789848D01*
X103379429Y-86910161D01*
X103379435Y-86910165D01*
X103531267Y-86997825D01*
X103699227Y-87048110D01*
X103699232Y-87048111D01*
X103874252Y-87058305D01*
X103976185Y-87041857D01*
X103976190Y-87041856D01*
X104169353Y-86990097D01*
X103936416Y-86120764D01*
X103067084Y-86353702D01*
X100289939Y-86353702D01*
X100299449Y-84223446D01*
X100319433Y-84156495D01*
X100372441Y-84110977D01*
X100423448Y-84100000D01*
X101254578Y-84100000D01*
X101321617Y-84119685D01*
G37*
%TD.AperFunction*%
%TD*%
%TA.AperFunction,Conductor*%
%TO.N,GND*%
G36*
X142843039Y-57320185D02*
G01*
X142888794Y-57372989D01*
X142900000Y-57424500D01*
X142900000Y-58700000D01*
X144900000Y-58700000D01*
X144900000Y-57424500D01*
X144919685Y-57357461D01*
X144972489Y-57311706D01*
X145024000Y-57300500D01*
X147891197Y-57300500D01*
X147915862Y-57300500D01*
X147915863Y-57300501D01*
X147996519Y-57300501D01*
X148003471Y-57300696D01*
X148295305Y-57317085D01*
X148309103Y-57318639D01*
X148593828Y-57367016D01*
X148607384Y-57370110D01*
X148884899Y-57450061D01*
X148898023Y-57454654D01*
X149164832Y-57565169D01*
X149177354Y-57571198D01*
X149372162Y-57678865D01*
X149430124Y-57710900D01*
X149441898Y-57718298D01*
X149677429Y-57885416D01*
X149688301Y-57894086D01*
X149903641Y-58086525D01*
X149913474Y-58096358D01*
X150105913Y-58311698D01*
X150114583Y-58322570D01*
X150281701Y-58558101D01*
X150289099Y-58569875D01*
X150428797Y-58822638D01*
X150434830Y-58835167D01*
X150545345Y-59101976D01*
X150549938Y-59115100D01*
X150629889Y-59392615D01*
X150632983Y-59406172D01*
X150681358Y-59690886D01*
X150682915Y-59704704D01*
X150699303Y-59996510D01*
X150699498Y-60003463D01*
X150699498Y-62981980D01*
X150696761Y-63042748D01*
X150699498Y-63060694D01*
X150699498Y-63078841D01*
X150710819Y-63135758D01*
X150711783Y-63141252D01*
X150720533Y-63198622D01*
X150720535Y-63198633D01*
X150723517Y-63206860D01*
X150726720Y-63215697D01*
X150730261Y-63233498D01*
X150753533Y-63289684D01*
X150754482Y-63292301D01*
X150774263Y-63346879D01*
X150774267Y-63346888D01*
X150778790Y-63354365D01*
X150783657Y-63362410D01*
X150790604Y-63379180D01*
X150824395Y-63429752D01*
X150825846Y-63432150D01*
X150825846Y-63432151D01*
X155667837Y-71436259D01*
X155670527Y-71441259D01*
X155714864Y-71514001D01*
X155717148Y-71517907D01*
X155952659Y-71938056D01*
X155956792Y-71946104D01*
X156160070Y-72380232D01*
X156163605Y-72388560D01*
X156334691Y-72836361D01*
X156337609Y-72844924D01*
X156475585Y-73303994D01*
X156477872Y-73312748D01*
X156582013Y-73780674D01*
X156583655Y-73789571D01*
X156653401Y-74263850D01*
X156654389Y-74272843D01*
X156689365Y-74750914D01*
X156689696Y-74759956D01*
X156689721Y-75239335D01*
X156689391Y-75248376D01*
X156654464Y-75726465D01*
X156653477Y-75735453D01*
X156583779Y-76209752D01*
X156582142Y-76218628D01*
X156478054Y-76686552D01*
X156475769Y-76695306D01*
X156337835Y-77154412D01*
X156334918Y-77162976D01*
X156163885Y-77610781D01*
X156160350Y-77619109D01*
X155957112Y-78053270D01*
X155952980Y-78061319D01*
X155717533Y-78481456D01*
X155715461Y-78485014D01*
X155715233Y-78485389D01*
X155672638Y-78555293D01*
X155672204Y-78556526D01*
X155668254Y-78563057D01*
X155668252Y-78563058D01*
X155668251Y-78563061D01*
X150825851Y-86567844D01*
X150822858Y-86572550D01*
X150790607Y-86620818D01*
X150790603Y-86620826D01*
X150787250Y-86628920D01*
X150787249Y-86628919D01*
X150783654Y-86637598D01*
X150774265Y-86653121D01*
X150753547Y-86710282D01*
X150752487Y-86712844D01*
X150752476Y-86712873D01*
X150730261Y-86766508D01*
X150730260Y-86766512D01*
X150728554Y-86775084D01*
X150728555Y-86775085D01*
X150726720Y-86784307D01*
X150720537Y-86801370D01*
X150711371Y-86861466D01*
X150710824Y-86864217D01*
X150710824Y-86864218D01*
X150699500Y-86921156D01*
X150699500Y-86921158D01*
X150699500Y-86939306D01*
X150696763Y-86957253D01*
X150699500Y-87018020D01*
X150699500Y-89996519D01*
X150699305Y-90003472D01*
X150682916Y-90295296D01*
X150681359Y-90309114D01*
X150632984Y-90593827D01*
X150629890Y-90607384D01*
X150549939Y-90884899D01*
X150545346Y-90898024D01*
X150434830Y-91164834D01*
X150428797Y-91177362D01*
X150289100Y-91430125D01*
X150281702Y-91441899D01*
X150114584Y-91677430D01*
X150105914Y-91688302D01*
X149913475Y-91903642D01*
X149903642Y-91913475D01*
X149688302Y-92105914D01*
X149677430Y-92114584D01*
X149441899Y-92281702D01*
X149430125Y-92289100D01*
X149177362Y-92428797D01*
X149164834Y-92434830D01*
X148898024Y-92545346D01*
X148884899Y-92549939D01*
X148607384Y-92629890D01*
X148593827Y-92632984D01*
X148309114Y-92681359D01*
X148295296Y-92682916D01*
X148003472Y-92699305D01*
X147996519Y-92699500D01*
X137357115Y-92699500D01*
X137359961Y-89878711D01*
X146149500Y-89878711D01*
X146149500Y-90121288D01*
X146181161Y-90361785D01*
X146243947Y-90596104D01*
X146336773Y-90820205D01*
X146336776Y-90820212D01*
X146458064Y-91030289D01*
X146458066Y-91030292D01*
X146458067Y-91030293D01*
X146605733Y-91222736D01*
X146605739Y-91222743D01*
X146777256Y-91394260D01*
X146777262Y-91394265D01*
X146969711Y-91541936D01*
X147179788Y-91663224D01*
X147403900Y-91756054D01*
X147638211Y-91818838D01*
X147818586Y-91842584D01*
X147878711Y-91850500D01*
X147878712Y-91850500D01*
X148121289Y-91850500D01*
X148169388Y-91844167D01*
X148361789Y-91818838D01*
X148596100Y-91756054D01*
X148820212Y-91663224D01*
X149030289Y-91541936D01*
X149222738Y-91394265D01*
X149394265Y-91222738D01*
X149541936Y-91030289D01*
X149663224Y-90820212D01*
X149756054Y-90596100D01*
X149818838Y-90361789D01*
X149850500Y-90121288D01*
X149850500Y-89878712D01*
X149818838Y-89638211D01*
X149756054Y-89403900D01*
X149663224Y-89179788D01*
X149541936Y-88969711D01*
X149394265Y-88777262D01*
X149394260Y-88777256D01*
X149222743Y-88605739D01*
X149222736Y-88605733D01*
X149030293Y-88458067D01*
X149030292Y-88458066D01*
X149030289Y-88458064D01*
X148820212Y-88336776D01*
X148820205Y-88336773D01*
X148596104Y-88243947D01*
X148361785Y-88181161D01*
X148121289Y-88149500D01*
X148121288Y-88149500D01*
X147878712Y-88149500D01*
X147878711Y-88149500D01*
X147638214Y-88181161D01*
X147403895Y-88243947D01*
X147179794Y-88336773D01*
X147179785Y-88336777D01*
X146969706Y-88458067D01*
X146777263Y-88605733D01*
X146777256Y-88605739D01*
X146605739Y-88777256D01*
X146605733Y-88777263D01*
X146458067Y-88969706D01*
X146336777Y-89179785D01*
X146336773Y-89179794D01*
X146243947Y-89403895D01*
X146181161Y-89638214D01*
X146149500Y-89878711D01*
X137359961Y-89878711D01*
X137360545Y-89300000D01*
X142700000Y-89300000D01*
X142700000Y-61300000D01*
X137388799Y-61300000D01*
X137390233Y-59878711D01*
X146149500Y-59878711D01*
X146149500Y-60121288D01*
X146181161Y-60361785D01*
X146243947Y-60596104D01*
X146336773Y-60820205D01*
X146336776Y-60820212D01*
X146458064Y-61030289D01*
X146458066Y-61030292D01*
X146458067Y-61030293D01*
X146605733Y-61222736D01*
X146605739Y-61222743D01*
X146777256Y-61394260D01*
X146777262Y-61394265D01*
X146969711Y-61541936D01*
X147179788Y-61663224D01*
X147403900Y-61756054D01*
X147638211Y-61818838D01*
X147818586Y-61842584D01*
X147878711Y-61850500D01*
X147878712Y-61850500D01*
X148121289Y-61850500D01*
X148169388Y-61844167D01*
X148361789Y-61818838D01*
X148596100Y-61756054D01*
X148820212Y-61663224D01*
X149030289Y-61541936D01*
X149222738Y-61394265D01*
X149394265Y-61222738D01*
X149541936Y-61030289D01*
X149663224Y-60820212D01*
X149756054Y-60596100D01*
X149818838Y-60361789D01*
X149850500Y-60121288D01*
X149850500Y-59878712D01*
X149818838Y-59638211D01*
X149756054Y-59403900D01*
X149663224Y-59179788D01*
X149541936Y-58969711D01*
X149394265Y-58777262D01*
X149394260Y-58777256D01*
X149222743Y-58605739D01*
X149222736Y-58605733D01*
X149030293Y-58458067D01*
X149030292Y-58458066D01*
X149030289Y-58458064D01*
X148820212Y-58336776D01*
X148772203Y-58316890D01*
X148596104Y-58243947D01*
X148361785Y-58181161D01*
X148121289Y-58149500D01*
X148121288Y-58149500D01*
X147878712Y-58149500D01*
X147878711Y-58149500D01*
X147638214Y-58181161D01*
X147403895Y-58243947D01*
X147179794Y-58336773D01*
X147179785Y-58336777D01*
X146969706Y-58458067D01*
X146777263Y-58605733D01*
X146777256Y-58605739D01*
X146605739Y-58777256D01*
X146605733Y-58777263D01*
X146458067Y-58969706D01*
X146336777Y-59179785D01*
X146336773Y-59179794D01*
X146243947Y-59403895D01*
X146181161Y-59638214D01*
X146149500Y-59878711D01*
X137390233Y-59878711D01*
X137392834Y-57300500D01*
X142776000Y-57300500D01*
X142843039Y-57320185D01*
G37*
%TD.AperFunction*%
%TD*%
%TA.AperFunction,Conductor*%
%TO.N,GND*%
G36*
X107882842Y-84235101D02*
G01*
X108486268Y-84073414D01*
X108439030Y-84008395D01*
X108316602Y-83885967D01*
X108176524Y-83784195D01*
X108022257Y-83705591D01*
X107857585Y-83652086D01*
X107844415Y-83650000D01*
X109550000Y-83650000D01*
X110050000Y-84000000D01*
X114800000Y-84000000D01*
X116600000Y-83685000D01*
X116600000Y-85400000D01*
X128149500Y-85400000D01*
X128149500Y-85695396D01*
X128140062Y-85742844D01*
X128130263Y-85766503D01*
X128130262Y-85766506D01*
X128130260Y-85766511D01*
X128099500Y-85921153D01*
X128099500Y-86078846D01*
X128130261Y-86233489D01*
X128130263Y-86233497D01*
X128140061Y-86257151D01*
X128149500Y-86304604D01*
X128149500Y-86928886D01*
X128149500Y-86928888D01*
X128149499Y-86928888D01*
X128178340Y-87073875D01*
X128178343Y-87073885D01*
X128234914Y-87210460D01*
X128267812Y-87259695D01*
X128267813Y-87259698D01*
X128317046Y-87333382D01*
X128317052Y-87333389D01*
X131285223Y-90301558D01*
X131285233Y-90301569D01*
X131289563Y-90305899D01*
X131289564Y-90305900D01*
X131400000Y-90416335D01*
X131400000Y-94800000D01*
X130896083Y-94800000D01*
X130889712Y-94798732D01*
X130889644Y-94798718D01*
X130804672Y-94781816D01*
X130793293Y-94779689D01*
X130791885Y-94779442D01*
X130750163Y-94773985D01*
X130718795Y-94765594D01*
X130693406Y-94755078D01*
X130633497Y-94730263D01*
X130633493Y-94730262D01*
X130633488Y-94730260D01*
X130478845Y-94699500D01*
X130478842Y-94699500D01*
X130348855Y-94699500D01*
X130281816Y-94679815D01*
X130236061Y-94627011D01*
X130226117Y-94557853D01*
X130255142Y-94494297D01*
X130273930Y-94476696D01*
X130292564Y-94462564D01*
X130383920Y-94342093D01*
X130383921Y-94342091D01*
X130439385Y-94201445D01*
X130450000Y-94113052D01*
X130450000Y-93370000D01*
X129554348Y-93370000D01*
X129617335Y-93217936D01*
X129650000Y-93053718D01*
X129650000Y-92886282D01*
X129617335Y-92722064D01*
X129554348Y-92570000D01*
X130449999Y-92570000D01*
X130449999Y-91826947D01*
X130439386Y-91738556D01*
X130439384Y-91738552D01*
X130383921Y-91597908D01*
X130383920Y-91597906D01*
X130292564Y-91477435D01*
X130172093Y-91386079D01*
X130172091Y-91386078D01*
X130031445Y-91330614D01*
X129943053Y-91320000D01*
X129200000Y-91320000D01*
X129200000Y-92215652D01*
X129047936Y-92152665D01*
X128883718Y-92120000D01*
X128716282Y-92120000D01*
X128552064Y-92152665D01*
X128400000Y-92215652D01*
X128400000Y-91320000D01*
X127656947Y-91320000D01*
X127568556Y-91330613D01*
X127568552Y-91330615D01*
X127427908Y-91386078D01*
X127427906Y-91386079D01*
X127307435Y-91477435D01*
X127216079Y-91597906D01*
X127216078Y-91597908D01*
X127160614Y-91738554D01*
X127150000Y-91826947D01*
X127150000Y-92570000D01*
X128045652Y-92570000D01*
X127982665Y-92722064D01*
X127950000Y-92886282D01*
X127950000Y-93053718D01*
X127982665Y-93217936D01*
X128045652Y-93370000D01*
X127150001Y-93370000D01*
X127150001Y-94113052D01*
X127160613Y-94201443D01*
X127160615Y-94201447D01*
X127216078Y-94342091D01*
X127216079Y-94342093D01*
X127307435Y-94462564D01*
X127419855Y-94547815D01*
X127431833Y-94564024D01*
X127447415Y-94576813D01*
X127452174Y-94591552D01*
X127461378Y-94604007D01*
X127462691Y-94624118D01*
X127468886Y-94643302D01*
X127464921Y-94658275D01*
X127465930Y-94673729D01*
X127456160Y-94691359D01*
X127451001Y-94710844D01*
X127439572Y-94721295D01*
X127432065Y-94734843D01*
X127414314Y-94744393D01*
X127399440Y-94757995D01*
X127377904Y-94763981D01*
X127370536Y-94767946D01*
X127365854Y-94768841D01*
X127358682Y-94770068D01*
X127356275Y-94770101D01*
X127214247Y-94793118D01*
X127202428Y-94796818D01*
X127194232Y-94798222D01*
X127188956Y-94797606D01*
X127173308Y-94800000D01*
X126664336Y-94800000D01*
X126612822Y-94788793D01*
X126603782Y-94784664D01*
X126603777Y-94784662D01*
X126603776Y-94784662D01*
X126545718Y-94767614D01*
X126536734Y-94764976D01*
X126488178Y-94757995D01*
X126394317Y-94744500D01*
X126394315Y-94744500D01*
X126197452Y-94744500D01*
X126130413Y-94724815D01*
X126128607Y-94723632D01*
X126079179Y-94690606D01*
X126079172Y-94690602D01*
X125933501Y-94630264D01*
X125933489Y-94630261D01*
X125778845Y-94599500D01*
X125778842Y-94599500D01*
X125621158Y-94599500D01*
X125621155Y-94599500D01*
X125466510Y-94630261D01*
X125466498Y-94630264D01*
X125320827Y-94690602D01*
X125320820Y-94690606D01*
X125301853Y-94703280D01*
X125271438Y-94723602D01*
X125204762Y-94744480D01*
X125202548Y-94744500D01*
X125105683Y-94744500D01*
X125101119Y-94744521D01*
X125101070Y-94744521D01*
X125100947Y-94744522D01*
X125098919Y-94744540D01*
X125094454Y-94744599D01*
X125094437Y-94744600D01*
X124952422Y-94767614D01*
X124885750Y-94788489D01*
X124885729Y-94788498D01*
X124883860Y-94789318D01*
X124883801Y-94789183D01*
X124883512Y-94789287D01*
X124883481Y-94789200D01*
X124883463Y-94789206D01*
X124883316Y-94788737D01*
X124883307Y-94788712D01*
X124833553Y-94800000D01*
X124364336Y-94800000D01*
X124353814Y-94797710D01*
X124346679Y-94798736D01*
X124312815Y-94788790D01*
X124310339Y-94787659D01*
X124257539Y-94741900D01*
X124237860Y-94674859D01*
X124257550Y-94607821D01*
X124274176Y-94587191D01*
X124292712Y-94568656D01*
X124384814Y-94419334D01*
X124439999Y-94252797D01*
X124450500Y-94150009D01*
X124450499Y-92549992D01*
X124445391Y-92499992D01*
X124439999Y-92447203D01*
X124439998Y-92447200D01*
X124433687Y-92428156D01*
X124384814Y-92280666D01*
X124292712Y-92131344D01*
X124168656Y-92007288D01*
X124019334Y-91915186D01*
X123852797Y-91860001D01*
X123852795Y-91860000D01*
X123750010Y-91849500D01*
X122449998Y-91849500D01*
X122449981Y-91849501D01*
X122347203Y-91860000D01*
X122347200Y-91860001D01*
X122180668Y-91915185D01*
X122180663Y-91915187D01*
X122031342Y-92007289D01*
X121907289Y-92131342D01*
X121815187Y-92280663D01*
X121815185Y-92280668D01*
X121796644Y-92336622D01*
X121760001Y-92447203D01*
X121760001Y-92447204D01*
X121760000Y-92447204D01*
X121749500Y-92549983D01*
X121749500Y-92714821D01*
X121729815Y-92781860D01*
X121713181Y-92802502D01*
X121100000Y-93415683D01*
X121100000Y-93284174D01*
X121065925Y-93157007D01*
X121000099Y-93042993D01*
X120907007Y-92949901D01*
X120792993Y-92884075D01*
X120665826Y-92850000D01*
X120534174Y-92850000D01*
X120407007Y-92884075D01*
X120292993Y-92949901D01*
X120199901Y-93042993D01*
X120134075Y-93157007D01*
X120100000Y-93284174D01*
X120100000Y-93415826D01*
X120134075Y-93542993D01*
X120199901Y-93657007D01*
X120292993Y-93750099D01*
X120407007Y-93815925D01*
X120534174Y-93850000D01*
X120665683Y-93850000D01*
X120020352Y-94495329D01*
X120071421Y-94521350D01*
X120090816Y-94539667D01*
X120112550Y-94555125D01*
X120115822Y-94563284D01*
X120122217Y-94569324D01*
X120128630Y-94595220D01*
X120138557Y-94619974D01*
X120136898Y-94628609D01*
X120139012Y-94637145D01*
X120130408Y-94662392D01*
X120125376Y-94688589D01*
X120119311Y-94694957D01*
X120116475Y-94703280D01*
X120095588Y-94719867D01*
X120077191Y-94739185D01*
X120066435Y-94743018D01*
X120061760Y-94746732D01*
X120044433Y-94752322D01*
X120039721Y-94753468D01*
X119952419Y-94767615D01*
X119885744Y-94788492D01*
X119885739Y-94788494D01*
X119875416Y-94793432D01*
X119862860Y-94796487D01*
X119851411Y-94795948D01*
X119833553Y-94800000D01*
X119364336Y-94800000D01*
X119312822Y-94788793D01*
X119303782Y-94784664D01*
X119303777Y-94784662D01*
X119303776Y-94784662D01*
X119245718Y-94767614D01*
X119236734Y-94764976D01*
X119188178Y-94757995D01*
X119094317Y-94744500D01*
X119094315Y-94744500D01*
X117397452Y-94744500D01*
X117330413Y-94724815D01*
X117328607Y-94723632D01*
X117279179Y-94690606D01*
X117279172Y-94690602D01*
X117133501Y-94630264D01*
X117133489Y-94630261D01*
X116978845Y-94599500D01*
X116978842Y-94599500D01*
X116821158Y-94599500D01*
X116821155Y-94599500D01*
X116666510Y-94630261D01*
X116666498Y-94630264D01*
X116520827Y-94690602D01*
X116520820Y-94690606D01*
X116501853Y-94703280D01*
X116471438Y-94723602D01*
X116404762Y-94744480D01*
X116402548Y-94744500D01*
X116305683Y-94744500D01*
X116301119Y-94744521D01*
X116301070Y-94744521D01*
X116300947Y-94744522D01*
X116298919Y-94744540D01*
X116294454Y-94744599D01*
X116294437Y-94744600D01*
X116152422Y-94767614D01*
X116085750Y-94788489D01*
X116085729Y-94788498D01*
X116083860Y-94789318D01*
X116083801Y-94789183D01*
X116083512Y-94789287D01*
X116083481Y-94789200D01*
X116083463Y-94789206D01*
X116083316Y-94788737D01*
X116083307Y-94788712D01*
X116033553Y-94800000D01*
X115310730Y-94800000D01*
X115243691Y-94780315D01*
X115197936Y-94727511D01*
X115187992Y-94658353D01*
X115217017Y-94594797D01*
X115223049Y-94588319D01*
X115256243Y-94555125D01*
X115292712Y-94518656D01*
X115384814Y-94369334D01*
X115439999Y-94202797D01*
X115450500Y-94100009D01*
X115450499Y-93109493D01*
X119450000Y-93109493D01*
X119450000Y-93590506D01*
X119478317Y-93769293D01*
X119511841Y-93872472D01*
X119511842Y-93872472D01*
X120034316Y-93350000D01*
X119511842Y-92827526D01*
X119511841Y-92827526D01*
X119478317Y-92930704D01*
X119450000Y-93109493D01*
X115450499Y-93109493D01*
X115450499Y-92499992D01*
X115439999Y-92397203D01*
X115384814Y-92230666D01*
X115368779Y-92204669D01*
X120020353Y-92204669D01*
X120600000Y-92784316D01*
X120600001Y-92784316D01*
X121179646Y-92204669D01*
X121041447Y-92134252D01*
X121041444Y-92134251D01*
X120869293Y-92078317D01*
X120690506Y-92050000D01*
X120509494Y-92050000D01*
X120330706Y-92078317D01*
X120158555Y-92134251D01*
X120158552Y-92134253D01*
X120020353Y-92204669D01*
X115368779Y-92204669D01*
X115292712Y-92081344D01*
X115168656Y-91957288D01*
X115019334Y-91865186D01*
X114852797Y-91810001D01*
X114852795Y-91810000D01*
X114750010Y-91799500D01*
X113449998Y-91799500D01*
X113449981Y-91799501D01*
X113347203Y-91810000D01*
X113347200Y-91810001D01*
X113180668Y-91865185D01*
X113180663Y-91865187D01*
X113031342Y-91957289D01*
X112907289Y-92081342D01*
X112811821Y-92236121D01*
X112759873Y-92282845D01*
X112690910Y-92294068D01*
X112626828Y-92266224D01*
X112618601Y-92258705D01*
X112479786Y-92119890D01*
X112307820Y-91994951D01*
X112118414Y-91898444D01*
X112118413Y-91898443D01*
X112118412Y-91898443D01*
X111916243Y-91832754D01*
X111916241Y-91832753D01*
X111916240Y-91832753D01*
X111754957Y-91807208D01*
X111706287Y-91799500D01*
X111493713Y-91799500D01*
X111445042Y-91807208D01*
X111283760Y-91832753D01*
X111081585Y-91898444D01*
X110892179Y-91994951D01*
X110720213Y-92119890D01*
X110569890Y-92270213D01*
X110444951Y-92442179D01*
X110348444Y-92631585D01*
X110282753Y-92833760D01*
X110267399Y-92930704D01*
X110249500Y-93043713D01*
X110249500Y-93556287D01*
X110282754Y-93766243D01*
X110309968Y-93850000D01*
X110348444Y-93968414D01*
X110444951Y-94157820D01*
X110569890Y-94329786D01*
X110569896Y-94329792D01*
X110720208Y-94480104D01*
X110851760Y-94575682D01*
X110894426Y-94631011D01*
X110900405Y-94700625D01*
X110867800Y-94762420D01*
X110806961Y-94796777D01*
X110778875Y-94800000D01*
X109764336Y-94800000D01*
X109712822Y-94788793D01*
X109703782Y-94784664D01*
X109703777Y-94784662D01*
X109703776Y-94784662D01*
X109645718Y-94767614D01*
X109636734Y-94764976D01*
X109588178Y-94757995D01*
X109494317Y-94744500D01*
X109494315Y-94744500D01*
X109297452Y-94744500D01*
X109230413Y-94724815D01*
X109228607Y-94723632D01*
X109179179Y-94690606D01*
X109179172Y-94690602D01*
X109033501Y-94630264D01*
X109033489Y-94630261D01*
X108878845Y-94599500D01*
X108878842Y-94599500D01*
X108721158Y-94599500D01*
X108721155Y-94599500D01*
X108566510Y-94630261D01*
X108566498Y-94630264D01*
X108420827Y-94690602D01*
X108420820Y-94690606D01*
X108401853Y-94703280D01*
X108371438Y-94723602D01*
X108304762Y-94744480D01*
X108302548Y-94744500D01*
X107445619Y-94744500D01*
X107342744Y-94755078D01*
X107342741Y-94755078D01*
X107293347Y-94765345D01*
X107293343Y-94765346D01*
X107202500Y-94794187D01*
X107164979Y-94800000D01*
X106090256Y-94800000D01*
X106023217Y-94780315D01*
X105977462Y-94727511D01*
X105967518Y-94658353D01*
X105996543Y-94594797D01*
X106051938Y-94558069D01*
X106233377Y-94499115D01*
X106452023Y-94387708D01*
X105850562Y-93786247D01*
X106002626Y-93723260D01*
X106141844Y-93630238D01*
X106260238Y-93511844D01*
X106353260Y-93372626D01*
X106416247Y-93220562D01*
X107017708Y-93822023D01*
X107129115Y-93603377D01*
X107209370Y-93356377D01*
X107250000Y-93099857D01*
X107250000Y-92840142D01*
X107209370Y-92583622D01*
X107129115Y-92336622D01*
X107017708Y-92117975D01*
X106416247Y-92719437D01*
X106353260Y-92567374D01*
X106260238Y-92428156D01*
X106141844Y-92309762D01*
X106002626Y-92216740D01*
X105850559Y-92153751D01*
X106452022Y-91552289D01*
X106233377Y-91440883D01*
X105986377Y-91360629D01*
X105729857Y-91320000D01*
X105524000Y-91320000D01*
X105456961Y-91300315D01*
X105411206Y-91247511D01*
X105400000Y-91196000D01*
X105400000Y-90260482D01*
X105419685Y-90193443D01*
X105438055Y-90171099D01*
X105500000Y-90111536D01*
X105500000Y-89766793D01*
X105500304Y-89764842D01*
X105500035Y-89763838D01*
X105501435Y-89757586D01*
X105505889Y-89729033D01*
X105507921Y-89722674D01*
X105517094Y-89701971D01*
X105535818Y-89635413D01*
X105535947Y-89635012D01*
X105536015Y-89634715D01*
X105536016Y-89634712D01*
X105536017Y-89634709D01*
X105554873Y-89492070D01*
X105525331Y-86892384D01*
X105510430Y-86776166D01*
X105503663Y-86748946D01*
X105500000Y-86719029D01*
X105500000Y-86502421D01*
X105516612Y-86440423D01*
X105586683Y-86319058D01*
X105636999Y-86150986D01*
X105639844Y-86102135D01*
X115769500Y-86102135D01*
X115769500Y-87897870D01*
X115769501Y-87897876D01*
X115775908Y-87957483D01*
X115826202Y-88092328D01*
X115826206Y-88092335D01*
X115912452Y-88207544D01*
X115912455Y-88207547D01*
X116027664Y-88293793D01*
X116027671Y-88293797D01*
X116159082Y-88342810D01*
X116215016Y-88384681D01*
X116239433Y-88450145D01*
X116224582Y-88518418D01*
X116203431Y-88546673D01*
X116089889Y-88660215D01*
X115964951Y-88832179D01*
X115868444Y-89021585D01*
X115802753Y-89223760D01*
X115801291Y-89232993D01*
X115769500Y-89433713D01*
X115769500Y-89646287D01*
X115802754Y-89856243D01*
X115850610Y-90003529D01*
X115868444Y-90058414D01*
X115964951Y-90247820D01*
X116089890Y-90419786D01*
X116240213Y-90570109D01*
X116412179Y-90695048D01*
X116412181Y-90695049D01*
X116412184Y-90695051D01*
X116601588Y-90791557D01*
X116803757Y-90857246D01*
X117013713Y-90890500D01*
X117013714Y-90890500D01*
X117226286Y-90890500D01*
X117226287Y-90890500D01*
X117436243Y-90857246D01*
X117638412Y-90791557D01*
X117827816Y-90695051D01*
X117950732Y-90605748D01*
X117999786Y-90570109D01*
X117999788Y-90570106D01*
X117999792Y-90570104D01*
X118150104Y-90419792D01*
X118150106Y-90419788D01*
X118150109Y-90419786D01*
X118275048Y-90247820D01*
X118275047Y-90247820D01*
X118275051Y-90247816D01*
X118279514Y-90239054D01*
X118327488Y-90188259D01*
X118395308Y-90171463D01*
X118461444Y-90193999D01*
X118500486Y-90239056D01*
X118504951Y-90247820D01*
X118629890Y-90419786D01*
X118780213Y-90570109D01*
X118952179Y-90695048D01*
X118952181Y-90695049D01*
X118952184Y-90695051D01*
X119141588Y-90791557D01*
X119343757Y-90857246D01*
X119553713Y-90890500D01*
X119553714Y-90890500D01*
X119766286Y-90890500D01*
X119766287Y-90890500D01*
X119976243Y-90857246D01*
X120178412Y-90791557D01*
X120367816Y-90695051D01*
X120490732Y-90605748D01*
X120517966Y-90585962D01*
X121719722Y-90585962D01*
X121758552Y-90605747D01*
X121758555Y-90605748D01*
X121930706Y-90661682D01*
X122109494Y-90690000D01*
X122290506Y-90690000D01*
X122469293Y-90661682D01*
X122641445Y-90605747D01*
X122641452Y-90605744D01*
X122680276Y-90585961D01*
X122200001Y-90105685D01*
X122200000Y-90105685D01*
X121719722Y-90585962D01*
X120517966Y-90585962D01*
X120539786Y-90570109D01*
X120539788Y-90570106D01*
X120539792Y-90570104D01*
X120690104Y-90419792D01*
X120690106Y-90419788D01*
X120690109Y-90419786D01*
X120815048Y-90247820D01*
X120815047Y-90247820D01*
X120815051Y-90247816D01*
X120911557Y-90058412D01*
X120921033Y-90029246D01*
X120960467Y-89971573D01*
X121024825Y-89944374D01*
X121093672Y-89956286D01*
X121145149Y-90003529D01*
X121149448Y-90011270D01*
X121154036Y-90020276D01*
X121154037Y-90020276D01*
X121634314Y-89540000D01*
X121634314Y-89539999D01*
X121568489Y-89474174D01*
X121700000Y-89474174D01*
X121700000Y-89605826D01*
X121734075Y-89732993D01*
X121799901Y-89847007D01*
X121892993Y-89940099D01*
X122007007Y-90005925D01*
X122134174Y-90040000D01*
X122265826Y-90040000D01*
X122392993Y-90005925D01*
X122507007Y-89940099D01*
X122600099Y-89847007D01*
X122665925Y-89732993D01*
X122700000Y-89605826D01*
X122700000Y-89540000D01*
X122765685Y-89540000D01*
X123245961Y-90020276D01*
X123265744Y-89981452D01*
X123265747Y-89981445D01*
X123321682Y-89809293D01*
X123350000Y-89630506D01*
X123350000Y-89449493D01*
X123321682Y-89270706D01*
X123265748Y-89098555D01*
X123265747Y-89098552D01*
X123245961Y-89059722D01*
X122765685Y-89540000D01*
X122700000Y-89540000D01*
X122700000Y-89474174D01*
X122665925Y-89347007D01*
X122600099Y-89232993D01*
X122507007Y-89139901D01*
X122392993Y-89074075D01*
X122265826Y-89040000D01*
X122134174Y-89040000D01*
X122007007Y-89074075D01*
X121892993Y-89139901D01*
X121799901Y-89232993D01*
X121734075Y-89347007D01*
X121700000Y-89474174D01*
X121568489Y-89474174D01*
X121154037Y-89059722D01*
X121154036Y-89059722D01*
X121149449Y-89068727D01*
X121101475Y-89119524D01*
X121033654Y-89136320D01*
X120967519Y-89113784D01*
X120924067Y-89059069D01*
X120921043Y-89050783D01*
X120911557Y-89021588D01*
X120815051Y-88832184D01*
X120815049Y-88832181D01*
X120815048Y-88832179D01*
X120690109Y-88660213D01*
X120539786Y-88509890D01*
X120367820Y-88384951D01*
X120367115Y-88384591D01*
X120359054Y-88380485D01*
X120308259Y-88332512D01*
X120291463Y-88264692D01*
X120313999Y-88198556D01*
X120359054Y-88159515D01*
X120367816Y-88155051D01*
X120454138Y-88092335D01*
X120539786Y-88030109D01*
X120539788Y-88030106D01*
X120539792Y-88030104D01*
X120690104Y-87879792D01*
X120690106Y-87879788D01*
X120690109Y-87879786D01*
X120815048Y-87707820D01*
X120815047Y-87707820D01*
X120815051Y-87707816D01*
X120819514Y-87699054D01*
X120867488Y-87648259D01*
X120935308Y-87631463D01*
X121001444Y-87653999D01*
X121040486Y-87699056D01*
X121044951Y-87707820D01*
X121169890Y-87879786D01*
X121320213Y-88030109D01*
X121492179Y-88155048D01*
X121492181Y-88155049D01*
X121492184Y-88155051D01*
X121681588Y-88251557D01*
X121710753Y-88261033D01*
X121768426Y-88300468D01*
X121795625Y-88364826D01*
X121783712Y-88433673D01*
X121736469Y-88485149D01*
X121728727Y-88489449D01*
X121719722Y-88494036D01*
X121719722Y-88494037D01*
X122200000Y-88974314D01*
X122200001Y-88974314D01*
X122680276Y-88494037D01*
X122680276Y-88494036D01*
X122671270Y-88489448D01*
X122620474Y-88441473D01*
X122603679Y-88373652D01*
X122626216Y-88307518D01*
X122680931Y-88264066D01*
X122689216Y-88261043D01*
X122718412Y-88251557D01*
X122907816Y-88155051D01*
X122994138Y-88092335D01*
X123079786Y-88030109D01*
X123079788Y-88030106D01*
X123079792Y-88030104D01*
X123230104Y-87879792D01*
X123230106Y-87879788D01*
X123230109Y-87879786D01*
X123355048Y-87707820D01*
X123355047Y-87707820D01*
X123355051Y-87707816D01*
X123451557Y-87518412D01*
X123517246Y-87316243D01*
X123550500Y-87106287D01*
X123550500Y-86893713D01*
X123517246Y-86683757D01*
X123451557Y-86481588D01*
X123355051Y-86292184D01*
X123355049Y-86292181D01*
X123355048Y-86292179D01*
X123230109Y-86120213D01*
X123079786Y-85969890D01*
X122907820Y-85844951D01*
X122718414Y-85748444D01*
X122718413Y-85748443D01*
X122718412Y-85748443D01*
X122516243Y-85682754D01*
X122516241Y-85682753D01*
X122516240Y-85682753D01*
X122354957Y-85657208D01*
X122306287Y-85649500D01*
X122093713Y-85649500D01*
X122045042Y-85657208D01*
X121883760Y-85682753D01*
X121681585Y-85748444D01*
X121492179Y-85844951D01*
X121320213Y-85969890D01*
X121169890Y-86120213D01*
X121044949Y-86292182D01*
X121040484Y-86300946D01*
X120992509Y-86351742D01*
X120924688Y-86368536D01*
X120858553Y-86345998D01*
X120819516Y-86300946D01*
X120815050Y-86292182D01*
X120690109Y-86120213D01*
X120539786Y-85969890D01*
X120367820Y-85844951D01*
X120178414Y-85748444D01*
X120178413Y-85748443D01*
X120178412Y-85748443D01*
X119976243Y-85682754D01*
X119976241Y-85682753D01*
X119976240Y-85682753D01*
X119814957Y-85657208D01*
X119766287Y-85649500D01*
X119553713Y-85649500D01*
X119505042Y-85657208D01*
X119343760Y-85682753D01*
X119141585Y-85748444D01*
X118952179Y-85844951D01*
X118780215Y-85969889D01*
X118666673Y-86083431D01*
X118605350Y-86116915D01*
X118535658Y-86111931D01*
X118479725Y-86070059D01*
X118462810Y-86039082D01*
X118413797Y-85907671D01*
X118413793Y-85907664D01*
X118327547Y-85792455D01*
X118327544Y-85792452D01*
X118212335Y-85706206D01*
X118212328Y-85706202D01*
X118077482Y-85655908D01*
X118077483Y-85655908D01*
X118017883Y-85649501D01*
X118017881Y-85649500D01*
X118017873Y-85649500D01*
X118017864Y-85649500D01*
X116222129Y-85649500D01*
X116222123Y-85649501D01*
X116162516Y-85655908D01*
X116027671Y-85706202D01*
X116027664Y-85706206D01*
X115912455Y-85792452D01*
X115912452Y-85792455D01*
X115826206Y-85907664D01*
X115826202Y-85907671D01*
X115775908Y-86042517D01*
X115769501Y-86102116D01*
X115769500Y-86102135D01*
X105639844Y-86102135D01*
X105647201Y-85975840D01*
X105630740Y-85873837D01*
X105500000Y-85385910D01*
X105500000Y-85376584D01*
X106713729Y-85376584D01*
X106760963Y-85441598D01*
X106883397Y-85564032D01*
X107023475Y-85665804D01*
X107177744Y-85744408D01*
X107342415Y-85797914D01*
X107479179Y-85819575D01*
X107317156Y-85214897D01*
X106713729Y-85376584D01*
X105500000Y-85376584D01*
X105500000Y-84672339D01*
X107200000Y-84672339D01*
X107200000Y-84777661D01*
X107227259Y-84879394D01*
X107279920Y-84970606D01*
X107354394Y-85045080D01*
X107445606Y-85097741D01*
X107547339Y-85125000D01*
X107652661Y-85125000D01*
X107754394Y-85097741D01*
X107845606Y-85045080D01*
X107882844Y-85007842D01*
X108089897Y-85007842D01*
X108251584Y-85611269D01*
X108316602Y-85564032D01*
X108439035Y-85441598D01*
X108540804Y-85301524D01*
X108619408Y-85147255D01*
X108672914Y-84982584D01*
X108694575Y-84845819D01*
X108089897Y-85007842D01*
X107882844Y-85007842D01*
X107920080Y-84970606D01*
X107972741Y-84879394D01*
X108000000Y-84777661D01*
X108000000Y-84672339D01*
X107972741Y-84570606D01*
X107920080Y-84479394D01*
X107845606Y-84404920D01*
X107754394Y-84352259D01*
X107652661Y-84325000D01*
X107547339Y-84325000D01*
X107445606Y-84352259D01*
X107354394Y-84404920D01*
X107279920Y-84479394D01*
X107227259Y-84570606D01*
X107200000Y-84672339D01*
X105500000Y-84672339D01*
X105500000Y-84604179D01*
X106505423Y-84604179D01*
X107110101Y-84442156D01*
X106948414Y-83838730D01*
X106948413Y-83838730D01*
X106883396Y-83885969D01*
X106883395Y-83885969D01*
X106760967Y-84008397D01*
X106659195Y-84148475D01*
X106580591Y-84302742D01*
X106527086Y-84467414D01*
X106505423Y-84604179D01*
X105500000Y-84604179D01*
X105500000Y-83650000D01*
X107726065Y-83650000D01*
X107882842Y-84235101D01*
G37*
%TD.AperFunction*%
%TA.AperFunction,Conductor*%
G36*
X112749615Y-94312793D02*
G01*
X112805549Y-94354664D01*
X112811821Y-94363878D01*
X112815185Y-94369333D01*
X112815186Y-94369334D01*
X112892263Y-94494297D01*
X112907289Y-94518657D01*
X112976951Y-94588319D01*
X113010436Y-94649642D01*
X113005452Y-94719334D01*
X112963580Y-94775267D01*
X112898116Y-94799684D01*
X112889270Y-94800000D01*
X112421125Y-94800000D01*
X112354086Y-94780315D01*
X112308331Y-94727511D01*
X112298387Y-94658353D01*
X112327412Y-94594797D01*
X112348237Y-94575683D01*
X112479792Y-94480104D01*
X112618604Y-94341291D01*
X112679923Y-94307809D01*
X112749615Y-94312793D01*
G37*
%TD.AperFunction*%
%TA.AperFunction,Conductor*%
G36*
X131400000Y-87994238D02*
G01*
X131380315Y-88061277D01*
X131327511Y-88107032D01*
X131258353Y-88116976D01*
X131194797Y-88087951D01*
X131188319Y-88081919D01*
X129686819Y-86580419D01*
X129672115Y-86553491D01*
X129655523Y-86527673D01*
X129654631Y-86521472D01*
X129653334Y-86519096D01*
X129650500Y-86492738D01*
X129650500Y-86304604D01*
X129659939Y-86257151D01*
X129669737Y-86233497D01*
X129700500Y-86078842D01*
X129700500Y-85921158D01*
X129700500Y-85921155D01*
X129700499Y-85921153D01*
X129669739Y-85766511D01*
X129669738Y-85766508D01*
X129669737Y-85766503D01*
X129659937Y-85742844D01*
X129650500Y-85695396D01*
X129650500Y-85400000D01*
X131400000Y-85400000D01*
X131400000Y-87994238D01*
G37*
%TD.AperFunction*%
%TD*%
%TA.AperFunction,Conductor*%
%TO.N,GND*%
G36*
X116600000Y-75600000D02*
G01*
X116500500Y-75600000D01*
X116500500Y-75204604D01*
X116509939Y-75157151D01*
X116519737Y-75133497D01*
X116550500Y-74978842D01*
X116550500Y-74821158D01*
X116550500Y-74821155D01*
X116550499Y-74821153D01*
X116519737Y-74666503D01*
X116519735Y-74666498D01*
X116459397Y-74520827D01*
X116459390Y-74520814D01*
X116371789Y-74389711D01*
X116371786Y-74389707D01*
X116260292Y-74278213D01*
X116260288Y-74278210D01*
X116129185Y-74190609D01*
X116129172Y-74190602D01*
X115983501Y-74130264D01*
X115983489Y-74130261D01*
X115828845Y-74099500D01*
X115828842Y-74099500D01*
X115671158Y-74099500D01*
X115671155Y-74099500D01*
X115516510Y-74130261D01*
X115516498Y-74130264D01*
X115370827Y-74190602D01*
X115370814Y-74190609D01*
X115239711Y-74278210D01*
X115239707Y-74278213D01*
X115128213Y-74389707D01*
X115128210Y-74389711D01*
X115040609Y-74520814D01*
X115040602Y-74520827D01*
X114980264Y-74666498D01*
X114980261Y-74666510D01*
X114949500Y-74821153D01*
X114949500Y-74978846D01*
X114980261Y-75133489D01*
X114980263Y-75133497D01*
X114990061Y-75157151D01*
X114999500Y-75204604D01*
X114999500Y-75600000D01*
X101800500Y-75600000D01*
X101800500Y-75001456D01*
X101762052Y-74808170D01*
X101762051Y-74808169D01*
X101762051Y-74808165D01*
X101703376Y-74666510D01*
X101686635Y-74626092D01*
X101686628Y-74626079D01*
X101577139Y-74462218D01*
X101577136Y-74462214D01*
X101437785Y-74322863D01*
X101437781Y-74322860D01*
X101273920Y-74213371D01*
X101273907Y-74213364D01*
X101091839Y-74137950D01*
X101091829Y-74137947D01*
X100898543Y-74099500D01*
X100898541Y-74099500D01*
X100701459Y-74099500D01*
X100701454Y-74099500D01*
X100548191Y-74129986D01*
X100478599Y-74123759D01*
X100423422Y-74080896D01*
X100400178Y-74015006D01*
X100400000Y-74008369D01*
X100400000Y-68873920D01*
X108199499Y-68873920D01*
X108228340Y-69018907D01*
X108228342Y-69018913D01*
X108285061Y-69155845D01*
X108294500Y-69203298D01*
X108294500Y-69276000D01*
X108294501Y-69276009D01*
X108306052Y-69383450D01*
X108306054Y-69383462D01*
X108317260Y-69434972D01*
X108351383Y-69537497D01*
X108351386Y-69537503D01*
X108429171Y-69658537D01*
X108429179Y-69658548D01*
X108474923Y-69711340D01*
X108474926Y-69711343D01*
X108474930Y-69711347D01*
X108583664Y-69805567D01*
X108583667Y-69805568D01*
X108583668Y-69805569D01*
X108677925Y-69848616D01*
X108714541Y-69865338D01*
X108781580Y-69885023D01*
X108781584Y-69885024D01*
X108924000Y-69905500D01*
X108924003Y-69905500D01*
X111275990Y-69905500D01*
X111276000Y-69905500D01*
X111383456Y-69893947D01*
X111434967Y-69882741D01*
X111469197Y-69871347D01*
X111537497Y-69848616D01*
X111537501Y-69848613D01*
X111537504Y-69848613D01*
X111658543Y-69770825D01*
X111711347Y-69725070D01*
X111805567Y-69616336D01*
X111865338Y-69485459D01*
X111885023Y-69418420D01*
X111885024Y-69418416D01*
X111905500Y-69276000D01*
X111905500Y-67660746D01*
X111925185Y-67593707D01*
X111941819Y-67573065D01*
X112210327Y-67304557D01*
X112521123Y-66993762D01*
X112557288Y-66953500D01*
X112573922Y-66932858D01*
X112605567Y-66888974D01*
X112665338Y-66758097D01*
X112685023Y-66691058D01*
X112685024Y-66691054D01*
X112705500Y-66548638D01*
X112705500Y-63124000D01*
X112693947Y-63016544D01*
X112682741Y-62965033D01*
X112682637Y-62964722D01*
X112648616Y-62862502D01*
X112648613Y-62862496D01*
X112570828Y-62741462D01*
X112570825Y-62741457D01*
X112570820Y-62741451D01*
X112525076Y-62688659D01*
X112525072Y-62688656D01*
X112525070Y-62688653D01*
X112416336Y-62594433D01*
X112416333Y-62594431D01*
X112416331Y-62594430D01*
X112285465Y-62534664D01*
X112285460Y-62534662D01*
X112285459Y-62534662D01*
X112218420Y-62514977D01*
X112218422Y-62514977D01*
X112218417Y-62514976D01*
X112156347Y-62506052D01*
X112076000Y-62494500D01*
X109924000Y-62494500D01*
X109923991Y-62494500D01*
X109923990Y-62494501D01*
X109816549Y-62506052D01*
X109816537Y-62506054D01*
X109765027Y-62517260D01*
X109662502Y-62551383D01*
X109662496Y-62551386D01*
X109541462Y-62629171D01*
X109541451Y-62629179D01*
X109488659Y-62674923D01*
X109394433Y-62783664D01*
X109394430Y-62783668D01*
X109334664Y-62914534D01*
X109314976Y-62981582D01*
X109309949Y-63016549D01*
X109294502Y-63123990D01*
X109294500Y-63124001D01*
X109294500Y-66172089D01*
X109274815Y-66239128D01*
X109265759Y-66251472D01*
X108440408Y-67241892D01*
X108421143Y-67266520D01*
X108412102Y-67278844D01*
X108394432Y-67304557D01*
X108334663Y-67435430D01*
X108314976Y-67502475D01*
X108294500Y-67644894D01*
X108294500Y-68396702D01*
X108285061Y-68444155D01*
X108228342Y-68581086D01*
X108228340Y-68581092D01*
X108199500Y-68726079D01*
X108199500Y-68726082D01*
X108199500Y-68873918D01*
X108199500Y-68873920D01*
X108199499Y-68873920D01*
X100400000Y-68873920D01*
X100400000Y-61300000D01*
X116600000Y-61300000D01*
X116600000Y-75600000D01*
G37*
%TD.AperFunction*%
%TD*%
%TA.AperFunction,Conductor*%
%TO.N,/TPS_SW*%
G36*
X112143039Y-63019685D02*
G01*
X112188794Y-63072489D01*
X112200000Y-63124000D01*
X112200000Y-66548638D01*
X112180315Y-66615677D01*
X112163681Y-66636319D01*
X111400000Y-67399999D01*
X111400000Y-69276000D01*
X111380315Y-69343039D01*
X111327511Y-69388794D01*
X111276000Y-69400000D01*
X108924000Y-69400000D01*
X108856961Y-69380315D01*
X108811206Y-69327511D01*
X108800000Y-69276000D01*
X108800000Y-67644893D01*
X108819685Y-67577854D01*
X108828736Y-67565516D01*
X109800000Y-66400000D01*
X109800000Y-63124000D01*
X109819685Y-63056961D01*
X109872489Y-63011206D01*
X109924000Y-63000000D01*
X112076000Y-63000000D01*
X112143039Y-63019685D01*
G37*
%TD.AperFunction*%
%TD*%
%TA.AperFunction,Conductor*%
%TO.N,GND*%
G36*
X105500000Y-85385910D02*
G01*
X105320152Y-84714710D01*
X105300523Y-84663125D01*
X105283409Y-84618147D01*
X105283402Y-84618134D01*
X105187001Y-84471563D01*
X105187000Y-84471562D01*
X105059388Y-84351166D01*
X105059383Y-84351162D01*
X104954459Y-84290584D01*
X104907451Y-84263444D01*
X104907449Y-84263443D01*
X104907447Y-84263442D01*
X104739379Y-84213128D01*
X104564233Y-84202925D01*
X104462233Y-84219386D01*
X104462220Y-84219389D01*
X103303096Y-84529977D01*
X103206540Y-84566717D01*
X103206527Y-84566724D01*
X103059956Y-84663125D01*
X103059954Y-84663127D01*
X103020240Y-84705221D01*
X103005824Y-84713645D01*
X102994594Y-84726002D01*
X102976282Y-84730910D01*
X102959916Y-84740475D01*
X102942717Y-84739906D01*
X102927107Y-84744091D01*
X102901833Y-84738555D01*
X102892301Y-84738241D01*
X102886483Y-84736381D01*
X102869265Y-84728948D01*
X102829382Y-84718134D01*
X102826731Y-84717287D01*
X102818701Y-84711853D01*
X102784380Y-84693832D01*
X101844403Y-83898466D01*
X101805941Y-83840135D01*
X101800500Y-83803806D01*
X101800500Y-83650000D01*
X105500000Y-83650000D01*
X105500000Y-85385910D01*
G37*
%TD.AperFunction*%
%TD*%
%TA.AperFunction,Conductor*%
%TO.N,GND*%
G36*
X131400000Y-85400000D02*
G01*
X129650500Y-85400000D01*
X129650500Y-83962229D01*
X129670185Y-83895190D01*
X129686819Y-83874548D01*
X130215297Y-83346069D01*
X130255522Y-83319192D01*
X130279179Y-83309394D01*
X130410289Y-83221789D01*
X130521789Y-83110289D01*
X130609394Y-82979179D01*
X130669737Y-82833497D01*
X130700500Y-82678842D01*
X130700500Y-82521158D01*
X130700500Y-82521155D01*
X130700499Y-82521153D01*
X130669738Y-82366510D01*
X130669737Y-82366503D01*
X130619194Y-82244480D01*
X130609397Y-82220827D01*
X130609390Y-82220814D01*
X130521789Y-82089711D01*
X130521786Y-82089707D01*
X130410292Y-81978213D01*
X130410288Y-81978210D01*
X130279185Y-81890609D01*
X130279172Y-81890602D01*
X130133501Y-81830264D01*
X130133489Y-81830261D01*
X129978845Y-81799500D01*
X129978842Y-81799500D01*
X129821158Y-81799500D01*
X129821155Y-81799500D01*
X129666510Y-81830261D01*
X129666498Y-81830264D01*
X129520827Y-81890602D01*
X129520814Y-81890609D01*
X129389711Y-81978210D01*
X129389707Y-81978213D01*
X129278213Y-82089707D01*
X129278207Y-82089715D01*
X129190607Y-82220818D01*
X129190606Y-82220819D01*
X129180805Y-82244480D01*
X129153927Y-82284703D01*
X128317047Y-83121584D01*
X128317045Y-83121586D01*
X128280381Y-83176462D01*
X128280379Y-83176465D01*
X128234919Y-83244499D01*
X128234912Y-83244511D01*
X128178343Y-83381082D01*
X128178340Y-83381092D01*
X128149500Y-83526079D01*
X128149500Y-85400000D01*
X116600000Y-85400000D01*
X116600000Y-71321153D01*
X120599500Y-71321153D01*
X120599500Y-71478846D01*
X120630261Y-71633489D01*
X120630264Y-71633501D01*
X120690602Y-71779172D01*
X120690609Y-71779185D01*
X120778210Y-71910288D01*
X120778213Y-71910292D01*
X120889707Y-72021786D01*
X120889711Y-72021789D01*
X121020814Y-72109390D01*
X121020827Y-72109397D01*
X121163652Y-72168556D01*
X121166503Y-72169737D01*
X121321153Y-72200499D01*
X121321156Y-72200500D01*
X121321158Y-72200500D01*
X121478844Y-72200500D01*
X121478845Y-72200499D01*
X121633497Y-72169737D01*
X121779179Y-72109394D01*
X121873459Y-72046398D01*
X121940136Y-72025520D01*
X121942350Y-72025500D01*
X123210121Y-72025500D01*
X123277160Y-72045185D01*
X123322915Y-72097989D01*
X123333479Y-72162103D01*
X123324500Y-72249983D01*
X123324500Y-73650001D01*
X123324501Y-73650018D01*
X123335000Y-73752796D01*
X123335001Y-73752799D01*
X123390185Y-73919331D01*
X123390186Y-73919334D01*
X123482288Y-74068656D01*
X123606344Y-74192712D01*
X123755666Y-74284814D01*
X123922203Y-74339999D01*
X124024991Y-74350500D01*
X124975008Y-74350499D01*
X124975016Y-74350498D01*
X124975019Y-74350498D01*
X125031302Y-74344748D01*
X125077797Y-74339999D01*
X125244334Y-74284814D01*
X125393656Y-74192712D01*
X125517712Y-74068656D01*
X125609814Y-73919334D01*
X125664999Y-73752797D01*
X125675500Y-73650009D01*
X125675500Y-73643053D01*
X127675000Y-73643053D01*
X127685613Y-73731443D01*
X127741079Y-73872095D01*
X127832435Y-73992564D01*
X127952904Y-74083920D01*
X128093556Y-74139386D01*
X128181946Y-74150000D01*
X128250000Y-74150000D01*
X129050000Y-74150000D01*
X129118054Y-74150000D01*
X129206443Y-74139386D01*
X129347095Y-74083920D01*
X129467564Y-73992564D01*
X129558920Y-73872095D01*
X129614386Y-73731443D01*
X129625000Y-73643053D01*
X129625000Y-73350000D01*
X129050000Y-73350000D01*
X129050000Y-74150000D01*
X128250000Y-74150000D01*
X128250000Y-73350000D01*
X127675000Y-73350000D01*
X127675000Y-73643053D01*
X125675500Y-73643053D01*
X125675499Y-72256946D01*
X127675000Y-72256946D01*
X127675000Y-72550000D01*
X128250000Y-72550000D01*
X129050000Y-72550000D01*
X129625000Y-72550000D01*
X129625000Y-72256946D01*
X129614386Y-72168556D01*
X129558920Y-72027904D01*
X129467564Y-71907435D01*
X129347095Y-71816079D01*
X129206443Y-71760613D01*
X129118054Y-71750000D01*
X129050000Y-71750000D01*
X129050000Y-72550000D01*
X128250000Y-72550000D01*
X128250000Y-71750000D01*
X128181946Y-71750000D01*
X128093556Y-71760613D01*
X127952904Y-71816079D01*
X127832435Y-71907435D01*
X127741079Y-72027904D01*
X127685613Y-72168556D01*
X127675000Y-72256946D01*
X125675499Y-72256946D01*
X125675499Y-72249992D01*
X125664999Y-72147203D01*
X125609814Y-71980666D01*
X125517712Y-71831344D01*
X125393656Y-71707288D01*
X125244334Y-71615186D01*
X125244331Y-71615185D01*
X125085496Y-71562552D01*
X125028051Y-71522779D01*
X125001228Y-71458263D01*
X125000500Y-71444846D01*
X125000500Y-71321155D01*
X125000499Y-71321153D01*
X124969738Y-71166510D01*
X124969737Y-71166503D01*
X124969735Y-71166498D01*
X124909397Y-71020827D01*
X124909390Y-71020814D01*
X124821789Y-70889711D01*
X124821786Y-70889707D01*
X124710292Y-70778213D01*
X124710288Y-70778210D01*
X124579185Y-70690609D01*
X124579172Y-70690602D01*
X124433501Y-70630264D01*
X124433489Y-70630261D01*
X124278845Y-70599500D01*
X124278842Y-70599500D01*
X124121158Y-70599500D01*
X124121155Y-70599500D01*
X123966510Y-70630261D01*
X123966498Y-70630264D01*
X123820827Y-70690602D01*
X123820815Y-70690609D01*
X123726541Y-70753602D01*
X123659864Y-70774480D01*
X123657650Y-70774500D01*
X121942350Y-70774500D01*
X121875311Y-70754815D01*
X121873459Y-70753602D01*
X121779184Y-70690609D01*
X121779172Y-70690602D01*
X121633501Y-70630264D01*
X121633489Y-70630261D01*
X121478845Y-70599500D01*
X121478842Y-70599500D01*
X121321158Y-70599500D01*
X121321155Y-70599500D01*
X121166510Y-70630261D01*
X121166498Y-70630264D01*
X121020827Y-70690602D01*
X121020814Y-70690609D01*
X120889711Y-70778210D01*
X120889707Y-70778213D01*
X120778213Y-70889707D01*
X120778210Y-70889711D01*
X120690609Y-71020814D01*
X120690602Y-71020827D01*
X120630264Y-71166498D01*
X120630261Y-71166510D01*
X120599500Y-71321153D01*
X116600000Y-71321153D01*
X116600000Y-69398543D01*
X121449499Y-69398543D01*
X121487947Y-69591829D01*
X121487950Y-69591839D01*
X121563364Y-69773907D01*
X121563371Y-69773920D01*
X121672860Y-69937781D01*
X121672863Y-69937785D01*
X121812214Y-70077136D01*
X121812218Y-70077139D01*
X121976079Y-70186628D01*
X121976092Y-70186635D01*
X122158160Y-70262049D01*
X122158165Y-70262051D01*
X122158169Y-70262051D01*
X122158170Y-70262052D01*
X122351456Y-70300500D01*
X122351459Y-70300500D01*
X127198543Y-70300500D01*
X127328582Y-70274632D01*
X127391835Y-70262051D01*
X127573914Y-70186632D01*
X127737782Y-70077139D01*
X127877139Y-69937782D01*
X127986632Y-69773914D01*
X128062051Y-69591835D01*
X128100500Y-69398541D01*
X128100500Y-69201459D01*
X128100500Y-69201456D01*
X128062052Y-69008170D01*
X128062051Y-69008169D01*
X128062051Y-69008165D01*
X128062049Y-69008160D01*
X127986635Y-68826092D01*
X127986628Y-68826079D01*
X127877139Y-68662218D01*
X127877136Y-68662214D01*
X127737785Y-68522863D01*
X127737781Y-68522860D01*
X127573920Y-68413371D01*
X127573907Y-68413364D01*
X127391839Y-68337950D01*
X127391829Y-68337947D01*
X127198543Y-68299500D01*
X127198541Y-68299500D01*
X125398541Y-68299500D01*
X122351459Y-68299500D01*
X122351457Y-68299500D01*
X122158170Y-68337947D01*
X122158160Y-68337950D01*
X121976092Y-68413364D01*
X121976079Y-68413371D01*
X121812218Y-68522860D01*
X121812214Y-68522863D01*
X121672863Y-68662214D01*
X121672860Y-68662218D01*
X121563371Y-68826079D01*
X121563364Y-68826092D01*
X121487950Y-69008160D01*
X121487947Y-69008170D01*
X121449500Y-69201456D01*
X121449500Y-69201459D01*
X121449500Y-69398541D01*
X121449500Y-69398543D01*
X121449499Y-69398543D01*
X116600000Y-69398543D01*
X116600000Y-62799983D01*
X117049500Y-62799983D01*
X117049500Y-63750001D01*
X117049501Y-63750019D01*
X117060000Y-63852796D01*
X117060001Y-63852799D01*
X117115185Y-64019331D01*
X117115187Y-64019336D01*
X117147411Y-64071580D01*
X117207288Y-64168656D01*
X117331344Y-64292712D01*
X117480666Y-64384814D01*
X117647203Y-64439999D01*
X117749991Y-64450500D01*
X118264546Y-64450499D01*
X118331585Y-64470183D01*
X118352227Y-64486818D01*
X118537843Y-64672434D01*
X118571328Y-64733757D01*
X118571779Y-64735923D01*
X118578340Y-64768907D01*
X118578342Y-64768915D01*
X118634912Y-64905488D01*
X118634919Y-64905501D01*
X118717048Y-65028415D01*
X118717051Y-65028419D01*
X118821580Y-65132948D01*
X118821584Y-65132951D01*
X118944498Y-65215080D01*
X118944511Y-65215087D01*
X119081082Y-65271656D01*
X119081087Y-65271658D01*
X119081091Y-65271658D01*
X119081092Y-65271659D01*
X119226079Y-65300500D01*
X119226082Y-65300500D01*
X119373920Y-65300500D01*
X119471462Y-65281096D01*
X119518913Y-65271658D01*
X119655495Y-65215084D01*
X119778416Y-65132951D01*
X119882951Y-65028416D01*
X119965084Y-64905495D01*
X120021658Y-64768913D01*
X120035559Y-64699032D01*
X120050500Y-64623920D01*
X120050500Y-64476079D01*
X120021659Y-64331092D01*
X120021658Y-64331091D01*
X120021658Y-64331087D01*
X120005762Y-64292710D01*
X119965087Y-64194511D01*
X119965080Y-64194498D01*
X119882951Y-64071584D01*
X119882948Y-64071580D01*
X119850317Y-64038949D01*
X119816832Y-63977626D01*
X119820292Y-63912264D01*
X119839999Y-63852797D01*
X119850500Y-63750009D01*
X119850499Y-62799992D01*
X119839999Y-62697203D01*
X119784814Y-62530666D01*
X119692712Y-62381344D01*
X119568656Y-62257288D01*
X119419334Y-62165186D01*
X119252797Y-62110001D01*
X119252795Y-62110000D01*
X119150010Y-62099500D01*
X117749998Y-62099500D01*
X117749981Y-62099501D01*
X117647203Y-62110000D01*
X117647200Y-62110001D01*
X117480668Y-62165185D01*
X117480663Y-62165187D01*
X117331342Y-62257289D01*
X117207289Y-62381342D01*
X117115187Y-62530663D01*
X117115186Y-62530666D01*
X117060001Y-62697203D01*
X117060001Y-62697204D01*
X117060000Y-62697204D01*
X117049500Y-62799983D01*
X116600000Y-62799983D01*
X116600000Y-61300000D01*
X131400000Y-61300000D01*
X131400000Y-85400000D01*
G37*
%TD.AperFunction*%
%TD*%
%TA.AperFunction,Conductor*%
%TO.N,+12V*%
G36*
X109561356Y-95269685D02*
G01*
X109563146Y-95270857D01*
X109620821Y-95309394D01*
X109620823Y-95309395D01*
X109620827Y-95309397D01*
X109746991Y-95361655D01*
X109766503Y-95369737D01*
X109921153Y-95400499D01*
X109921156Y-95400500D01*
X109921158Y-95400500D01*
X110078844Y-95400500D01*
X110078845Y-95400499D01*
X110233497Y-95369737D01*
X110253009Y-95361655D01*
X110254738Y-95360939D01*
X110302190Y-95351500D01*
X112690532Y-95351500D01*
X112739724Y-95341714D01*
X112775809Y-95334537D01*
X112824191Y-95334537D01*
X112847074Y-95339088D01*
X112909467Y-95351500D01*
X112909469Y-95351500D01*
X113042531Y-95351500D01*
X115497810Y-95351500D01*
X115545262Y-95360939D01*
X115546991Y-95361655D01*
X115566503Y-95369737D01*
X115721153Y-95400499D01*
X115721156Y-95400500D01*
X115721158Y-95400500D01*
X115878844Y-95400500D01*
X115878845Y-95400499D01*
X116033497Y-95369737D01*
X116179179Y-95309394D01*
X116236793Y-95270897D01*
X116303468Y-95250020D01*
X116305683Y-95250000D01*
X119094317Y-95250000D01*
X119161356Y-95269685D01*
X119163146Y-95270857D01*
X119220821Y-95309394D01*
X119220823Y-95309395D01*
X119220827Y-95309397D01*
X119346991Y-95361655D01*
X119366503Y-95369737D01*
X119521153Y-95400499D01*
X119521156Y-95400500D01*
X119521158Y-95400500D01*
X119678844Y-95400500D01*
X119678845Y-95400499D01*
X119833497Y-95369737D01*
X119979179Y-95309394D01*
X120036793Y-95270897D01*
X120103468Y-95250020D01*
X120105683Y-95250000D01*
X124094317Y-95250000D01*
X124161356Y-95269685D01*
X124163146Y-95270857D01*
X124220821Y-95309394D01*
X124220823Y-95309395D01*
X124220827Y-95309397D01*
X124346991Y-95361655D01*
X124366503Y-95369737D01*
X124521153Y-95400499D01*
X124521156Y-95400500D01*
X124521158Y-95400500D01*
X124678844Y-95400500D01*
X124678845Y-95400499D01*
X124833497Y-95369737D01*
X124979179Y-95309394D01*
X125036793Y-95270897D01*
X125103468Y-95250020D01*
X125105683Y-95250000D01*
X126394317Y-95250000D01*
X126461356Y-95269685D01*
X126463146Y-95270857D01*
X126520821Y-95309394D01*
X126520823Y-95309395D01*
X126520827Y-95309397D01*
X126646991Y-95361655D01*
X126666503Y-95369737D01*
X126821153Y-95400499D01*
X126821156Y-95400500D01*
X126821158Y-95400500D01*
X126978844Y-95400500D01*
X126978845Y-95400499D01*
X127133497Y-95369737D01*
X127279179Y-95309394D01*
X127292490Y-95300500D01*
X127298628Y-95296399D01*
X127365305Y-95275520D01*
X127367520Y-95275500D01*
X127675205Y-95275500D01*
X127742244Y-95295185D01*
X127787999Y-95347989D01*
X127788761Y-95353077D01*
X128549437Y-96113752D01*
X128397374Y-96176740D01*
X128258156Y-96269762D01*
X128139762Y-96388156D01*
X128046740Y-96527374D01*
X127983753Y-96679437D01*
X127238651Y-95934336D01*
X127137227Y-96110007D01*
X127137220Y-96110021D01*
X127044421Y-96334060D01*
X126981653Y-96568312D01*
X126950001Y-96808735D01*
X126950000Y-96808751D01*
X126950000Y-97051248D01*
X126950001Y-97051264D01*
X126981653Y-97291687D01*
X127044421Y-97525939D01*
X127137221Y-97749981D01*
X127137229Y-97749997D01*
X127238651Y-97925663D01*
X127983752Y-97180562D01*
X128046740Y-97332626D01*
X128139762Y-97471844D01*
X128258156Y-97590238D01*
X128397374Y-97683260D01*
X128549437Y-97746246D01*
X127804335Y-98491347D01*
X127804335Y-98491348D01*
X127980002Y-98592770D01*
X127980018Y-98592778D01*
X128204060Y-98685578D01*
X128438312Y-98748346D01*
X128678735Y-98779998D01*
X128678752Y-98780000D01*
X128921248Y-98780000D01*
X128921264Y-98779998D01*
X129161687Y-98748346D01*
X129395939Y-98685578D01*
X129619981Y-98592778D01*
X129619990Y-98592773D01*
X129795663Y-98491347D01*
X129050562Y-97746247D01*
X129202626Y-97683260D01*
X129341844Y-97590238D01*
X129460238Y-97471844D01*
X129553260Y-97332626D01*
X129616247Y-97180562D01*
X130361347Y-97925663D01*
X130462773Y-97749990D01*
X130462778Y-97749981D01*
X130555578Y-97525939D01*
X130618346Y-97291687D01*
X130649998Y-97051264D01*
X130650000Y-97051248D01*
X130650000Y-96808751D01*
X130649998Y-96808735D01*
X130618346Y-96568312D01*
X130555578Y-96334060D01*
X130462778Y-96110018D01*
X130462770Y-96110002D01*
X130361347Y-95934335D01*
X129616246Y-96679436D01*
X129553260Y-96527374D01*
X129460238Y-96388156D01*
X129341844Y-96269762D01*
X129202626Y-96176740D01*
X129050560Y-96113752D01*
X129811687Y-95352627D01*
X129812619Y-95346654D01*
X129858997Y-95294396D01*
X129924794Y-95275500D01*
X130683264Y-95275500D01*
X130704657Y-95277359D01*
X130706027Y-95277599D01*
X130821158Y-95300500D01*
X130836779Y-95300500D01*
X130847393Y-95302359D01*
X130869443Y-95313256D01*
X130893039Y-95320185D01*
X130900210Y-95328461D01*
X130910031Y-95333315D01*
X130922690Y-95354404D01*
X130938794Y-95372989D01*
X130941606Y-95385917D01*
X130945990Y-95393220D01*
X130945645Y-95404482D01*
X130950000Y-95424500D01*
X130950000Y-99075500D01*
X130930315Y-99142539D01*
X130877511Y-99188294D01*
X130826000Y-99199500D01*
X100374000Y-99199500D01*
X100306961Y-99179815D01*
X100261206Y-99127011D01*
X100250000Y-99075500D01*
X100250000Y-95300185D01*
X100250000Y-95300000D01*
X103969340Y-95300000D01*
X103907684Y-95361655D01*
X103815643Y-95510876D01*
X103815641Y-95510881D01*
X103760494Y-95677303D01*
X103760493Y-95677310D01*
X103750000Y-95780014D01*
X103750000Y-96020184D01*
X104978546Y-96349371D01*
X104939762Y-96388156D01*
X104846740Y-96527374D01*
X104782665Y-96682064D01*
X104750000Y-96846282D01*
X104750000Y-97013718D01*
X104771564Y-97122131D01*
X103750000Y-96848404D01*
X103750000Y-98079985D01*
X103760493Y-98182689D01*
X103760494Y-98182696D01*
X103815641Y-98349118D01*
X103815643Y-98349123D01*
X103907684Y-98498344D01*
X104031655Y-98622315D01*
X104180876Y-98714356D01*
X104180881Y-98714358D01*
X104347303Y-98769505D01*
X104347310Y-98769506D01*
X104450014Y-98779999D01*
X104450027Y-98780000D01*
X104690184Y-98780000D01*
X104690184Y-98779999D01*
X104691556Y-98774881D01*
X104691556Y-98774880D01*
X105019370Y-97551452D01*
X105058156Y-97590238D01*
X105197374Y-97683260D01*
X105352064Y-97747335D01*
X105516282Y-97780000D01*
X105683718Y-97780000D01*
X105792130Y-97758435D01*
X105518404Y-98779999D01*
X105518404Y-98780000D01*
X106749973Y-98780000D01*
X106749985Y-98779999D01*
X106852689Y-98769506D01*
X106852696Y-98769505D01*
X107019118Y-98714358D01*
X107019123Y-98714356D01*
X107168344Y-98622315D01*
X107292315Y-98498344D01*
X107364195Y-98381809D01*
X107364195Y-98381808D01*
X107384355Y-98349125D01*
X107384358Y-98349118D01*
X107439505Y-98182696D01*
X107439506Y-98182689D01*
X107449999Y-98079985D01*
X107450000Y-98079972D01*
X107450000Y-97839814D01*
X106221454Y-97510627D01*
X106260238Y-97471844D01*
X106353260Y-97332626D01*
X106417335Y-97177936D01*
X106450000Y-97013718D01*
X106450000Y-96846282D01*
X106428435Y-96737867D01*
X107449999Y-97011594D01*
X107450000Y-97011594D01*
X107450000Y-95780027D01*
X107449999Y-95780014D01*
X107439506Y-95677310D01*
X107439505Y-95677303D01*
X107384358Y-95510881D01*
X107384356Y-95510876D01*
X107340082Y-95439097D01*
X107321642Y-95371704D01*
X107342565Y-95305041D01*
X107396207Y-95260271D01*
X107445621Y-95250000D01*
X109494317Y-95250000D01*
X109561356Y-95269685D01*
G37*
%TD.AperFunction*%
%TD*%
%TA.AperFunction,Conductor*%
%TO.N,GND*%
G36*
X114999500Y-78695396D02*
G01*
X114990062Y-78742844D01*
X114980263Y-78766503D01*
X114980262Y-78766506D01*
X114980260Y-78766511D01*
X114949500Y-78921153D01*
X114949500Y-79078846D01*
X114980261Y-79233489D01*
X114980264Y-79233501D01*
X115040602Y-79379172D01*
X115040609Y-79379185D01*
X115128210Y-79510288D01*
X115128213Y-79510292D01*
X115239707Y-79621786D01*
X115239711Y-79621789D01*
X115370814Y-79709390D01*
X115370827Y-79709397D01*
X115516498Y-79769735D01*
X115516503Y-79769737D01*
X115671153Y-79800499D01*
X115671156Y-79800500D01*
X115671158Y-79800500D01*
X115828844Y-79800500D01*
X115828845Y-79800499D01*
X115983497Y-79769737D01*
X116129179Y-79709394D01*
X116260289Y-79621789D01*
X116371789Y-79510289D01*
X116459394Y-79379179D01*
X116519737Y-79233497D01*
X116550500Y-79078842D01*
X116550500Y-78921158D01*
X116550500Y-78921155D01*
X116550499Y-78921153D01*
X116519739Y-78766511D01*
X116519738Y-78766508D01*
X116519737Y-78766503D01*
X116509937Y-78742844D01*
X116500500Y-78695396D01*
X116500500Y-75600000D01*
X116600000Y-75600000D01*
X116600000Y-83685000D01*
X114800000Y-84000000D01*
X110050000Y-84000000D01*
X109550000Y-83650000D01*
X101800500Y-83650000D01*
X101800500Y-75600000D01*
X114999500Y-75600000D01*
X114999500Y-78695396D01*
G37*
%TD.AperFunction*%
%TD*%
%TA.AperFunction,Conductor*%
%TO.N,GND*%
G36*
X113876799Y-50820185D02*
G01*
X113922554Y-50872989D01*
X113932498Y-50942147D01*
X113903473Y-51005703D01*
X113885246Y-51022876D01*
X113777263Y-51105733D01*
X113777256Y-51105739D01*
X113605739Y-51277256D01*
X113605733Y-51277263D01*
X113458067Y-51469706D01*
X113336777Y-51679785D01*
X113336773Y-51679794D01*
X113243947Y-51903895D01*
X113181161Y-52138214D01*
X113149500Y-52378711D01*
X113149500Y-52621288D01*
X113181161Y-52861785D01*
X113243947Y-53096104D01*
X113336773Y-53320205D01*
X113336776Y-53320212D01*
X113458064Y-53530289D01*
X113458066Y-53530292D01*
X113458067Y-53530293D01*
X113605733Y-53722736D01*
X113605739Y-53722743D01*
X113777256Y-53894260D01*
X113777262Y-53894265D01*
X113969711Y-54041936D01*
X114179788Y-54163224D01*
X114403900Y-54256054D01*
X114638211Y-54318838D01*
X114818586Y-54342584D01*
X114878711Y-54350500D01*
X114878712Y-54350500D01*
X115121289Y-54350500D01*
X115169388Y-54344167D01*
X115361789Y-54318838D01*
X115596100Y-54256054D01*
X115820212Y-54163224D01*
X116030289Y-54041936D01*
X116222738Y-53894265D01*
X116394265Y-53722738D01*
X116541936Y-53530289D01*
X116663224Y-53320212D01*
X116756054Y-53096100D01*
X116818838Y-52861789D01*
X116850500Y-52621288D01*
X116850500Y-52378712D01*
X116818838Y-52138211D01*
X116756054Y-51903900D01*
X116663224Y-51679788D01*
X116541936Y-51469711D01*
X116394265Y-51277262D01*
X116394260Y-51277256D01*
X116222743Y-51105739D01*
X116222736Y-51105733D01*
X116114754Y-51022876D01*
X116073551Y-50966448D01*
X116069396Y-50896702D01*
X116103608Y-50835782D01*
X116165325Y-50803029D01*
X116190240Y-50800500D01*
X136075500Y-50800500D01*
X136142539Y-50820185D01*
X136188294Y-50872989D01*
X136199500Y-50924500D01*
X136199500Y-56578846D01*
X136230261Y-56733489D01*
X136230264Y-56733501D01*
X136290602Y-56879172D01*
X136290609Y-56879185D01*
X136378210Y-57010288D01*
X136378213Y-57010292D01*
X136489707Y-57121786D01*
X136489711Y-57121789D01*
X136620814Y-57209390D01*
X136620827Y-57209397D01*
X136718848Y-57249998D01*
X136766503Y-57269737D01*
X136921153Y-57300499D01*
X136921156Y-57300500D01*
X136921158Y-57300500D01*
X137392835Y-57300500D01*
X137388799Y-61300000D01*
X100400000Y-61300000D01*
X100400000Y-59593053D01*
X117250000Y-59593053D01*
X117260613Y-59681443D01*
X117316079Y-59822095D01*
X117407435Y-59942564D01*
X117527904Y-60033920D01*
X117668556Y-60089386D01*
X117756946Y-60100000D01*
X118050000Y-60100000D01*
X118850000Y-60100000D01*
X119143054Y-60100000D01*
X119231443Y-60089386D01*
X119372095Y-60033920D01*
X119492564Y-59942564D01*
X119583920Y-59822095D01*
X119639386Y-59681443D01*
X119650000Y-59593053D01*
X119650000Y-59525000D01*
X118850000Y-59525000D01*
X118850000Y-60100000D01*
X118050000Y-60100000D01*
X118050000Y-59525000D01*
X117250000Y-59525000D01*
X117250000Y-59593053D01*
X100400000Y-59593053D01*
X100400000Y-52793713D01*
X104324500Y-52793713D01*
X104324500Y-53006287D01*
X104357754Y-53216243D01*
X104391536Y-53320214D01*
X104423444Y-53418414D01*
X104519951Y-53607820D01*
X104644890Y-53779786D01*
X104795209Y-53930105D01*
X104795214Y-53930109D01*
X104959793Y-54049682D01*
X105002459Y-54105011D01*
X105008438Y-54174625D01*
X104975833Y-54236420D01*
X104959793Y-54250318D01*
X104795214Y-54369890D01*
X104795209Y-54369894D01*
X104644890Y-54520213D01*
X104519951Y-54692179D01*
X104423444Y-54881585D01*
X104357753Y-55083760D01*
X104356754Y-55090068D01*
X104324500Y-55293713D01*
X104324500Y-55506287D01*
X104357754Y-55716243D01*
X104414117Y-55889711D01*
X104423444Y-55918414D01*
X104519951Y-56107820D01*
X104644890Y-56279786D01*
X104783705Y-56418601D01*
X104817190Y-56479924D01*
X104812206Y-56549616D01*
X104770334Y-56605549D01*
X104761121Y-56611821D01*
X104606342Y-56707289D01*
X104482289Y-56831342D01*
X104390187Y-56980663D01*
X104390185Y-56980668D01*
X104380369Y-57010292D01*
X104335001Y-57147203D01*
X104335001Y-57147204D01*
X104335000Y-57147204D01*
X104324500Y-57249983D01*
X104324500Y-58550001D01*
X104324501Y-58550018D01*
X104335000Y-58652796D01*
X104335001Y-58652799D01*
X104377081Y-58779786D01*
X104390186Y-58819334D01*
X104482288Y-58968656D01*
X104606344Y-59092712D01*
X104755666Y-59184814D01*
X104922203Y-59239999D01*
X105024991Y-59250500D01*
X106575008Y-59250499D01*
X106677797Y-59239999D01*
X106844334Y-59184814D01*
X106993656Y-59092712D01*
X107117712Y-58968656D01*
X107209814Y-58819334D01*
X107263624Y-58656946D01*
X117250000Y-58656946D01*
X117250000Y-58725000D01*
X118050000Y-58725000D01*
X118850000Y-58725000D01*
X119650000Y-58725000D01*
X119650000Y-58656946D01*
X119639386Y-58568556D01*
X119583920Y-58427904D01*
X119492564Y-58307435D01*
X119372095Y-58216079D01*
X119231443Y-58160613D01*
X119143054Y-58150000D01*
X118850000Y-58150000D01*
X118850000Y-58725000D01*
X118050000Y-58725000D01*
X118050000Y-58150000D01*
X117756946Y-58150000D01*
X117668556Y-58160613D01*
X117527904Y-58216079D01*
X117407435Y-58307435D01*
X117316079Y-58427904D01*
X117260613Y-58568556D01*
X117250000Y-58656946D01*
X107263624Y-58656946D01*
X107264999Y-58652797D01*
X107275500Y-58550009D01*
X107275499Y-57249992D01*
X107271351Y-57209390D01*
X107264999Y-57147203D01*
X107264998Y-57147200D01*
X107248691Y-57097989D01*
X107209814Y-56980666D01*
X107117712Y-56831344D01*
X106993656Y-56707288D01*
X106844334Y-56615186D01*
X106844333Y-56615185D01*
X106838878Y-56611821D01*
X106792154Y-56559873D01*
X106780931Y-56490910D01*
X106808775Y-56426828D01*
X106816272Y-56418623D01*
X106955104Y-56279792D01*
X107080051Y-56107816D01*
X107176557Y-55918412D01*
X107242246Y-55716243D01*
X107275500Y-55506287D01*
X107275500Y-55293713D01*
X107242246Y-55083757D01*
X107176557Y-54881588D01*
X107080051Y-54692184D01*
X107080049Y-54692181D01*
X107080048Y-54692179D01*
X106955109Y-54520213D01*
X106804792Y-54369896D01*
X106804784Y-54369890D01*
X106737703Y-54321153D01*
X108799500Y-54321153D01*
X108799500Y-54478846D01*
X108830261Y-54633489D01*
X108830264Y-54633501D01*
X108890602Y-54779172D01*
X108890609Y-54779184D01*
X108953602Y-54873459D01*
X108974480Y-54940136D01*
X108974500Y-54942350D01*
X108974500Y-56238393D01*
X108974500Y-56361607D01*
X108984109Y-56409916D01*
X108998537Y-56482452D01*
X109005199Y-56498535D01*
X109008673Y-56506923D01*
X109008675Y-56506929D01*
X109045685Y-56596281D01*
X109045688Y-56596286D01*
X109073823Y-56638391D01*
X109073824Y-56638394D01*
X109114138Y-56698728D01*
X109114139Y-56698729D01*
X109114142Y-56698733D01*
X109201267Y-56785858D01*
X109201269Y-56785859D01*
X109208335Y-56792925D01*
X109208334Y-56792925D01*
X109208338Y-56792928D01*
X109605585Y-57190177D01*
X109605607Y-57190197D01*
X110014139Y-57598729D01*
X110014142Y-57598733D01*
X110101267Y-57685858D01*
X110178190Y-57737256D01*
X110183990Y-57741132D01*
X110183993Y-57741134D01*
X110203710Y-57754309D01*
X110203712Y-57754310D01*
X110203715Y-57754312D01*
X110270397Y-57781932D01*
X110317548Y-57801463D01*
X110329911Y-57803922D01*
X110438390Y-57825499D01*
X110438392Y-57825500D01*
X110438393Y-57825500D01*
X110438394Y-57825500D01*
X120350500Y-57825500D01*
X120417539Y-57845185D01*
X120463294Y-57897989D01*
X120474500Y-57949500D01*
X120474500Y-59257650D01*
X120454815Y-59324689D01*
X120453602Y-59326541D01*
X120390609Y-59420815D01*
X120390602Y-59420828D01*
X120330264Y-59566498D01*
X120330261Y-59566510D01*
X120299500Y-59721153D01*
X120299500Y-59878846D01*
X120330261Y-60033489D01*
X120330264Y-60033501D01*
X120390602Y-60179172D01*
X120390609Y-60179185D01*
X120478210Y-60310288D01*
X120478213Y-60310292D01*
X120589707Y-60421786D01*
X120589711Y-60421789D01*
X120720814Y-60509390D01*
X120720827Y-60509397D01*
X120866498Y-60569735D01*
X120866503Y-60569737D01*
X121021153Y-60600499D01*
X121021156Y-60600500D01*
X121021158Y-60600500D01*
X121178844Y-60600500D01*
X121178845Y-60600499D01*
X121333497Y-60569737D01*
X121479179Y-60509394D01*
X121610289Y-60421789D01*
X121721789Y-60310289D01*
X121809394Y-60179179D01*
X121869737Y-60033497D01*
X121900500Y-59878842D01*
X121900500Y-59721158D01*
X121900500Y-59721155D01*
X121900499Y-59721153D01*
X121869738Y-59566510D01*
X121869737Y-59566503D01*
X121809394Y-59420821D01*
X121746397Y-59326539D01*
X121725520Y-59259863D01*
X121725500Y-59257650D01*
X121725500Y-57438393D01*
X121725499Y-57438389D01*
X121701464Y-57317555D01*
X121701463Y-57317548D01*
X121654311Y-57203714D01*
X121651980Y-57198086D01*
X121654326Y-57197113D01*
X121642332Y-57139584D01*
X121667314Y-57074334D01*
X121723608Y-57032948D01*
X121765935Y-57025500D01*
X122200500Y-57025500D01*
X122267539Y-57045185D01*
X122313294Y-57097989D01*
X122323072Y-57142939D01*
X122323903Y-57142858D01*
X122324499Y-57148920D01*
X122353340Y-57293907D01*
X122353343Y-57293917D01*
X122409912Y-57430488D01*
X122409919Y-57430501D01*
X122492048Y-57553415D01*
X122492051Y-57553419D01*
X122596580Y-57657948D01*
X122596584Y-57657951D01*
X122719498Y-57740080D01*
X122719511Y-57740087D01*
X122817375Y-57780623D01*
X122856087Y-57796658D01*
X122856091Y-57796658D01*
X122856092Y-57796659D01*
X123001079Y-57825500D01*
X123001082Y-57825500D01*
X123148920Y-57825500D01*
X123269757Y-57801463D01*
X123293913Y-57796658D01*
X123430495Y-57740084D01*
X123553416Y-57657951D01*
X123657951Y-57553416D01*
X123740084Y-57430495D01*
X123796658Y-57293913D01*
X123825500Y-57148918D01*
X123826097Y-57142858D01*
X123827412Y-57142987D01*
X123845185Y-57082461D01*
X123897989Y-57036706D01*
X123949500Y-57025500D01*
X125261607Y-57025500D01*
X125322029Y-57013481D01*
X125382452Y-57001463D01*
X125435929Y-56979312D01*
X125496286Y-56954312D01*
X125547509Y-56920084D01*
X125598733Y-56885858D01*
X125685858Y-56798733D01*
X125685858Y-56798731D01*
X125696066Y-56788524D01*
X125696067Y-56788521D01*
X127501601Y-54982988D01*
X127562923Y-54949504D01*
X127632615Y-54954488D01*
X127688548Y-54996360D01*
X127712965Y-55061824D01*
X127711754Y-55090068D01*
X127679500Y-55293713D01*
X127679500Y-55506287D01*
X127712754Y-55716243D01*
X127769117Y-55889711D01*
X127778444Y-55918414D01*
X127874951Y-56107820D01*
X127999890Y-56279786D01*
X128150209Y-56430105D01*
X128150214Y-56430109D01*
X128314793Y-56549682D01*
X128357459Y-56605011D01*
X128363438Y-56674625D01*
X128330833Y-56736420D01*
X128314793Y-56750318D01*
X128150214Y-56869890D01*
X128150209Y-56869894D01*
X127999890Y-57020213D01*
X127874951Y-57192179D01*
X127778444Y-57381585D01*
X127712753Y-57583760D01*
X127681573Y-57780623D01*
X127679500Y-57793713D01*
X127679500Y-58006287D01*
X127712754Y-58216243D01*
X127742384Y-58307435D01*
X127778444Y-58418414D01*
X127874951Y-58607820D01*
X127999890Y-58779786D01*
X128150213Y-58930109D01*
X128322179Y-59055048D01*
X128322181Y-59055049D01*
X128322184Y-59055051D01*
X128511588Y-59151557D01*
X128713757Y-59217246D01*
X128923713Y-59250500D01*
X128923714Y-59250500D01*
X129386286Y-59250500D01*
X129386287Y-59250500D01*
X129596243Y-59217246D01*
X129798412Y-59151557D01*
X129987816Y-59055051D01*
X130009789Y-59039086D01*
X130159786Y-58930109D01*
X130159788Y-58930106D01*
X130159792Y-58930104D01*
X130310104Y-58779792D01*
X130310106Y-58779788D01*
X130310109Y-58779786D01*
X130435048Y-58607820D01*
X130435047Y-58607820D01*
X130435051Y-58607816D01*
X130531557Y-58418412D01*
X130597246Y-58216243D01*
X130630500Y-58006287D01*
X130630500Y-57793713D01*
X130597246Y-57583757D01*
X130531557Y-57381588D01*
X130435051Y-57192184D01*
X130435049Y-57192181D01*
X130435048Y-57192179D01*
X130310109Y-57020213D01*
X130159792Y-56869896D01*
X130106729Y-56831344D01*
X129995204Y-56750316D01*
X129952540Y-56694989D01*
X129946561Y-56625376D01*
X129979166Y-56563580D01*
X129995199Y-56549686D01*
X130159792Y-56430104D01*
X130310104Y-56279792D01*
X130310106Y-56279788D01*
X130310109Y-56279786D01*
X130435048Y-56107820D01*
X130435047Y-56107820D01*
X130435051Y-56107816D01*
X130531557Y-55918412D01*
X130597246Y-55716243D01*
X130630500Y-55506287D01*
X130630500Y-55293713D01*
X130597246Y-55083757D01*
X130531557Y-54881588D01*
X130435051Y-54692184D01*
X130435049Y-54692181D01*
X130435048Y-54692179D01*
X130310109Y-54520213D01*
X130171294Y-54381398D01*
X130137809Y-54320075D01*
X130142793Y-54250383D01*
X130184665Y-54194450D01*
X130193879Y-54188178D01*
X130199331Y-54184814D01*
X130199334Y-54184814D01*
X130348656Y-54092712D01*
X130472712Y-53968656D01*
X130564814Y-53819334D01*
X130619999Y-53652797D01*
X130630500Y-53550009D01*
X130630499Y-52249992D01*
X130619999Y-52147203D01*
X130564814Y-51980666D01*
X130472712Y-51831344D01*
X130348656Y-51707288D01*
X130199334Y-51615186D01*
X130032797Y-51560001D01*
X130032795Y-51560000D01*
X129930010Y-51549500D01*
X128379998Y-51549500D01*
X128379981Y-51549501D01*
X128277203Y-51560000D01*
X128277200Y-51560001D01*
X128110668Y-51615185D01*
X128110663Y-51615187D01*
X127961342Y-51707289D01*
X127837289Y-51831342D01*
X127745187Y-51980663D01*
X127745186Y-51980666D01*
X127690001Y-52147203D01*
X127690001Y-52147204D01*
X127690000Y-52147204D01*
X127679500Y-52249983D01*
X127679500Y-52984546D01*
X127659815Y-53051585D01*
X127643181Y-53072227D01*
X126937199Y-53778210D01*
X125631650Y-55083760D01*
X124977229Y-55738181D01*
X124915906Y-55771666D01*
X124889548Y-55774500D01*
X111542350Y-55774500D01*
X111475311Y-55754815D01*
X111473459Y-55753602D01*
X111379184Y-55690609D01*
X111379172Y-55690602D01*
X111233501Y-55630264D01*
X111233489Y-55630261D01*
X111078845Y-55599500D01*
X111078842Y-55599500D01*
X110921158Y-55599500D01*
X110921155Y-55599500D01*
X110766510Y-55630261D01*
X110766498Y-55630264D01*
X110620827Y-55690602D01*
X110620814Y-55690609D01*
X110489711Y-55778210D01*
X110489707Y-55778213D01*
X110437181Y-55830740D01*
X110375858Y-55864225D01*
X110306166Y-55859241D01*
X110250233Y-55817369D01*
X110225816Y-55751905D01*
X110225500Y-55743059D01*
X110225500Y-54942350D01*
X110245185Y-54875311D01*
X110246398Y-54873459D01*
X110246809Y-54872843D01*
X110309394Y-54779179D01*
X110369737Y-54633497D01*
X110400500Y-54478842D01*
X110400500Y-54321158D01*
X110400500Y-54321155D01*
X110400499Y-54321153D01*
X110387550Y-54256054D01*
X110369737Y-54166503D01*
X110352702Y-54125376D01*
X110309397Y-54020827D01*
X110309390Y-54020814D01*
X110221789Y-53889711D01*
X110221786Y-53889707D01*
X110110292Y-53778213D01*
X110110288Y-53778210D01*
X109979185Y-53690609D01*
X109979172Y-53690602D01*
X109833501Y-53630264D01*
X109833489Y-53630261D01*
X109678845Y-53599500D01*
X109678842Y-53599500D01*
X109521158Y-53599500D01*
X109521155Y-53599500D01*
X109366510Y-53630261D01*
X109366498Y-53630264D01*
X109220827Y-53690602D01*
X109220814Y-53690609D01*
X109089711Y-53778210D01*
X109089707Y-53778213D01*
X108978213Y-53889707D01*
X108978210Y-53889711D01*
X108890609Y-54020814D01*
X108890602Y-54020827D01*
X108830264Y-54166498D01*
X108830261Y-54166510D01*
X108799500Y-54321153D01*
X106737703Y-54321153D01*
X106640204Y-54250316D01*
X106597540Y-54194989D01*
X106591561Y-54125376D01*
X106624166Y-54063580D01*
X106640199Y-54049686D01*
X106804792Y-53930104D01*
X106955104Y-53779792D01*
X106955106Y-53779788D01*
X106955109Y-53779786D01*
X107080048Y-53607820D01*
X107080047Y-53607820D01*
X107080051Y-53607816D01*
X107176557Y-53418412D01*
X107242246Y-53216243D01*
X107275500Y-53006287D01*
X107275500Y-52793713D01*
X107242246Y-52583757D01*
X107176557Y-52381588D01*
X107080051Y-52192184D01*
X107080049Y-52192181D01*
X107080048Y-52192179D01*
X106955109Y-52020213D01*
X106804786Y-51869890D01*
X106632820Y-51744951D01*
X106443414Y-51648444D01*
X106443413Y-51648443D01*
X106443412Y-51648443D01*
X106241243Y-51582754D01*
X106241241Y-51582753D01*
X106241240Y-51582753D01*
X106079957Y-51557208D01*
X106031287Y-51549500D01*
X105568713Y-51549500D01*
X105520042Y-51557208D01*
X105358760Y-51582753D01*
X105156585Y-51648444D01*
X104967179Y-51744951D01*
X104795213Y-51869890D01*
X104644890Y-52020213D01*
X104519951Y-52192179D01*
X104423444Y-52381585D01*
X104357753Y-52583760D01*
X104324500Y-52793713D01*
X100400000Y-52793713D01*
X100400000Y-52324000D01*
X100419685Y-52256961D01*
X100472489Y-52211206D01*
X100524000Y-52200000D01*
X101200000Y-52200000D01*
X101200000Y-50924500D01*
X101219685Y-50857461D01*
X101272489Y-50811706D01*
X101324000Y-50800500D01*
X113809760Y-50800500D01*
X113876799Y-50820185D01*
G37*
%TD.AperFunction*%
%TD*%
M02*
