M48
; DRILL file {KiCad 9.0.3} date 2025-08-09T17:03:07-0400
; FORMAT={-:-/ absolute / inch / decimal}
; #@! TF.CreationDate,2025-08-09T17:03:07-04:00
; #@! TF.GenerationSoftware,Kicad,Pcbnew,9.0.3
; #@! TF.FileFunction,Plated,1,2,PTH
FMAT,2
INCH
; #@! TA.AperFunction,Plated,PTH,ViaDrill
T1C0.0079
; #@! TA.AperFunction,Plated,PTH,ComponentDrill
T2C0.0079
; #@! TA.AperFunction,Plated,PTH,ViaDrill
T3C0.0118
; #@! TA.AperFunction,Plated,PTH,ComponentDrill
T4C0.0130
; #@! TA.AperFunction,Plated,PTH,ComponentDrill
T5C0.0315
; #@! TA.AperFunction,Plated,PTH,ComponentDrill
T6C0.0374
; #@! TA.AperFunction,Plated,PTH,ComponentDrill
T7C0.0394
; #@! TA.AperFunction,Plated,PTH,ComponentDrill
T8C0.0669
%
G90
G05
T1
X4.5118Y-3.0256
X4.5138Y-2.9587
X4.6024Y-3.0256
T2
X4.8543Y-2.9807
X4.8543Y-3.024
X4.876Y-2.9591
X4.876Y-3.0024
X4.876Y-3.0457
X4.8976Y-2.9807
X4.8976Y-3.024
X4.9193Y-2.9591
X4.9193Y-3.0024
X4.9193Y-3.0457
X4.9409Y-2.9807
X4.9409Y-3.024
T3
X3.9665Y-3.4272
X3.9685Y-2.2047
X3.9685Y-2.3504
X3.9685Y-2.9567
X3.9705Y-3.2205
X3.9724Y-3.6063
X3.9724Y-3.7638
X3.9724Y-3.8858
X3.9902Y-2.8091
X4.0433Y-3.4843
X4.0807Y-2.3327
X4.1063Y-2.6929
X4.1161Y-2.6043
X4.1181Y-3.1181
X4.126Y-3.063
X4.1339Y-2.5768
X4.1614Y-3.5748
X4.1654Y-2.0138
X4.1732Y-3.3071
X4.1791Y-2.5787
X4.2047Y-3.1024
X4.2264Y-2.6339
X4.2283Y-2.5787
X4.2283Y-2.9606
X4.2402Y-3.2795
X4.2657Y-3.0256
X4.2677Y-3.5748
X4.2776Y-2.3366
X4.2795Y-2.5551
X4.2835Y-3.7559
X4.2835Y-3.8858
X4.2874Y-2.5984
X4.2894Y-2.7087
X4.2933Y-2.0551
X4.2972Y-2.2559
X4.2992Y-3.2402
X4.315Y-2.1417
X4.3307Y-3.6535
X4.3307Y-3.7244
X4.3346Y-2.563
X4.3346Y-3.5748
X4.3543Y-2.5906
X4.3543Y-2.6142
X4.3583Y-2.563
X4.3622Y-2.0138
X4.3681Y-2.6929
X4.3701Y-2.2205
X4.374Y-2.1201
X4.3819Y-2.563
X4.3878Y-2.9488
X4.4055Y-2.563
X4.4154Y-3.0256
X4.4193Y-2.8445
X4.4409Y-3.7205
X4.4409Y-3.7697
X4.4409Y-3.8858
X4.4429Y-2.1791
X4.4449Y-3.4311
X4.4449Y-3.4587
X4.4803Y-2.2874
X4.4882Y-2.6772
X4.4921Y-2.7913
X4.5571Y-2.9488
X4.5571Y-3.1102
X4.5591Y-2.8583
X4.5591Y-3.5748
X4.5591Y-3.7244
X4.5768Y-2.2854
X4.5945Y-2.8937
X4.6024Y-3.7559
X4.6024Y-3.8858
X4.6142Y-2.9429
X4.6693Y-2.5709
X4.6693Y-2.6791
X4.6929Y-2.4016
X4.6969Y-2.5413
X4.7008Y-3.6299
X4.7047Y-3.0118
X4.7087Y-3.7244
X4.7126Y-2.1752
X4.7205Y-2.8465
X4.7677Y-2.3543
X4.7795Y-2.0138
X4.7795Y-2.811
X4.7815Y-3.6299
X4.7835Y-3.7539
X4.7835Y-3.8839
X4.8189Y-2.9016
X4.8209Y-2.7283
X4.8455Y-2.247
X4.874Y-2.6811
X4.8898Y-2.811
X4.8957Y-2.1752
X4.9055Y-3.7244
X4.9252Y-2.2972
X4.9252Y-2.5512
X4.9291Y-3.1299
X4.9488Y-3.7559
X4.9488Y-3.8858
X4.9646Y-2.7874
X4.9744Y-2.4154
X4.9764Y-2.0138
X4.9921Y-3.6181
X4.9961Y-3.7244
X5.0039Y-2.7283
X5.0049Y-3.1988
X5.0433Y-3.5866
X5.0492Y-2.3425
X5.0591Y-2.5709
X5.0709Y-3.5531
X5.0748Y-3.3858
X5.0915Y-2.4793
X5.0998Y-3.199
X5.1043Y-2.4144
X5.1142Y-3.252
X5.1339Y-3.7598
X5.1378Y-3.8858
X5.1535Y-3.7205
X5.1575Y-2.3327
X5.1575Y-2.4016
X5.1575Y-3.5709
X5.1614Y-3.4173
X5.1732Y-2.0138
X5.1929Y-3.8858
X5.2283Y-3.563
X5.2756Y-2.3327
X5.2756Y-2.4016
X5.2953Y-3.8858
X5.3091Y-3.5276
X5.3425Y-3.6752
X5.3425Y-3.8366
X5.3445Y-2.0138
X5.3445Y-2.1831
X5.3937Y-2.3327
X5.3937Y-2.4016
X5.4606Y-3.626
X5.5079Y-3.5276
X5.5118Y-2.3327
X5.5118Y-2.4016
X5.5827Y-3.626
X5.6299Y-2.3327
X5.6299Y-2.4311
X5.6299Y-3.4606
X5.6417Y-2.6043
X5.6417Y-2.7559
X5.6417Y-3.1496
X5.6417Y-3.3012
X5.689Y-2.8898
X5.689Y-3.0157
X5.7972Y-3.061
X5.8268Y-2.628
X5.8366Y-2.687
X5.8366Y-2.814
X5.8661Y-3.002
X5.8878Y-3.0945
X5.9252Y-2.628
X5.935Y-2.9724
X5.9646Y-2.815
X5.9744Y-2.687
X6.0236Y-2.685
X6.0236Y-2.8445
X6.0236Y-3.2205
T4
X4.3681Y-3.2165
X4.3681Y-3.2677
X4.4193Y-3.2165
X4.4193Y-3.2677
X4.4705Y-3.2165
X4.4705Y-3.2677
T5
X4.1031Y-3.3713
X4.2362Y-3.3356
T6
X4.1654Y-2.0827
X4.1654Y-2.1811
X4.1654Y-2.2795
X5.0848Y-2.0827
X5.0848Y-2.1811
X5.0848Y-2.2795
T7
X4.3937Y-3.6732
X4.4921Y-3.6732
X4.611Y-3.4252
X4.611Y-3.5252
X4.711Y-3.4252
X4.711Y-3.5252
X4.748Y-3.6752
X4.811Y-3.4252
X4.811Y-3.5252
X4.8465Y-3.6752
T8
X4.1575Y-3.6602
X4.1575Y-3.8161
X5.0709Y-3.6602
X5.0709Y-3.8161
M30
